<svg width="17" height="17" viewBox="0 0 17 17" fill="none" xmlns="http://www.w3.org/2000/svg">
<g clip-path="url(#clip0)">
<path d="M8.15792 10.1975C9.28431 10.1975 10.1974 9.28443 10.1974 8.15804C10.1974 7.03165 9.28431 6.11853 8.15792 6.11853C7.03153 6.11853 6.11841 7.03165 6.11841 8.15804C6.11841 9.28443 7.03153 10.1975 8.15792 10.1975Z" stroke="#616E7C" stroke-width="1.35967" stroke-linecap="round" stroke-linejoin="round"/>
<path d="M13.1889 10.1975C13.0984 10.4026 13.0714 10.63 13.1114 10.8506C13.1514 11.0711 13.2565 11.2746 13.4133 11.4348L13.4541 11.4756C13.5805 11.6019 13.6808 11.7518 13.7492 11.9169C13.8176 12.082 13.8528 12.2589 13.8528 12.4376C13.8528 12.6163 13.8176 12.7932 13.7492 12.9583C13.6808 13.1233 13.5805 13.2733 13.4541 13.3995C13.3278 13.526 13.1778 13.6263 13.0128 13.6947C12.8477 13.7631 12.6708 13.7983 12.4921 13.7983C12.3134 13.7983 12.1365 13.7631 11.9714 13.6947C11.8064 13.6263 11.6564 13.526 11.5301 13.3995L11.4893 13.3588C11.3291 13.202 11.1256 13.0969 10.9051 13.0569C10.6845 13.0169 10.4571 13.0439 10.252 13.1344C10.051 13.2206 9.87946 13.3637 9.75867 13.5461C9.63788 13.7285 9.57306 13.9422 9.57219 14.161V14.2765C9.57219 14.6371 9.42894 14.983 9.17395 15.238C8.91896 15.493 8.57313 15.6362 8.21252 15.6362C7.85191 15.6362 7.50607 15.493 7.25108 15.238C6.9961 14.983 6.85284 14.6371 6.85284 14.2765V14.2153C6.84758 13.9903 6.77474 13.7721 6.6438 13.589C6.51286 13.4059 6.32987 13.2665 6.11862 13.1888C5.91357 13.0983 5.68611 13.0713 5.46558 13.1113C5.24504 13.1513 5.04154 13.2564 4.88132 13.4131L4.84053 13.4539C4.71425 13.5804 4.5643 13.6806 4.39923 13.7491C4.23417 13.8175 4.05724 13.8527 3.87856 13.8527C3.69988 13.8527 3.52295 13.8175 3.35789 13.7491C3.19283 13.6806 3.04287 13.5804 2.91659 13.4539C2.79018 13.3277 2.68989 13.1777 2.62146 13.0126C2.55304 12.8476 2.51782 12.6706 2.51782 12.492C2.51782 12.3133 2.55304 12.1364 2.62146 11.9713C2.68989 11.8062 2.79018 11.6563 2.91659 11.53L2.95738 11.4892C3.11411 11.329 3.21925 11.1255 3.25923 10.9049C3.29922 10.6844 3.27223 10.457 3.18173 10.2519C3.09555 10.0508 2.95246 9.87934 2.77006 9.75855C2.58767 9.63776 2.37394 9.57294 2.15518 9.57207H2.0396C1.679 9.57207 1.33316 9.42882 1.07817 9.17383C0.823182 8.91884 0.679932 8.573 0.679932 8.2124C0.679932 7.85179 0.823182 7.50595 1.07817 7.25096C1.33316 6.99597 1.679 6.85272 2.0396 6.85272H2.10079C2.32581 6.84746 2.54405 6.77462 2.72712 6.64368C2.9102 6.51274 3.04965 6.32975 3.12734 6.1185C3.21784 5.91345 3.24483 5.68599 3.20485 5.46546C3.16486 5.24492 3.05972 5.04142 2.903 4.8812L2.86221 4.84041C2.73579 4.71413 2.6355 4.56417 2.56708 4.39911C2.49865 4.23405 2.46343 4.05712 2.46343 3.87844C2.46343 3.69976 2.49865 3.52283 2.56708 3.35777C2.6355 3.1927 2.73579 3.04275 2.86221 2.91647C2.98848 2.79005 3.13844 2.68977 3.3035 2.62134C3.46856 2.55292 3.64549 2.5177 3.82417 2.5177C4.00286 2.5177 4.17979 2.55292 4.34485 2.62134C4.50991 2.68977 4.65987 2.79005 4.78614 2.91647L4.82693 2.95726C4.98716 3.11399 5.19066 3.21912 5.41119 3.25911C5.63173 3.2991 5.85919 3.2721 6.06423 3.18161H6.11862C6.3197 3.09543 6.49118 2.95234 6.61197 2.76994C6.73276 2.58755 6.79759 2.37382 6.79846 2.15505V2.03948C6.79846 1.67887 6.94171 1.33304 7.1967 1.07805C7.45169 0.82306 7.79752 0.67981 8.15813 0.67981C8.51874 0.67981 8.86458 0.82306 9.11956 1.07805C9.37455 1.33304 9.5178 1.67887 9.5178 2.03948V2.10067C9.51868 2.31943 9.5835 2.53316 9.70429 2.71556C9.82508 2.89795 9.99656 3.04104 10.1976 3.12722C10.4027 3.21772 10.6301 3.24471 10.8507 3.20472C11.0712 3.16474 11.2747 3.0596 11.4349 2.90287L11.4757 2.86208C11.602 2.73567 11.752 2.63538 11.917 2.56695C12.0821 2.49853 12.259 2.46331 12.4377 2.46331C12.6164 2.46331 12.7933 2.49853 12.9584 2.56695C13.1234 2.63538 13.2734 2.73567 13.3997 2.86208C13.5261 2.98836 13.6264 3.13832 13.6948 3.30338C13.7632 3.46844 13.7984 3.64537 13.7984 3.82405C13.7984 4.00273 13.7632 4.17966 13.6948 4.34473C13.6264 4.50979 13.5261 4.65974 13.3997 4.78602L13.3589 4.82681C13.2022 4.98703 13.097 5.19053 13.057 5.41107C13.017 5.63161 13.044 5.85906 13.1345 6.06411V6.1185C13.2207 6.31957 13.3638 6.49106 13.5462 6.61185C13.7286 6.73264 13.9423 6.79746 14.1611 6.79834H14.2767C14.6373 6.79834 14.9831 6.94159 15.2381 7.19658C15.4931 7.45156 15.6363 7.7974 15.6363 8.15801C15.6363 8.51862 15.4931 8.86445 15.2381 9.11944C14.9831 9.37443 14.6373 9.51768 14.2767 9.51768H14.2155C13.9967 9.51855 13.783 9.58337 13.6006 9.70417C13.4182 9.82496 13.2751 9.99644 13.1889 10.1975V10.1975Z" stroke="#616E7C" stroke-width="1.35967" stroke-linecap="round" stroke-linejoin="round"/>
</g>
<defs>
<clipPath id="clip0">
<rect width="16.3161" height="16.3161" fill="white"/>
</clipPath>
</defs>
</svg>
