<svg width="17" height="13" viewBox="0 0 17 13" fill="none" xmlns="http://www.w3.org/2000/svg">
<path d="M8.2 12.7C3.6 12.7 0 7.9 0 1.8C0 0.7 0.8 0 2.1 0C3.4 0 4.2 0.8 4.2 1.9C4.2 5.5 6.1 8.7 8.2 8.7C10.3 8.7 12.2 5.5 12.2 1.9C12.2 0.8 13 0.1 14.3 0.1C15.6 0.1 16.4 0.8 16.4 1.9C16.4 8 12.8 12.7 8.2 12.7ZM2.1 1.3C1.7 1.3 1.3 1.4 1.3 1.9C1.3 7.3 4.3 11.5 8.2 11.5C12.1 11.5 15.1 7.3 15.1 1.9C15.1 1.4 14.7 1.4 14.3 1.4C13.9 1.4 13.5 1.4 13.5 1.9C13.5 6.3 11.1 9.9 8.2 9.9C5.3 9.9 2.9 6.3 2.9 1.9C2.9 1.4 2.5 1.3 2.1 1.3Z" fill="#192A33"/>
</svg>
