<svg width="17" height="17" viewBox="0 0 17 17" fill="none" xmlns="http://www.w3.org/2000/svg">
<path d="M13.3 0H3.7C1.7 0 0 1.7 0 3.7V13.3C0 15.3 1.7 17 3.7 17H13.3C15.4 17 17 15.3 17 13.3V3.7C17 1.7 15.3 0 13.3 0ZM15.9 13.3C15.9 14.8 14.7 16 13.2 16H3.7C2.2 16 1 14.8 1 13.3V3.7C1 2.2 2.2 1 3.7 1H13.3C14.8 1 16 2.2 16 3.7V13.3H15.9Z" fill="#192A33"/>
<path d="M5.90005 9.00001H4.50005C3.60005 9.00001 2.80005 8.20001 2.80005 7.30001V5.90001C2.80005 5.00001 3.60005 4.20001 4.50005 4.20001H5.90005C6.80005 4.20001 7.60005 5.00001 7.60005 5.90001V7.30001C7.60005 8.20001 6.90005 9.00001 5.90005 9.00001ZM4.50005 5.20001C4.10005 5.20001 3.80005 5.50001 3.80005 5.90001V7.30001C3.80005 7.70001 4.10005 8.00001 4.50005 8.00001H5.90005C6.30005 8.00001 6.60005 7.70001 6.60005 7.30001V5.90001C6.60005 5.50001 6.30005 5.20001 5.90005 5.20001H4.50005Z" fill="#192A33"/>
<path d="M14.4 4.90002H8.80005V6.00002H14.4V4.90002Z" fill="#192A33"/>
<path d="M12.7 6.90002H8.80005V8.00002H12.7V6.90002Z" fill="#192A33"/>
<path d="M14.3999 10.1H2.8999V11.2H14.4999V10.1H14.3999Z" fill="#192A33"/>
<path d="M11.9999 12.2H2.8999V13.3H11.9999V12.2Z" fill="#192A33"/>
</svg>
