<svg width="17" height="17" viewBox="0 0 17 17" fill="none" xmlns="http://www.w3.org/2000/svg">
<path d="M16.75 7.35L15.45 6.05L10.15 0.75C9.15 -0.25 7.65 -0.25 6.65 0.75L1.45 5.95L0.15 7.35C-0.05 7.55 -0.05 7.85 0.15 8.15C0.35 8.45 0.65 8.35 0.95 8.15L1.35 7.75V14.55C1.35 15.35 2.05 16.05 2.85 16.05H14.15C14.95 16.05 15.65 15.35 15.65 14.55V7.65L16.05 8.05C16.15 8.15 16.25 8.25 16.45 8.25C16.65 8.25 16.75 8.15 16.85 8.05C17.05 7.85 17.05 7.55 16.75 7.35ZM14.55 14.35C14.55 14.65 14.35 14.85 14.05 14.85H2.85C2.55 14.85 2.35 14.65 2.35 14.35V6.55L7.45 1.45C7.95 0.95 8.85 0.95 9.45 1.45L14.55 6.55V14.35Z" fill="#192A33"/>
<path d="M6.9501 6.35001V7.95001H5.3501C5.0501 7.95001 4.8501 8.15001 4.8501 8.45001V10.45C4.8501 10.75 5.0501 10.95 5.3501 10.95H6.9501V12.55C6.9501 12.85 7.1501 13.05 7.4501 13.05H9.4501C9.7501 13.05 9.9501 12.85 9.9501 12.55V10.95H11.5501C11.8501 10.95 12.0501 10.75 12.0501 10.45V8.45001C12.0501 8.15001 11.8501 7.95001 11.5501 7.95001H9.9501V6.35001C9.9501 6.05001 9.7501 5.85001 9.4501 5.85001H7.4501C7.1501 5.85001 6.9501 6.05001 6.9501 6.35001ZM7.9501 8.45001V6.85001H8.9501V8.45001C8.9501 8.75001 9.1501 8.95001 9.4501 8.95001H11.0501V9.95001H9.4501C9.1501 9.95001 8.9501 10.15 8.9501 10.45V12.05H7.9501V10.45C7.9501 10.15 7.7501 9.95001 7.4501 9.95001H5.8501V8.95001H7.4501C7.7501 8.95001 7.9501 8.65001 7.9501 8.45001Z" fill="#192A33"/>
</svg>
