<svg width="17" height="17" viewBox="0 0 17 17" fill="none" xmlns="http://www.w3.org/2000/svg">
<path d="M16.75 7.35L15.45 6.05L10.15 0.75C9.15 -0.25 7.65 -0.25 6.65 0.75L1.45 5.95L0.15 7.35C-0.05 7.55 -0.05 7.85 0.15 8.15C0.35 8.45 0.65 8.35 0.95 8.15L1.35 7.75V14.55C1.35 15.35 2.05 16.05 2.85 16.05H14.15C14.95 16.05 15.65 15.35 15.65 14.55V7.65L16.05 8.05C16.15 8.15 16.25 8.25 16.45 8.25C16.65 8.25 16.75 8.15 16.85 8.05C17.05 7.85 17.05 7.55 16.75 7.35ZM14.55 14.35C14.55 14.65 14.35 14.85 14.05 14.85H2.85C2.55 14.85 2.35 14.65 2.35 14.35V6.55L7.45 1.45C7.95 0.95 8.85 0.95 9.45 1.45L14.55 6.55V14.35Z" fill="#192A33"/>
<path d="M11.55 6.84999C11.15 6.34999 10.65 6.04999 10.15 6.04999C9.84997 6.04999 9.54997 6.14999 9.24997 6.24999C8.94997 6.34999 8.64997 6.44999 8.44997 6.44999C8.14997 6.44999 7.84997 6.34999 7.64997 6.24999C7.34997 6.14999 7.04997 6.04999 6.64997 6.04999C6.14997 6.04999 5.64997 6.34999 5.24997 6.84999C4.64997 7.74999 4.94997 8.64999 5.24997 9.34999C5.34997 9.64999 5.44997 9.94999 5.44997 10.05C5.44997 10.35 5.44997 11.25 5.64997 12.05C5.84997 12.85 6.24997 13.25 6.74997 13.25C7.54997 13.25 7.74997 12.45 7.94997 11.75C8.04997 11.25 8.24997 10.85 8.44997 10.85C8.54997 10.85 8.64997 10.95 8.84997 11.65C8.94997 12.25 9.24997 13.25 10.15 13.25C11.35 13.25 11.45 11.05 11.45 10.05C11.45 9.84999 11.55 9.64999 11.65 9.34999C11.85 8.64999 12.15 7.74999 11.55 6.84999ZM6.64997 7.04999C6.84997 7.04999 7.04997 7.14999 7.24997 7.24999C7.64997 7.24999 7.94997 7.44999 8.44997 7.44999C8.84997 7.44999 9.24997 7.34999 9.54997 7.24999C9.74997 7.14999 9.94997 7.14999 10.15 7.14999C10.25 7.14999 10.45 7.14999 10.75 7.54999C11.05 7.94999 10.85 8.54999 10.65 9.14999C10.55 9.54999 10.35 9.84999 10.35 10.15C10.35 10.75 10.25 11.45 10.15 11.85C10.05 12.15 10.05 12.25 9.94997 12.35C9.94997 12.35 9.94997 12.35 9.94997 12.25C9.84997 12.15 9.84997 11.95 9.74997 11.55C9.64997 11.25 9.54997 10.85 9.44997 10.55C9.24997 10.15 8.84997 9.94999 8.44997 9.94999C7.44997 9.94999 7.24997 10.95 7.04997 11.65C7.04997 11.75 6.94997 12.05 6.84997 12.25C6.84997 12.15 6.74997 12.05 6.74997 11.85C6.64997 11.35 6.54997 10.75 6.54997 10.15C6.54997 9.74999 6.44997 9.44999 6.24997 9.04999C6.04997 8.44999 5.84997 7.84999 6.14997 7.44999C6.44997 7.04999 6.54997 7.04999 6.64997 7.04999Z" fill="#192A33"/>
</svg>
