<svg width="17" height="16" viewBox="0 0 17 16" fill="none" xmlns="http://www.w3.org/2000/svg">
<path d="M16.85 7.3271L15.55 6.03115L10.25 0.747664C9.25 -0.249221 7.75 -0.249221 6.75 0.747664L1.45 6.03115L0.15 7.3271C-0.05 7.52648 -0.05 7.92523 0.15 8.12461C0.35 8.32399 0.65 8.32399 0.95 8.12461L1.35 7.72586V14.5047C1.35 15.3022 2.05 16 2.85 16H14.15C14.95 16 15.65 15.3022 15.65 14.5047V7.72586L16.05 8.12461C16.15 8.2243 16.25 8.32399 16.45 8.32399C16.65 8.32399 16.75 8.2243 16.85 8.12461C17.05 7.92523 17.05 7.52648 16.85 7.3271ZM6.85 14.9034V10.7165C6.85 10.4174 7.15 10.1184 7.45 10.1184H9.45C9.75 10.1184 10.05 10.4174 10.05 10.7165V14.9034H6.85ZM14.55 14.405C14.55 14.7041 14.35 14.9034 14.05 14.9034H11.05V10.7165C11.05 9.81931 10.35 9.02181 9.35 9.02181H7.35C6.45 9.02181 5.65 9.71963 5.65 10.7165V14.9034H2.65C2.35 14.9034 2.15 14.7041 2.15 14.405V6.62928L7.55 1.54517C8.05 1.04673 8.95 1.04673 9.55 1.54517L14.65 6.62928V14.405H14.55Z" fill="#192A33"/>
</svg>
