<svg width="17" height="17" viewBox="0 0 17 17" fill="none" xmlns="http://www.w3.org/2000/svg">
<g clip-path="url(#clip0)">
<path d="M4.1 13V14.3C4.1 15.8 5.3 17 6.8 17H14.4C15.9 17 17.1 15.8 17.1 14.3V2.7C17 1.2 15.8 0 14.3 0H6.7C5.3 0 4.1 1.2 4.1 2.7V4C4.1 4.4 4.4 4.7 4.8 4.7C5.2 4.7 5.4 4.4 5.4 4V2.7C5.4 2 6 1.4 6.7 1.4H14.3C15 1.4 15.6 2 15.6 2.7V14.4C15.6 15.1 15 15.7 14.3 15.7H6.7C6 15.7 5.4 15.1 5.4 14.4V13C5.4 12.6 5.1 12.3 4.7 12.3C4.3 12.3 4.1 12.6 4.1 13ZM10 7.4L8.5 5.9C8.2 5.6 7.8 5.6 7.6 5.9C7.3 6.2 7.3 6.6 7.6 6.8L8.7 7.9H0.7C0.3 7.9 0 8.2 0 8.5C0 8.9 0.3 9.2 0.7 9.2H8.7L7.6 10.3C7.3 10.6 7.3 11 7.6 11.2C7.7 11.3 7.9 11.4 8.1 11.4C8.3 11.4 8.4 11.3 8.6 11.2L10 9.7C10.7 9.1 10.7 8 10 7.4Z" fill="#192A33"/>
</g>
<defs>
<clipPath id="clip0">
<rect width="17" height="17" fill="white"/>
</clipPath>
</defs>
</svg>
