<svg xmlns="http://www.w3.org/2000/svg" width="18.793" height="18.63" viewBox="0 0 18.793 18.63">
  <g id="noun-date-744186_1_" data-name="noun-date-744186 (1)" transform="translate(-106.744 -31.759)">
    <path id="Path_2089" data-name="Path 2089" d="M179.682,107.9H178.03V106.85a.451.451,0,1,0-.9,0V107.9h-7.976V106.85a.451.451,0,0,0-.9,0V107.9H166.6a2.873,2.873,0,0,0-2.854,2.854v11.418a2.873,2.873,0,0,0,2.854,2.854h13.084a2.872,2.872,0,0,0,2.854-2.854V110.756a2.853,2.853,0,0,0-2.855-2.854Zm-13.084.9h1.653v2.254a.451.451,0,1,0,.9,0V108.8h7.976v2.254a.451.451,0,0,0,.9,0V108.8h1.652a1.949,1.949,0,0,1,1.953,1.953v3.125h-16.99v-3.125A1.949,1.949,0,0,1,166.6,108.8Zm13.084,15.324H166.6a1.949,1.949,0,0,1-1.953-1.953v-7.392h16.99v7.392a1.949,1.949,0,0,1-1.953,1.953Z" transform="translate(-57 -74.64)" fill="#192a33"/>
    <path id="Path_2090" data-name="Path 2090" d="M88.687,45.925,86.245,43.2a.439.439,0,1,1,.654-.587l1.764,1.965,3.65-4.367a.439.439,0,0,1,.674.563Z" transform="translate(26.53 1.811)" fill="#192a33"/>
  </g>
</svg>
