<svg xmlns="http://www.w3.org/2000/svg" width="18.741" height="18.63" viewBox="0 0 18.741 18.63">
  <g id="noun-date-744186_1_" data-name="noun-date-744186 (1)" transform="translate(-106.796 -31.759)">
    <path id="Path_2089" data-name="Path 2089" d="M179.682,107.9H178.03V106.85a.451.451,0,1,0-.9,0V107.9H169.2V106.85a.451.451,0,0,0-.9,0V107.9h-1.652a2.873,2.873,0,0,0-2.854,2.854v11.418a2.873,2.873,0,0,0,2.854,2.854h13.032a2.872,2.872,0,0,0,2.854-2.854V110.756a2.853,2.853,0,0,0-2.855-2.854Zm-13.032.9H168.3v2.254a.451.451,0,1,0,.9,0V108.8h7.924v2.254a.451.451,0,0,0,.9,0V108.8h1.652a1.949,1.949,0,0,1,1.953,1.953v1.9H164.7v-1.9a1.949,1.949,0,0,1,1.953-1.953Zm13.032,15.324H166.651a1.949,1.949,0,0,1-1.953-1.953v-8.617h16.938v8.617a1.949,1.949,0,0,1-1.953,1.953Z" transform="translate(-57 -74.64)" fill="#192a33"/>
    <g id="noun-dentist-4751688" transform="translate(-10.498 -8.356)">
      <path id="Path_2091" data-name="Path 2091" d="M305.114,100.516l-.032.277c-.149,1.281-.245,2.472.218,2.993a.74.74,0,0,0,.568.253c.675,0,.838-.772.981-1.45.128-.606.245-1.068.492-1.06s.381.475.512,1.08c.143.67.306,1.43.981,1.43a.74.74,0,0,0,.568-.253c.463-.518.367-1.712.218-2.993l-.032-.274a2.746,2.746,0,0,1,.236-1.162,2.464,2.464,0,0,0,.1-1.971c-.2-.408-.751-.99-2.3-.341a.746.746,0,0,1-.274.058.728.728,0,0,1-.28-.058c-1.552-.652-2.108-.067-2.3.341a2.464,2.464,0,0,0,.1,1.971,2.681,2.681,0,0,1,.239,1.159Zm.183-2.879c.245-.509,1.077-.253,1.552-.052a1.279,1.279,0,0,0,.5.1,1.293,1.293,0,0,0,.5-.1c.475-.2,1.307-.457,1.552.052a1.94,1.94,0,0,1-.131,1.528,3.21,3.21,0,0,0-.265,1.415l.032.28c.082.7.253,2.172-.073,2.539a.159.159,0,0,1-.131.058c-.207,0-.32-.536-.413-.967-.143-.675-.323-1.514-1.06-1.54h-.038c-.728,0-.9.844-1.048,1.523-.087.416-.207.987-.41.987a.155.155,0,0,1-.131-.058c-.326-.367-.157-1.834-.073-2.539l.032-.28a3.2,3.2,0,0,0-.265-1.415,1.94,1.94,0,0,1-.131-1.528Z" transform="translate(-180.685 -48.154)" fill="#192a33"/>
      <path id="Path_2091_-_Outline" data-name="Path 2091 - Outline" d="M308.834,104.164c-.778,0-.958-.847-1.1-1.528-.079-.364-.211-.975-.394-.981-.162,0-.3.649-.366.961-.145.69-.326,1.549-1.1,1.549a.864.864,0,0,1-.661-.295c-.5-.56-.407-1.731-.249-3.091l.032-.277a2.6,2.6,0,0,0-.233-1.1l0-.007a2.557,2.557,0,0,1-.1-2.061,1.243,1.243,0,0,1,1.2-.7,3.349,3.349,0,0,1,1.263.3.6.6,0,0,0,.231.048.624.624,0,0,0,.227-.049,3.359,3.359,0,0,1,1.261-.3,1.243,1.243,0,0,1,1.2.7,2.556,2.556,0,0,1-.1,2.06l0,.006a2.661,2.661,0,0,0-.23,1.107l.032.273c.152,1.311.247,2.535-.249,3.091A.864.864,0,0,1,308.834,104.164Zm-1.5-2.76h.011c.351.012.482.5.63,1.179.166.779.325,1.331.859,1.331a.613.613,0,0,0,.475-.212c.428-.479.333-1.643.187-2.9l-.032-.274a2.829,2.829,0,0,1,.242-1.217l0-.006a2.36,2.36,0,0,0,.108-1.87.993.993,0,0,0-.976-.561,3.12,3.12,0,0,0-1.166.281.868.868,0,0,1-.322.068.856.856,0,0,1-.328-.068,3.108,3.108,0,0,0-1.166-.283.993.993,0,0,0-.976.562,2.36,2.36,0,0,0,.108,1.87l0,.006a2.775,2.775,0,0,1,.245,1.213l-.032.277c-.145,1.251-.24,2.414.188,2.9a.612.612,0,0,0,.474.211c.533,0,.692-.56.859-1.351C306.847,101.994,306.971,101.4,307.334,101.4Zm-1.469,2.177a.278.278,0,0,1-.226-.1c-.324-.365-.234-1.537-.1-2.635l.032-.279a3.1,3.1,0,0,0-.259-1.359,2.057,2.057,0,0,1-.126-1.624.687.687,0,0,1,.685-.369,2.868,2.868,0,0,1,1.028.255,1.154,1.154,0,0,0,.449.092,1.175,1.175,0,0,0,.454-.095,2.87,2.87,0,0,1,1.029-.256.687.687,0,0,1,.685.369,2.053,2.053,0,0,1-.124,1.619l-.005.015a3.1,3.1,0,0,0-.255,1.35l.033.29c.133,1.152.213,2.267-.1,2.625a.284.284,0,0,1-.224.1c-.305,0-.416-.51-.533-1.051l0-.014c-.17-.8-.347-1.42-.942-1.442h-.033c-.575,0-.751.609-.922,1.406l0,.018C306.264,103.133,306.148,103.582,305.865,103.582Zm0-6.117a.454.454,0,0,0-.46.227,1.827,1.827,0,0,0,.137,1.433,3.293,3.293,0,0,1,.271,1.47l-.032.28c-.063.522-.253,2.11.042,2.441.012.013.014.016.038.016.111-.045.239-.656.288-.885l0-.021c.145-.677.344-1.6,1.167-1.6h.038c.842.03,1.039.96,1.182,1.639l0,.014c.049.224.177.82.29.854.019,0,.021,0,.038-.018.285-.321.108-1.852.042-2.428l-.033-.291a3.285,3.285,0,0,1,.267-1.46l.005-.015a1.822,1.822,0,0,0,.134-1.429.454.454,0,0,0-.459-.227,2.628,2.628,0,0,0-.931.235,1.39,1.39,0,0,1-1.1,0A2.627,2.627,0,0,0,305.869,97.464Z" transform="translate(-180.685 -48.154)" fill="#192a33"/>
    </g>
  </g>
</svg>
