<svg xmlns="http://www.w3.org/2000/svg" width="18.004" height="19.542" viewBox="0 0 18.004 19.542">
  <g id="noun-gift-5079569" transform="translate(-99.208 -7.457)">
    <path id="Path_2092" data-name="Path 2092" d="M115.741,13.1h-2.967a3.043,3.043,0,1,0-4.555-3.757,3.044,3.044,0,1,0-4.555,3.759h-2.971a1.338,1.338,0,0,0-1.336,1.336v2.069a1.337,1.337,0,0,0,1.217,1.329v7.659a1.372,1.372,0,0,0,1.371,1.371h12.543a1.372,1.372,0,0,0,1.371-1.371V17.835a1.339,1.339,0,0,0,1.219-1.329V14.435a1.339,1.339,0,0,0-1.338-1.336Zm-4.778-4.89a2.446,2.446,0,0,1,0,4.892h-2.444V10.653a2.445,2.445,0,0,1,2.444-2.444Zm-7.938,2.444a2.446,2.446,0,0,1,4.892,0V13.1h-2.446A2.45,2.45,0,0,1,103.025,10.653Zm-3.067,5.853V14.435a.734.734,0,0,1,.733-.733h5.447v3.538h-5.444a.735.735,0,0,1-.736-.733Zm6.182,9.755h-4.194a.77.77,0,0,1-.769-.769V17.841h4.963Zm3.552,0h-2.95V13.7h2.95Zm5.565-.767a.77.77,0,0,1-.769.769h-4.194V17.841h4.963Zm1.219-8.989a.734.734,0,0,1-.733.733h-5.449V13.7h5.446a.734.734,0,0,1,.733.733v2.071Z" transform="translate(-0.008 -0.008)" fill="#192a33"/>
    <path id="Path_2092_-_Outline" data-name="Path 2092 - Outline" d="M105.465,7.457a3.207,3.207,0,0,1,2.746,1.576,3.184,3.184,0,1,1,4.942,3.916h2.58a1.483,1.483,0,0,1,1.479,1.477V16.5a1.489,1.489,0,0,1-1.219,1.453v7.535A1.515,1.515,0,0,1,114.481,27H101.938a1.515,1.515,0,0,1-1.513-1.513V17.951A1.488,1.488,0,0,1,99.208,16.5V14.429a1.479,1.479,0,0,1,1.477-1.477h2.582a3.151,3.151,0,0,1-.99-2.3A3.193,3.193,0,0,1,105.465,7.457Zm2.746,2.205-.128-.267a2.9,2.9,0,0,0-5.522,1.251,2.88,2.88,0,0,0,1.18,2.332l.345.256h-3.4a1.2,1.2,0,0,0-1.194,1.194V16.5a1.2,1.2,0,0,0,1.088,1.188l.129.011v7.789a1.231,1.231,0,0,0,1.229,1.229h12.543a1.231,1.231,0,0,0,1.229-1.229V17.7l.129-.011a1.2,1.2,0,0,0,1.09-1.188V14.426a1.2,1.2,0,0,0-1.178-1.194h-3.414l.344-.256a2.9,2.9,0,0,0-1.724-5.237A2.922,2.922,0,0,0,108.339,9.4Zm-2.749-1.605a2.591,2.591,0,0,1,2.588,2.588v2.588h-2.588a2.588,2.588,0,1,1,0-5.176Zm2.3,4.892v-2.3a2.3,2.3,0,1,0-2.3,2.3Zm3.188-4.89a2.588,2.588,0,0,1,0,5.176h-2.586v-2.59a2.587,2.587,0,0,1,2.586-2.586Zm0,4.892a2.3,2.3,0,1,0-1.63-3.932,2.281,2.281,0,0,0-.672,1.625v2.307Zm-4.363.6h3.234V26.395h-3.234Zm2.95.284h-2.667V26.111h2.667Zm-8.859-.283h5.588v3.821h-5.586a.877.877,0,0,1-.877-.875h0V14.426A.876.876,0,0,1,100.683,13.551Zm5.3.284h-5.3a.592.592,0,0,0-.592.592V16.5a.593.593,0,0,0,.594.592h5.3Zm4.156-.284h5.588a.876.876,0,0,1,.875.875v1.919h0V16.5a.876.876,0,0,1-.875.875h-5.59Zm6.181,2.989V14.427a.592.592,0,0,0-.592-.592h-5.3v3.254h5.307A.592.592,0,0,0,116.325,16.54Zm-6.18,1.151h5.247v7.8a.912.912,0,0,1-.911.911h-4.336Zm4.963.284h-4.679v8.138h4.052a.628.628,0,0,0,.627-.627Zm-14.081-.284h5.247v8.7h-4.336a.912.912,0,0,1-.911-.911Zm4.963.284H101.31v7.509a.628.628,0,0,0,.627.627h4.052Z" fill="#192a33"/>
  </g>
</svg>
