<svg xmlns="http://www.w3.org/2000/svg" xmlns:xlink="http://www.w3.org/1999/xlink" width="902" height="610" viewBox="0 0 902 610">
  <defs>
    <filter id="Rectangle_1863" x="47" y="40" width="855" height="568" filterUnits="userSpaceOnUse">
      <feOffset dx="-3" dy="3" input="SourceAlpha"/>
      <feGaussianBlur stdDeviation="12" result="blur"/>
      <feFlood flood-opacity="0.122"/>
      <feComposite operator="in" in2="blur"/>
      <feComposite in="SourceGraphic"/>
    </filter>
  </defs>
  <g id="Group_1863" data-name="Group 1863" transform="translate(-911 -307)">
    <circle id="Ellipse_239" data-name="Ellipse 239" cx="49.5" cy="49.5" r="49.5" transform="translate(1580 307)" fill="#d8b0ff" opacity="0.4"/>
    <circle id="Ellipse_241" data-name="Ellipse 241" cx="49.5" cy="49.5" r="49.5" transform="translate(911 572)" fill="#d8b0ff" opacity="0.4"/>
    <circle id="Ellipse_242" data-name="Ellipse 242" cx="11.5" cy="11.5" r="11.5" transform="translate(1022 314)" fill="#d8b0ff" opacity="0.4"/>
    <circle id="Ellipse_240" data-name="Ellipse 240" cx="26.5" cy="26.5" r="26.5" transform="translate(1294 864)" fill="#d8b0ff" opacity="0.4"/>
    <g id="Group_1861" data-name="Group 1861" transform="translate(-38.117 -39.951)">
      <g transform="matrix(1, 0, 0, 1, 949.12, 346.95)" filter="url(#Rectangle_1863)">
        <g id="Rectangle_1863-2" data-name="Rectangle 1863" transform="translate(86 73)" fill="#f3e9e6" stroke="#e0cdb3" stroke-width="2">
          <rect width="783" height="496" rx="8" stroke="none"/>
          <rect x="1" y="1" width="781" height="494" rx="7" fill="none"/>
        </g>
      </g>
      <g id="Rectangle_1864" data-name="Rectangle 1864" transform="translate(1035.117 419.951)" fill="#e0cdb3" stroke="#e0cdb3" stroke-width="2">
        <path d="M8,0H775a8,8,0,0,1,8,8V28a0,0,0,0,1,0,0H0a0,0,0,0,1,0,0V8A8,8,0,0,1,8,0Z" stroke="none"/>
        <path d="M8,1H775a7,7,0,0,1,7,7V26a1,1,0,0,1-1,1H2a1,1,0,0,1-1-1V8A7,7,0,0,1,8,1Z" fill="none"/>
      </g>
      <circle id="Ellipse_236" data-name="Ellipse 236" cx="5" cy="5" r="5" transform="translate(1055.117 428.951)" fill="#d12b2b"/>
      <circle id="Ellipse_237" data-name="Ellipse 237" cx="5" cy="5" r="5" transform="translate(1073.117 428.951)" fill="#ef0"/>
      <circle id="Ellipse_238" data-name="Ellipse 238" cx="5" cy="5" r="5" transform="translate(1091.117 428.951)" fill="#21a000"/>
    </g>
    <text id="_404" data-name="404" transform="translate(1114 743)" fill="#e0cdb3" font-size="300" font-family="BuenosAires-SemiBold, Buenos Aires" font-weight="600"><tspan x="0" y="0">404</tspan></text>
    <line id="Line_458" data-name="Line 458" x2="732" transform="translate(926 841)" fill="none" stroke="#d8b0ff" stroke-width="2" opacity="0.4"/>
    <text id="ERROR" transform="translate(1670 842)" fill="#d8b0ff" font-size="24" font-family="BuenosAires-SemiBold, Buenos Aires" font-weight="600" opacity="0.4"><tspan x="0" y="0">ERROR</tspan></text>
  </g>
</svg>
