<svg xmlns="http://www.w3.org/2000/svg" width="100" height="100" viewBox="0 0 100 100">
  <g id="Group_1531" data-name="Group 1531" transform="translate(22403 -2201)">
    <g id="Aligners" transform="translate(-22403 2201)">
      <g id="Group_1302" data-name="Group 1302" transform="translate(0 0)">
        <circle id="Ellipse_128" data-name="Ellipse 128" cx="50" cy="50" r="50" fill="#3b0c77"/>
        <g id="Group_1301" data-name="Group 1301" transform="translate(12.357 16.192)">
          <g id="Group_1274" data-name="Group 1274" transform="translate(0 14.634)">
            <path id="Path_2027" data-name="Path 2027" d="M293.135,457.474a3.671,3.671,0,0,1-1.477,1.2,5.538,5.538,0,0,1-5.365-.275c-2.495-1.586-2.671-4.563-2.636-5.727a1.109,1.109,0,0,0-.323-.816c-.917-.92-3.209-3.666-1.957-7.093a1.161,1.161,0,0,0-.182-1.128c-1.03-1.278-3.363-4.732-1.536-7.929a.976.976,0,0,0-.027-1.018c-.883-1.354-2.98-4.875.436-8.262a1.394,1.394,0,0,0,.326-1.473c-.633-1.719-1.477-5.59,2.887-7.276a1.1,1.1,0,0,0,.7-1.01c.039-1.807.766-6.164,6.917-5.739a1.08,1.08,0,0,0,.962-.46c.946-1.359,3.916-4.719,8.62-1.814a1.427,1.427,0,0,0,1.334.1c1.747-.779,6.412-2.254,8.679,2.864a.87.87,0,0,0,.887.512c1.384-.153,4.68-.02,6.266,4.286a1.236,1.236,0,0,0,1.066.8c1.413.111,4.719.777,5.333,5.424a1.159,1.159,0,0,0,1.043,1c1.618.144,4.71,1,4.589,5.4a1.145,1.145,0,0,0,.649,1.067c1.682.8,5.646,3.349,3.405,8.815-2.8,6.837-10.11.186-11.08-1.387,0,0-15.329-26.508-28.328-17.611,0,0-10.191,5.44-.679,30.3C293.645,450.228,295.354,454.375,293.135,457.474Z" transform="translate(-278.182 -407.509)" fill="#fff"/>
            <g id="Group_1273" data-name="Group 1273" transform="translate(1.645 1.733)">
              <g id="Group_1250" data-name="Group 1250" transform="translate(5.278 43.017)">
                <g id="Group_1249" data-name="Group 1249">
                  <path id="Path_2028" data-name="Path 2028" d="M330.14,722.891c-.033-.01-.068-.022-.1-.035l-.117-.045-.066-.026c-.1-.04.065.03-.019-.007a6.979,6.979,0,0,1-.881-.47,4.49,4.49,0,0,1-1.775-2.065,4.368,4.368,0,0,1-.241-2.083.363.363,0,0,0-.361-.361.368.368,0,0,0-.361.361,4.842,4.842,0,0,0,1.073,3.643,5.86,5.86,0,0,0,2.091,1.556,4.657,4.657,0,0,0,.565.225c.444.137.635-.558.192-.694Z" transform="translate(-326.19 -717.8)" fill="#af75ff"/>
                </g>
              </g>
              <g id="Group_1252" data-name="Group 1252" transform="translate(2.853 35.541)">
                <g id="Group_1251" data-name="Group 1251">
                  <path id="Path_2029" data-name="Path 2029" d="M311.636,671.237c-.082-.072-.157-.153-.232-.232s-.167-.186-.245-.283c-.022-.026-.042-.052-.062-.078-.033-.042.035.046,0,0l-.027-.036c-.052-.069-.1-.14-.151-.211a4.4,4.4,0,0,1-.831-2.22,3.674,3.674,0,0,1,.3-1.68.372.372,0,0,0-.13-.493.362.362,0,0,0-.493.13,4.451,4.451,0,0,0-.17,3.233,6,6,0,0,0,1.2,2.041,4.275,4.275,0,0,0,.327.339c.346.3.858-.2.511-.512Z" transform="translate(-309.369 -665.96)" fill="#af75ff"/>
                </g>
              </g>
              <g id="Group_1254" data-name="Group 1254" transform="translate(0.634 27.161)">
                <g id="Group_1253" data-name="Group 1253">
                  <path id="Path_2030" data-name="Path 2030" d="M296.278,613.355c-.081-.081-.156-.167-.228-.255-.038-.045-.074-.089-.11-.136l-.025-.03c-.032-.039.039.05.007.01s-.046-.061-.068-.091c-.1-.136-.2-.275-.286-.418a5.277,5.277,0,0,1-.857-2.357,4.233,4.233,0,0,1,.228-1.762.361.361,0,1,0-.7-.192,5.683,5.683,0,0,0,1.216,5.39,4.18,4.18,0,0,0,.307.35.361.361,0,0,0,.511-.509Z" transform="translate(-293.984 -607.859)" fill="#af75ff"/>
                </g>
              </g>
              <g id="Group_1256" data-name="Group 1256" transform="translate(0 17.969)">
                <g id="Group_1255" data-name="Group 1255">
                  <path id="Path_2031" data-name="Path 2031" d="M291.049,550.354c-.065-.115-.121-.237-.176-.356-.014-.03-.027-.062-.04-.092-.036-.081.023.059-.012-.027s-.065-.163-.1-.245c-.063-.172-.121-.346-.173-.522a4.9,4.9,0,0,1-.079-2.752,3.727,3.727,0,0,1,1.01-1.627c.335-.323-.176-.832-.511-.51a4.541,4.541,0,0,0-1.382,3.311,6.9,6.9,0,0,0,.594,2.68,5.024,5.024,0,0,0,.241.5.361.361,0,0,0,.624-.362Z" transform="translate(-289.59 -544.119)" fill="#af75ff"/>
                </g>
              </g>
              <g id="Group_1258" data-name="Group 1258" transform="translate(1.539 9.256)">
                <g id="Group_1257" data-name="Group 1257">
                  <path id="Path_2032" data-name="Path 2032" d="M301.308,489.923a3.882,3.882,0,0,1-.137-.434c-.043-.16-.078-.323-.108-.486-.009-.046-.016-.091-.023-.137,0-.026-.022-.159-.007-.048q-.022-.167-.035-.333a5.212,5.212,0,0,1-.006-.7c0-.059.009-.118.014-.177,0-.03.006-.061.01-.089.012-.1-.012.076,0-.025.02-.133.045-.265.076-.4a3.393,3.393,0,0,1,.237-.681,3.625,3.625,0,0,1,.44-.7,4.482,4.482,0,0,1,1.971-1.3.372.372,0,0,0,.252-.444.365.365,0,0,0-.444-.252,4.711,4.711,0,0,0-3.07,2.884,5.467,5.467,0,0,0-.046,2.923,4.1,4.1,0,0,0,.174.583.374.374,0,0,0,.444.252.363.363,0,0,0,.254-.444Z" transform="translate(-300.26 -483.708)" fill="#af75ff"/>
                </g>
              </g>
              <g id="Group_1260" data-name="Group 1260" transform="translate(5.571 3.052)">
                <g id="Group_1259" data-name="Group 1259">
                  <path id="Path_2033" data-name="Path 2033" d="M328.96,446.014a3.5,3.5,0,0,1-.016-.476c0-.17.014-.342.033-.511l.009-.069c.009-.087-.012.068,0,0l.026-.167q.028-.16.065-.32a5.263,5.263,0,0,1,.219-.691c.023-.061,0,0-.007.014.007-.016.013-.032.02-.048s.025-.056.038-.084c.029-.061.058-.12.088-.179.063-.121.134-.239.209-.355.036-.055.075-.108.114-.162l.035-.046s-.038.048-.012.016l.074-.089a3.892,3.892,0,0,1,.31-.326c.053-.049.108-.1.163-.144.029-.023.058-.048.087-.069-.053.042.055-.039.069-.05a3.851,3.851,0,0,1,.415-.26,5.85,5.85,0,0,1,2.7-.593.361.361,0,0,0,0-.721,5.416,5.416,0,0,0-4.384,1.813,5.082,5.082,0,0,0-.989,2.88,3.869,3.869,0,0,0,.012.633.371.371,0,0,0,.361.361.365.365,0,0,0,.362-.362Z" transform="translate(-328.219 -440.69)" fill="#af75ff"/>
                </g>
              </g>
              <g id="Group_1262" data-name="Group 1262" transform="translate(12.666)">
                <g id="Group_1261" data-name="Group 1261">
                  <path id="Path_2034" data-name="Path 2034" d="M378.09,422.54c.038-.05-.072.091-.03.039.025-.029.048-.061.072-.089q.128-.154.264-.3c.137-.146.278-.287.425-.421.078-.072.159-.143.239-.211q.071-.061.143-.117l.075-.059c.033-.026.033-.026,0,0l.052-.039a6.255,6.255,0,0,1,1.444-.815,4.11,4.11,0,0,1,1.852-.27,4.944,4.944,0,0,1,2.419.989.363.363,0,0,0,.493-.13.368.368,0,0,0-.13-.493,5.582,5.582,0,0,0-2.4-1.043,4.826,4.826,0,0,0-2.169.163,6.939,6.939,0,0,0-2.857,1.836,6.156,6.156,0,0,0-.516.6.362.362,0,0,0,.13.493.371.371,0,0,0,.495-.13Z" transform="translate(-377.412 -419.525)" fill="#af75ff"/>
                </g>
              </g>
              <g id="Group_1264" data-name="Group 1264" transform="translate(22.324 0.46)">
                <g id="Group_1263" data-name="Group 1263">
                  <path id="Path_2035" data-name="Path 2035" d="M444.918,424.036c.038-.022.075-.04.114-.059l.128-.062.081-.038c.019-.009.128-.055.065-.029s.042-.017.059-.023l.111-.043c.089-.033.18-.065.271-.1a5.42,5.42,0,0,1,.619-.163c.1-.02.2-.039.306-.053s-.079.009.02,0l.088-.01c.069-.007.14-.013.209-.017a4.291,4.291,0,0,1,.782.023c-.078-.01.078.013.1.016q.1.017.195.039a3.96,3.96,0,0,1,.424.124,2.276,2.276,0,0,1,.336.147,3.569,3.569,0,0,1,.415.251,4.866,4.866,0,0,1,1.493,1.941.361.361,0,0,0,.623-.363,4.7,4.7,0,0,0-3.228-2.824,5.307,5.307,0,0,0-2.933.327,4.956,4.956,0,0,0-.636.291.36.36,0,0,0,.361.623Z" transform="translate(-444.381 -422.712)" fill="#af75ff"/>
                </g>
              </g>
              <g id="Group_1266" data-name="Group 1266" transform="translate(30.344 4.326)">
                <g id="Group_1265" data-name="Group 1265">
                  <path id="Path_2036" data-name="Path 2036" d="M506.375,453.565a6.3,6.3,0,0,0-.751-1.624,4.719,4.719,0,0,0-5.378-2.27c-.453.1-.261.8.192.7a4.925,4.925,0,0,1,1.126-.128,3.437,3.437,0,0,1,.935.117,3.888,3.888,0,0,1,.456.146c.091.036.055.02.143.061.069.032.137.065.2.1a3.879,3.879,0,0,1,.365.219c.061.04.118.082.177.125s-.02-.017.032.025l.089.072a5.013,5.013,0,0,1,.564.557c.043.05.085.1.127.151l.056.071c-.042-.055.01.014.025.033.072.1.14.195.206.294a6.415,6.415,0,0,1,.337.577c.045.085.087.172.127.258.017.039.036.076.053.115.009.019.016.038.025.055l.012.027c-.026-.062.007.017.013.033s.016.037.023.056c.013.035.027.069.04.1q.032.084.061.169c.017.05.035.1.049.153a.36.36,0,0,0,.694-.192Z" transform="translate(-499.987 -449.52)" fill="#af75ff"/>
                </g>
              </g>
              <g id="Group_1268" data-name="Group 1268" transform="translate(37.054 9.243)">
                <g id="Group_1267" data-name="Group 1267">
                  <path id="Path_2037" data-name="Path 2037" d="M546.861,484.335l.124.012.063.007c.1.012-.046-.007,0,0l.2.03a6.884,6.884,0,0,1,1.135.3q.175.063.346.134c-.066-.027.006,0,.032.014s.053.023.079.036c.063.029.125.059.188.089a5.873,5.873,0,0,1,.731.428c.059.04.117.082.174.125.014.01.078.059.033.025.036.027.071.056.105.085.12.1.237.2.348.313a4.575,4.575,0,0,1,.591.7,5.5,5.5,0,0,1,.885,2.4.372.372,0,0,0,.361.361c.174,0,.387-.166.361-.361a5.974,5.974,0,0,0-2.2-4.063,6.784,6.784,0,0,0-2.848-1.263,5.234,5.234,0,0,0-.7-.1c-.46-.027-.459.694,0,.72Z" transform="translate(-546.514 -483.615)" fill="#af75ff"/>
                </g>
              </g>
              <g id="Group_1270" data-name="Group 1270" transform="translate(43.835 15.599)">
                <g id="Group_1269" data-name="Group 1269">
                  <path id="Path_2038" data-name="Path 2038" d="M593.885,528.409c.035,0,.071,0,.105.006s.082.007.124.012l.063.007c.118.013-.059-.01.019,0a5.353,5.353,0,0,1,.926.228q.069.024.138.052l.071.027c.082.033-.074-.033.009,0s.192.088.286.138.185.1.274.16q.065.041.13.087l.071.05c.079.056,0,0,.043.032a3.737,3.737,0,0,1,.521.513c.013.016.027.033.04.05-.048-.062.017.025.022.03.037.053.076.108.112.164a3.387,3.387,0,0,1,.2.361,2.923,2.923,0,0,1,.169.431,4.194,4.194,0,0,1,.127.51,5.517,5.517,0,0,1,.065,1.223c-.022.464.7.463.721,0a4.534,4.534,0,0,0-1.31-3.659,4.616,4.616,0,0,0-2.325-1.083,4.007,4.007,0,0,0-.6-.066.36.36,0,0,0,0,.72Z" transform="translate(-593.537 -527.689)" fill="#af75ff"/>
                </g>
              </g>
              <g id="Group_1272" data-name="Group 1272" transform="translate(49.291 22.576)">
                <g id="Group_1271" data-name="Group 1271">
                  <path id="Path_2039" data-name="Path 2039" d="M631.635,576.77a.154.154,0,0,1,.027.012c.084.033-.1-.046,0,0s.189.089.281.138a4.625,4.625,0,0,1,.4.241c.079.053.156.108.231.166h0l.055.045.121.1a4.643,4.643,0,0,1,.473.48c.022.025.042.05.062.076s.052.066.014.017c.037.05.075.1.111.153.072.1.138.211.2.32a3.816,3.816,0,0,1,.183.369c-.025-.056.006.016.013.035s.024.062.035.094c.027.075.052.15.075.225a3.534,3.534,0,0,1,.154.864,6.2,6.2,0,0,1-.5,2.658.363.363,0,0,0,.252.444.369.369,0,0,0,.444-.252,5.7,5.7,0,0,0,.085-4.576,4.785,4.785,0,0,0-1.934-2.021,3.85,3.85,0,0,0-.587-.281.364.364,0,0,0-.444.252.371.371,0,0,0,.255.44Z" transform="translate(-631.368 -576.061)" fill="#af75ff"/>
                </g>
              </g>
            </g>
          </g>
          <g id="Group_1300" data-name="Group 1300" transform="translate(25.217)">
            <path id="Path_2040" data-name="Path 2040" d="M461.971,347.784a3.661,3.661,0,0,1-1.9.183,5.538,5.538,0,0,1-4.314-3.2c-1.2-2.7.3-5.278.976-6.229a1.112,1.112,0,0,0,.183-.858c-.254-1.273-.642-4.83,2.3-6.989a1.159,1.159,0,0,0,.473-1.04c-.149-1.634-.179-5.8,3.112-7.452a.976.976,0,0,0,.541-.862c.016-1.617.219-5.71,4.94-6.638a1.389,1.389,0,0,0,1.086-1.046c.425-1.783,1.866-5.473,6.434-4.459a1.1,1.1,0,0,0,1.144-.451c1.034-1.483,4.053-4.707,8.937-.946a1.079,1.079,0,0,0,1.056.15c1.54-.607,5.874-1.759,8.182,3.264a1.43,1.43,0,0,0,1.057.821c1.886.32,6.587,1.674,5.64,7.192a.868.868,0,0,0,.454.917c1.237.639,3.907,2.576,2.843,7.039a1.237,1.237,0,0,0,.444,1.258c1.115.877,3.5,3.261,1.435,7.471a1.156,1.156,0,0,0,.316,1.409c1.268,1.017,3.37,3.44.828,7.041a1.145,1.145,0,0,0-.05,1.247c.956,1.6,2.847,5.916-2.047,9.224-6.122,4.141-8.521-5.444-8.457-7.292,0,0,1.921-30.562-13.831-30.353,0,0-11.5-1.116-17.347,24.849C466.41,342.034,465.536,346.433,461.971,347.784Z" transform="translate(-455.311 -306.038)" fill="#fff"/>
            <g id="Group_1299" data-name="Group 1299" transform="translate(1.531 1.691)">
              <g id="Group_1276" data-name="Group 1276" transform="translate(0 31.423)">
                <g id="Group_1275" data-name="Group 1275">
                  <path id="Path_2041" data-name="Path 2041" d="M467.711,541.895l-.016-.02c.062.076.042.056,0,0-.058-.079-.112-.159-.166-.239a6.15,6.15,0,0,1-.467-.862c-.032-.071-.05-.115-.088-.216s-.079-.218-.114-.327a5.234,5.234,0,0,1-.163-.679,4,4,0,0,1,.026-1.452,4.289,4.289,0,0,1,.913-1.84.371.371,0,0,0,0-.51.364.364,0,0,0-.511,0,4.849,4.849,0,0,0-1.175,3.626,6.044,6.044,0,0,0,.89,2.524,4.8,4.8,0,0,0,.358.508.363.363,0,0,0,.511,0,.37.37,0,0,0,0-.512Z" transform="translate(-465.927 -535.645)" fill="#af75ff"/>
                </g>
              </g>
              <g id="Group_1278" data-name="Group 1278" transform="translate(1.57 24.016)">
                <g id="Group_1277" data-name="Group 1277">
                  <path id="Path_2042" data-name="Path 2042" d="M477.656,489.591c-.029-.108-.048-.221-.066-.33,0-.026-.007-.052-.012-.078-.014-.091,0,.043,0-.01s-.016-.136-.022-.2c-.014-.16-.023-.322-.026-.482a4.336,4.336,0,0,1,.562-2.316,3.662,3.662,0,0,1,1.18-1.2c.389-.249.027-.874-.363-.623a4.442,4.442,0,0,0-1.917,2.616,5.982,5.982,0,0,0-.114,2.362,3.79,3.79,0,0,0,.085.46.36.36,0,0,0,.694-.192Z" transform="translate(-476.811 -484.285)" fill="#af75ff"/>
                </g>
              </g>
              <g id="Group_1280" data-name="Group 1280" transform="translate(4.311 15.765)">
                <g id="Group_1279" data-name="Group 1279">
                  <path id="Path_2043" data-name="Path 2043" d="M496.616,432.621c-.006-.03-.012-.061-.016-.091s-.01-.066-.014-.1c.022.131,0-.019-.007-.066a6.876,6.876,0,0,1-.037-.88,5.265,5.265,0,0,1,.588-2.423,4.06,4.06,0,0,1,1.116-1.312.371.371,0,0,0,.13-.493.363.363,0,0,0-.493-.13,5.038,5.038,0,0,0-1.846,2.766,6.888,6.888,0,0,0-.187,2.38,5.233,5.233,0,0,0,.074.541.36.36,0,1,0,.694-.19Z" transform="translate(-495.818 -427.072)" fill="#af75ff"/>
                </g>
              </g>
              <g id="Group_1282" data-name="Group 1282" transform="translate(7.855 8.337)">
                <g id="Group_1281" data-name="Group 1281">
                  <path id="Path_2044" data-name="Path 2044" d="M521.115,380.7c0-.038.007-.074.012-.111,0-.017,0-.036.006-.053.01-.091-.009.055,0,.019.01-.058.017-.117.027-.174a7.383,7.383,0,0,1,.239-.994c.033-.1.068-.206.105-.309.017-.049.036-.1.055-.144.007-.02.016-.039.023-.058l.025-.059c-.016.038-.016.036,0,0a6.037,6.037,0,0,1,.316-.624,4.051,4.051,0,0,1,.953-1.139,2.912,2.912,0,0,1,.33-.238,3.493,3.493,0,0,1,.42-.232,4.119,4.119,0,0,1,.991-.3.365.365,0,0,0,.252-.444.369.369,0,0,0-.444-.252,4.532,4.532,0,0,0-2.977,2.01,6.764,6.764,0,0,0-.965,2.486,5.678,5.678,0,0,0-.086.623.36.36,0,0,0,.72,0Z" transform="translate(-520.394 -375.568)" fill="#af75ff"/>
                </g>
              </g>
              <g id="Group_1284" data-name="Group 1284" transform="translate(13.651 2.725)">
                <g id="Group_1283" data-name="Group 1283">
                  <path id="Path_2045" data-name="Path 2045" d="M561.284,340.757a4.081,4.081,0,0,1,.124-.431c.025-.072.05-.146.078-.216l.043-.111c.007-.019.016-.038.023-.058,0,0-.029.065,0,0,.085-.189.174-.375.277-.555a5.855,5.855,0,0,1,.378-.578c.05-.068-.017.02.022-.029.019-.022.036-.045.055-.068.04-.049.082-.1.124-.144q.13-.145.273-.277c.045-.042.091-.082.137-.121.023-.02.048-.039.072-.059.062-.052-.016.009.05-.039.108-.078.218-.153.333-.221a2.8,2.8,0,0,1,.754-.326,3.372,3.372,0,0,1,1.03-.144,5.257,5.257,0,0,1,1.315.17c.45.111.643-.584.192-.7a5.47,5.47,0,0,0-2.445-.1,4.112,4.112,0,0,0-1.715.824,5.448,5.448,0,0,0-1.638,2.4,4.315,4.315,0,0,0-.18.587c-.1.453.6.646.7.192Z" transform="translate(-560.578 -336.658)" fill="#af75ff"/>
                </g>
              </g>
              <g id="Group_1286" data-name="Group 1286" transform="translate(20.727)">
                <g id="Group_1285" data-name="Group 1285">
                  <path id="Path_2046" data-name="Path 2046" d="M610.311,320.742a3.505,3.505,0,0,1,.245-.4c.046-.066.094-.131.141-.2.03-.04.023-.029-.006.007l.039-.05c.03-.038.061-.075.092-.112a5.318,5.318,0,0,1,.438-.463c.088-.082.179-.162.271-.237l.068-.053c-.05.039,0,0,.02-.014.052-.037.1-.075.157-.111.11-.074.222-.143.339-.206.055-.03.111-.059.167-.087l.087-.04c.019-.009.107-.048.046-.022a3.828,3.828,0,0,1,.845-.242l.046-.007.108-.012c.081-.007.16-.013.241-.016a3.979,3.979,0,0,1,.508.014,5.922,5.922,0,0,1,2.569,1.012c.389.254.751-.371.363-.623a5.408,5.408,0,0,0-4.627-.914,5.117,5.117,0,0,0-2.436,1.868,3.982,3.982,0,0,0-.346.539c-.209.412.412.777.623.363Z" transform="translate(-609.646 -317.761)" fill="#af75ff"/>
                </g>
              </g>
              <g id="Group_1288" data-name="Group 1288" transform="translate(29.684 1.385)">
                <g id="Group_1287" data-name="Group 1287">
                  <path id="Path_2047" data-name="Path 2047" d="M672.211,328.431a4.787,4.787,0,0,1,.51-.144c.19-.046.382-.084.575-.115l.154-.023c.092-.014-.052.006.016,0l.1-.012c.124-.014.25-.025.375-.033a7.006,7.006,0,0,1,.835,0c.066,0,.134.009.2.016l.108.012.092.012.078.012.111.019c.075.013.148.029.222.045a4.646,4.646,0,0,1,.462.127,4,4,0,0,1,.388.147,4.4,4.4,0,0,1,.433.226q.108.065.212.134l.089.062c.012.009.11.081.074.053a4.757,4.757,0,0,1,1.51,2.158.372.372,0,0,0,.444.252.364.364,0,0,0,.252-.444,5.741,5.741,0,0,0-1.438-2.256,4.839,4.839,0,0,0-1.9-1.07,6.942,6.942,0,0,0-3.405-.053,5.772,5.772,0,0,0-.692.186.361.361,0,1,0,.193.7Z" transform="translate(-671.753 -327.365)" fill="#af75ff"/>
                </g>
              </g>
              <g id="Group_1290" data-name="Group 1290" transform="translate(38.475 5.954)">
                <g id="Group_1289" data-name="Group 1289">
                  <path id="Path_2048" data-name="Path 2048" d="M733.069,359.767c.042,0,.082.009.124.013.1.01-.023,0-.023,0s.074.01.081.012c.066.01.131.022.2.035a6,6,0,0,1,1.082.314c.027.01.053.022.081.033-.055-.023-.032-.013.006,0,.059.026.117.053.174.081.108.052.213.108.317.167s.212.128.314.2c.05.035.1.071.149.108-.066-.05.013.01.029.023l.088.074a3.689,3.689,0,0,1,.287.274c.045.048.088.1.131.146.023.027.046.055.068.082,0,0,.035.045.01.012s.029.039.027.038a3.478,3.478,0,0,1,.231.361c.035.062.068.125.1.189.017.035.033.071.049.107.007.016.014.03.02.046-.014-.035-.006-.014,0,.009a4.646,4.646,0,0,1,.208,2.443.374.374,0,0,0,.252.444.364.364,0,0,0,.444-.252A4.753,4.753,0,0,0,736.4,360.5a5.317,5.317,0,0,0-2.631-1.351,5.015,5.015,0,0,0-.7-.107.361.361,0,0,0,0,.721Z" transform="translate(-732.71 -359.046)" fill="#af75ff"/>
                </g>
              </g>
              <g id="Group_1292" data-name="Group 1292" transform="translate(43.293 13.183)">
                <g id="Group_1291" data-name="Group 1291">
                  <path id="Path_2049" data-name="Path 2049" d="M769.54,415.812a6.359,6.359,0,0,0,.27-1.78,4.722,4.722,0,0,0-3.236-4.846.361.361,0,1,0-.192.7,4.393,4.393,0,0,1,1.747,1.171,3.777,3.777,0,0,1,.773,1.426q.056.19.1.385.02.1.035.19c.006.032.01.063.014.1s.006.042,0,0c0,.02.006.042.007.062a6.383,6.383,0,0,1,.039.723,6.512,6.512,0,0,1-.039.671l-.017.144c.014-.118-.006.035-.01.062-.013.082-.026.163-.042.245a4.512,4.512,0,0,1-.137.567c-.146.44.549.629.694.189Z" transform="translate(-766.116 -409.169)" fill="#af75ff"/>
                </g>
              </g>
              <g id="Group_1294" data-name="Group 1294" transform="translate(46.227 20.875)">
                <g id="Group_1293" data-name="Group 1293">
                  <path id="Path_2050" data-name="Path 2050" d="M786.637,463.179c-.124-.092-.019-.014.032.027.089.075.176.153.261.232.127.12.248.245.365.375.068.075.133.15.2.228.032.038.062.075.092.114.007.009.068.088.017.022l.075.1a5.312,5.312,0,0,1,1.123,3.118,5.545,5.545,0,0,1-.6,2.5.37.37,0,0,0,.13.493.364.364,0,0,0,.493-.13,5.966,5.966,0,0,0,.4-4.6,6.889,6.889,0,0,0-1.693-2.641,5.09,5.09,0,0,0-.525-.457.361.361,0,0,0-.366.622Z" transform="translate(-786.46 -462.504)" fill="#af75ff"/>
                </g>
              </g>
              <g id="Group_1296" data-name="Group 1296" transform="translate(48.353 29.922)">
                <g id="Group_1295" data-name="Group 1295">
                  <path id="Path_2051" data-name="Path 2051" d="M801.374,525.91c.024.017.11.084.052.037l.063.052q.065.054.13.112c.105.094.2.193.3.3.053.058.107.117.157.176l.089.108.036.045c-.05-.065,0,.006.014.02a4.633,4.633,0,0,1,.332.518,2.728,2.728,0,0,1,.244.564,3.057,3.057,0,0,1,.131,1.363,4.587,4.587,0,0,1-.919,2.064.363.363,0,0,0,.13.493.368.368,0,0,0,.493-.13,4.521,4.521,0,0,0,.92-3.773,4.637,4.637,0,0,0-1.347-2.188,4.056,4.056,0,0,0-.464-.382.363.363,0,0,0-.493.13.37.37,0,0,0,.13.495Z" transform="translate(-801.196 -525.234)" fill="#af75ff"/>
                </g>
              </g>
              <g id="Group_1298" data-name="Group 1298" transform="translate(47.298 38.767)">
                <g id="Group_1297" data-name="Group 1297">
                  <path id="Path_2052" data-name="Path 2052" d="M795.679,587.109a3.146,3.146,0,0,1,.221.365c.03.056.059.114.086.17l.055.117c.006.013.012.027.019.04.042.092-.016-.04.009.02a5.17,5.17,0,0,1,.188.545,3.58,3.58,0,0,1,.14,1.34,3.853,3.853,0,0,1-.486,1.56,6.044,6.044,0,0,1-1.846,1.914.37.37,0,0,0-.13.493.364.364,0,0,0,.493.13,5.746,5.746,0,0,0,2.649-3.734,4.866,4.866,0,0,0-.483-2.827,3.435,3.435,0,0,0-.29-.5.371.371,0,0,0-.493-.13.364.364,0,0,0-.131.495Z" transform="translate(-793.886 -586.566)" fill="#af75ff"/>
                </g>
              </g>
            </g>
          </g>
        </g>
      </g>
    </g>
  </g>
</svg>
