<svg id="Group_177" data-name="Group 177" xmlns="http://www.w3.org/2000/svg" xmlns:xlink="http://www.w3.org/1999/xlink" width="217.38" height="71.807" viewBox="0 0 217.38 71.807">
  <defs>
    <linearGradient id="linear-gradient" x1="0.451" y1="-0.976" x2="0.554" y2="1.496" gradientUnits="objectBoundingBox">
      <stop offset="0" stop-color="#3e3e3e" stop-opacity="0.173"/>
      <stop offset="1" stop-color="#1a0643" stop-opacity="0.518"/>
    </linearGradient>
    <clipPath id="clip-path">
      <rect id="Rectangle_43" data-name="Rectangle 43" width="26.219" height="33.285" fill="#fff"/>
    </clipPath>
  </defs>
  <g id="Rectangle_126" data-name="Rectangle 126" transform="translate(0 0)" stroke="rgba(255,255,255,0.28)" stroke-width="1" fill="url(#linear-gradient)">
    <rect width="217.38" height="71.807" rx="10" stroke="none"/>
    <rect x="0.5" y="0.5" width="216.38" height="70.807" rx="9.5" fill="none"/>
  </g>
  <text id="Download_on_App_Store" data-name="Download on
App Store" transform="translate(84.867 25.794)" fill="#fff" font-size="12" font-family="BuenosAires-Book, Buenos Aires"><tspan letter-spacing="0.04em"><tspan x="0" y="0">Download on</tspan></tspan><tspan font-size="20" font-family="BuenosAires-Regular, Buenos Aires"><tspan x="0" y="21">App Store</tspan></tspan></text>
  <g id="Group_92" data-name="Group 92" transform="translate(31.472 19.262)" opacity="0.748">
    <g id="Group_87" data-name="Group 87" clip-path="url(#clip-path)">
      <path id="Path_121" data-name="Path 121" d="M0,70.3c.142-3.2.483-5.7,2.268-7.742a7.611,7.611,0,0,1,9.082-2.23,4.57,4.57,0,0,0,4.03.061,8.241,8.241,0,0,1,6.484-.259,7.259,7.259,0,0,1,3.324,2.493c.586.782.552,1.016-.232,1.6a6.226,6.226,0,0,0-2.467,6.952A5.683,5.683,0,0,0,25.624,74.9c.525.253.727.431.506,1.107a20.969,20.969,0,0,1-3.5,6.332c-1.837,2.371-3.863,2.862-6.6,1.62a5.3,5.3,0,0,0-4.777.128A4.486,4.486,0,0,1,5.4,83.126,18.655,18.655,0,0,1,.748,74.565C.35,72.97.173,71.32,0,70.3" transform="translate(0 -51.477)" fill="#fff"/>
      <path id="Path_122" data-name="Path 122" d="M101.776,6.055C101.818,3.163,104.458.071,106.9,0c.221,2.6-2.586,5.942-5.125,6.056" transform="translate(-87.922 0.001)" fill="#fff"/>
    </g>
  </g>
</svg>
