<svg xmlns="http://www.w3.org/2000/svg" width="100" height="100" viewBox="0 0 100 100">
  <g id="Braces" transform="translate(-192.17 -192.17)">
    <g id="Group_1319" data-name="Group 1319" transform="translate(192.17 192.17)">
      <circle id="Ellipse_131" data-name="Ellipse 131" cx="50" cy="50" r="50" transform="translate(0 0)" fill="#3b0c77"/>
      <g id="Group_1318" data-name="Group 1318" transform="translate(6.487 32.262)">
        <g id="Group_1310" data-name="Group 1310" transform="translate(45.457)">
          <path id="Path_2057" data-name="Path 2057" d="M589.542,441.356a8.256,8.256,0,0,0-.8-.483,12.224,12.224,0,0,0-2.155-.919,8.168,8.168,0,0,0-2.83-.4,5.868,5.868,0,0,0-3.075,1.011,7.922,7.922,0,0,0-2.61,3.376c-.084.187-.163.378-.237.57a.6.6,0,0,0,.457.74.68.68,0,0,0,.8-.42c.075-.192.154-.381.237-.57.048-.108-.04.084.01-.022.019-.04.039-.081.058-.121.045-.092.091-.183.137-.274a8.635,8.635,0,0,1,.534-.893q.138-.2.29-.394c.023-.029.046-.056.068-.085s.024-.027.035-.042-.089.1-.045.053.108-.124.163-.185a5.859,5.859,0,0,1,.616-.58c.053-.043.107-.085.162-.125l.075-.055c.052-.04-.079.055-.069.049s.033-.023.05-.035c.108-.072.219-.143.333-.208s.222-.123.338-.177c.052-.025.1-.049.157-.072.026-.012.052-.023.079-.033l.053-.022c.079-.033-.071.027-.076.03.226-.072.446-.151.679-.2.115-.026.231-.049.349-.066.065-.01.281-.032.027-.007l.174-.019a6.154,6.154,0,0,1,.692-.022c.11,0,.219.009.329.016l.17.014.078.009.039,0c.087.009-.1-.013-.1-.012a10.077,10.077,0,0,1,1.276.267c.2.058.4.123.593.192l.131.048.075.029c.111.042-.084-.033-.061-.025.088.036.177.071.267.108q.467.2.913.433c.323.17.622.366.932.552l.013.009a.689.689,0,0,0,.9-.216.6.6,0,0,0-.238-.824Z" transform="translate(-574.465 -436.319)" fill="#fff"/>
          <g id="Group_1308" data-name="Group 1308">
            <g id="Group_1307" data-name="Group 1307">
              <path id="Path_2058" data-name="Path 2058" d="M571.008,419.657a9.558,9.558,0,0,0,7.181-1.377s8.6-4.706,13.162,5.375c0,0,2.32,5.6-1.824,14.948-3.163,7.132-4.885,16.652-6.144,20.766a3.009,3.009,0,0,1-2.923,2.035h0a2.988,2.988,0,0,1-2.969-2.209l-2.7-14a1.53,1.53,0,0,0-2.958,0l-2.7,14a2.99,2.99,0,0,1-2.969,2.209h0a3.011,3.011,0,0,1-2.923-2.035c-1.259-4.113-2.981-13.635-6.144-20.766-4.145-9.35-1.824-14.948-1.824-14.948,4.56-10.081,13.162-5.375,13.162-5.375a63.716,63.716,0,0,0,7.861,4.032" transform="translate(-554.62 -417.183)" fill="#fff"/>
            </g>
          </g>
          <g id="Group_1309" data-name="Group 1309" transform="translate(29.451 20.642)">
            <path id="Path_2059" data-name="Path 2059" d="M762.26,560.31a41.607,41.607,0,0,0-3.43,9.833" transform="translate(-758.83 -560.31)" fill="#fff"/>
          </g>
        </g>
        <g id="Group_1314" data-name="Group 1314" transform="translate(4.048)">
          <path id="Path_2060" data-name="Path 2060" d="M300.142,441.356a8.26,8.26,0,0,0-.8-.483,12.223,12.223,0,0,0-2.155-.919,8.168,8.168,0,0,0-2.83-.4,5.868,5.868,0,0,0-3.075,1.011,7.922,7.922,0,0,0-2.61,3.376c-.084.187-.163.378-.237.57a.6.6,0,0,0,.457.74.68.68,0,0,0,.8-.42c.075-.192.154-.381.237-.57.048-.108-.04.084.01-.022.019-.04.039-.081.058-.121.045-.092.091-.183.137-.274a8.629,8.629,0,0,1,.534-.893q.138-.2.29-.394c.023-.029.046-.056.068-.085s.025-.027.035-.042-.089.1-.045.053.108-.124.163-.185a5.866,5.866,0,0,1,.616-.58c.053-.043.107-.085.162-.125l.075-.055c.052-.04-.079.055-.069.049s.033-.023.05-.035c.108-.072.219-.143.333-.208s.222-.123.337-.177c.052-.025.1-.049.157-.072.026-.012.052-.023.079-.033l.053-.022c.079-.033-.071.027-.076.03.226-.072.446-.151.679-.2.115-.026.231-.049.349-.066.065-.01.281-.032.027-.007l.174-.019a6.154,6.154,0,0,1,.692-.022c.11,0,.219.009.329.016l.17.014.078.009.039,0c.087.009-.1-.013-.1-.012a10.076,10.076,0,0,1,1.276.267c.2.058.4.123.593.192l.131.048.075.029c.111.042-.084-.033-.061-.025.088.036.177.071.267.108q.467.2.913.433c.323.17.622.366.932.552l.013.009a.689.689,0,0,0,.9-.216.6.6,0,0,0-.238-.824Z" transform="translate(-285.065 -436.319)" fill="#fff"/>
          <g id="Group_1312" data-name="Group 1312">
            <g id="Group_1311" data-name="Group 1311">
              <path id="Path_2061" data-name="Path 2061" d="M281.608,419.657a9.558,9.558,0,0,0,7.181-1.377s8.6-4.706,13.162,5.375c0,0,2.32,5.6-1.824,14.948-3.163,7.132-4.885,16.652-6.144,20.766a3.009,3.009,0,0,1-2.923,2.035h0a2.988,2.988,0,0,1-2.969-2.209l-2.7-14a1.53,1.53,0,0,0-2.958,0l-2.7,14a2.989,2.989,0,0,1-2.969,2.209h0a3.011,3.011,0,0,1-2.923-2.035c-1.259-4.113-2.981-13.635-6.144-20.766-4.145-9.35-1.824-14.948-1.824-14.948,4.56-10.081,13.162-5.375,13.162-5.375a63.717,63.717,0,0,0,7.861,4.032" transform="translate(-265.22 -417.183)" fill="#fff"/>
            </g>
          </g>
          <g id="Group_1313" data-name="Group 1313" transform="translate(29.453 20.642)">
            <path id="Path_2062" data-name="Path 2062" d="M472.87,560.31a41.6,41.6,0,0,0-3.43,9.833" transform="translate(-469.44 -560.31)" fill="#fff"/>
          </g>
        </g>
        <g id="Group_1317" data-name="Group 1317" transform="translate(0 14.038)">
          <g id="Group_1316" data-name="Group 1316" transform="translate(0 2.241)">
            <g id="Group_1315" data-name="Group 1315">
              <path id="Path_2063" data-name="Path 2063" d="M238.193,532.228H319.55c1.1,0,2.2.017,3.3,0,.047,0,.1,0,.144,0a1.082,1.082,0,0,0,0-2.163H241.634c-1.1,0-2.2-.017-3.3,0-.047,0-.1,0-.144,0a1.082,1.082,0,0,0,0,2.163Z" transform="translate(-237.151 -530.057)" fill="#af75ff"/>
            </g>
          </g>
          <path id="Path_2064" data-name="Path 2064" d="M369.924,521.18H365.09a2.09,2.09,0,0,1-2.09-2.09V516.61a2.09,2.09,0,0,1,2.09-2.09h4.834a2.09,2.09,0,0,1,2.09,2.09v2.481A2.09,2.09,0,0,1,369.924,521.18Z" transform="translate(-344.926 -514.52)" fill="#3b0c77"/>
          <path id="Path_2065" data-name="Path 2065" d="M664.735,521.18H659.9a2.09,2.09,0,0,1-2.09-2.09V516.61a2.09,2.09,0,0,1,2.09-2.09h4.834a2.09,2.09,0,0,1,2.09,2.09v2.481A2.089,2.089,0,0,1,664.735,521.18Z" transform="translate(-597.397 -514.52)" fill="#3b0c77"/>
        </g>
      </g>
    </g>
  </g>
</svg>
