<svg id="Group_253" data-name="Group 253" xmlns="http://www.w3.org/2000/svg" width="51" height="51" viewBox="0 0 51 51">
  <rect id="Rectangle_24" data-name="Rectangle 24" width="51" height="51" rx="8" fill="#2b1459"/>
  <g id="noun-call-1944796" transform="translate(13.989 14.046)">
    <path id="Path_212" data-name="Path 212" d="M123.606,49.162l-3.356-3.357a2.3,2.3,0,0,0-1.638-.67,2.421,2.421,0,0,0-1.722.718l-1.353,1.353a15.146,15.146,0,0,1-6.634-6.632l1.355-1.354a2.381,2.381,0,0,0,.045-3.361L106.948,32.5a2.3,2.3,0,0,0-1.637-.672,2.423,2.423,0,0,0-1.724.72l-.946.952a.631.631,0,0,0-.155.255,6.116,6.116,0,0,0-.739,1.359l0,.007a6.309,6.309,0,0,0-.383,1.543c-.469,3.889,1.261,7.4,5.971,12.107a22.174,22.174,0,0,0,7.319,5.06,11.87,11.87,0,0,0,4.317.938,4.63,4.63,0,0,0,.467-.02h.009a6.314,6.314,0,0,0,1.553-.39,6.08,6.08,0,0,0,1.379-.753.632.632,0,0,0,.224-.142l.958-.938.005-.005a2.385,2.385,0,0,0,.044-3.362Z" transform="translate(-101.287 -31.831)" fill="#a879f6"/>
  </g>
</svg>
