<svg width="36" height="36" viewBox="0 0 36 36" fill="none" xmlns="http://www.w3.org/2000/svg">
<rect x="0.5" y="0.5" width="35" height="35" rx="17.5" stroke="#361272"/>
<path d="M19.9629 12.5C20.811 12.7276 21.5843 13.1743 22.2052 13.7952C22.8261 14.4161 23.2728 15.1894 23.5004 16.0375" stroke="#361272" stroke-width="1.5" stroke-linecap="round" stroke-linejoin="round"/>
<path d="M19.4434 14.4312C19.9534 14.5666 20.4186 14.8345 20.7918 15.2077C21.165 15.5809 21.4329 16.0461 21.5684 16.5562" stroke="#361272" stroke-width="1.5" stroke-linecap="round" stroke-linejoin="round"/>
<path d="M15.7812 17.8C16.2958 18.8625 17.1549 19.7195 18.2187 20.2313C18.2972 20.2684 18.384 20.2845 18.4706 20.2779C18.5572 20.2714 18.6405 20.2424 18.7125 20.1938L20.275 19.15C20.344 19.1032 20.4238 19.0746 20.5069 19.067C20.5899 19.0593 20.6736 19.0728 20.75 19.1063L23.675 20.3625C23.775 20.4041 23.8585 20.4774 23.9127 20.5712C23.9669 20.6649 23.9888 20.7739 23.975 20.8813C23.8823 21.6049 23.5291 22.2699 22.9815 22.7519C22.4339 23.2339 21.7295 23.4999 21 23.5C18.7457 23.5 16.5837 22.6045 14.9896 21.0104C13.3955 19.4164 12.5 17.2544 12.5 15C12.5002 14.2705 12.7661 13.5661 13.2481 13.0185C13.7301 12.4709 14.3952 12.1177 15.1187 12.025C15.2261 12.0112 15.3351 12.0331 15.4288 12.0873C15.5226 12.1415 15.5959 12.2251 15.6375 12.325L16.8937 15.2563C16.9264 15.3315 16.9401 15.4136 16.9335 15.4953C16.927 15.5771 16.9005 15.656 16.8562 15.725L15.8125 17.3125C15.766 17.3843 15.7388 17.4668 15.7333 17.5522C15.7278 17.6375 15.7443 17.7229 15.7812 17.8V17.8Z" stroke="#361272" stroke-width="1.5" stroke-linecap="round" stroke-linejoin="round"/>
</svg>
