<svg xmlns="http://www.w3.org/2000/svg" width="100" height="100" viewBox="0 0 100 100">
  <g id="Clinics" transform="translate(-192.17 -192.17)">
    <g id="Group_1327" data-name="Group 1327" transform="translate(192.17 192.17)">
      <circle id="Ellipse_132" data-name="Ellipse 132" cx="50" cy="50" r="50" transform="translate(0 0)" fill="#3b0c77"/>
      <g id="Group_1322" data-name="Group 1322" transform="translate(12.965 16.476)">
        <g id="Group_1320" data-name="Group 1320">
          <path id="Path_2066" data-name="Path 2066" d="M282.07,332.732l34.575-24.5a4.023,4.023,0,0,1,4.641-.009l34.854,24.507" transform="translate(-282.07 -307.492)" fill="#a979f8"/>
        </g>
        <g id="Group_1321" data-name="Group 1321" transform="translate(8.362 19.341)">
          <path id="Path_2067" data-name="Path 2067" d="M340.05,441.6v41.882a4.043,4.043,0,0,0,4.031,4.054h50.013a4.043,4.043,0,0,0,4.031-4.054V442.155" transform="translate(-340.05 -441.6)" fill="#a979f8"/>
        </g>
      </g>
      <ellipse id="Ellipse_133" data-name="Ellipse 133" cx="25.074" cy="25.239" rx="25.074" ry="25.239" transform="translate(24.926 29.06)" fill="#3b0c77"/>
      <g id="Group_1326" data-name="Group 1326" transform="translate(33.95 35.389)">
        <path id="Path_2068" data-name="Path 2068" d="M458.712,459.615a6.861,6.861,0,0,0-.685-.414,10.452,10.452,0,0,0-1.85-.789,6.993,6.993,0,0,0-2.43-.345,5.027,5.027,0,0,0-2.641.868,6.811,6.811,0,0,0-2.241,2.9q-.108.242-.2.489a.516.516,0,0,0,.392.636.583.583,0,0,0,.691-.361c.063-.164.133-.327.2-.489.042-.094-.035.072.009-.019.016-.035.033-.069.049-.1.038-.079.078-.157.118-.235a7.289,7.289,0,0,1,.459-.767c.079-.115.162-.228.248-.337.019-.025.039-.049.059-.074a.224.224,0,0,0,.029-.036s-.076.089-.039.046.092-.107.14-.159a4.969,4.969,0,0,1,.529-.5q.069-.056.138-.108l.065-.048c.045-.035-.068.048-.059.042a.472.472,0,0,0,.043-.03c.094-.062.187-.123.286-.179s.192-.105.29-.151c.045-.022.089-.042.136-.062l.068-.029c.014-.006.03-.012.045-.019.068-.029-.061.025-.066.026.195-.062.382-.13.583-.176.1-.023.2-.042.3-.058.056-.009.242-.027.023-.006.05,0,.1-.012.15-.016a5.451,5.451,0,0,1,.594-.019c.094,0,.189.007.283.014.049,0,.1.007.146.013l.066.007.033,0c.075.007-.084-.01-.082-.01a8.808,8.808,0,0,1,1.1.229c.172.049.342.105.509.164l.113.04.065.025c.1.036-.072-.029-.052-.02.076.032.153.061.229.094q.4.169.783.371c.277.146.534.314.8.474a.051.051,0,0,0,.012.007.591.591,0,0,0,.769-.186.509.509,0,0,0-.2-.708Z" transform="translate(-445.762 -455.289)" fill="#fff"/>
        <g id="Group_1324" data-name="Group 1324">
          <g id="Group_1323" data-name="Group 1323">
            <path id="Path_2069" data-name="Path 2069" d="M442.783,440.972a8.21,8.21,0,0,0,6.165-1.183s7.386-4.041,11.3,4.615c0,0,1.992,4.808-1.568,12.836-2.716,6.124-4.194,14.3-5.276,17.831a2.583,2.583,0,0,1-2.509,1.748h0a2.566,2.566,0,0,1-2.55-1.9l-2.32-12.021a1.313,1.313,0,0,0-2.54,0l-2.32,12.021a2.567,2.567,0,0,1-2.55,1.9h0a2.583,2.583,0,0,1-2.509-1.748c-1.082-3.532-2.56-11.708-5.276-17.831-3.559-8.027-1.568-12.836-1.568-12.836,3.916-8.656,11.3-4.615,11.3-4.615a54.864,54.864,0,0,0,6.751,3.463" transform="translate(-428.708 -438.847)" fill="#fff"/>
          </g>
        </g>
        <g id="Group_1325" data-name="Group 1325" transform="translate(25.294 17.725)">
          <path id="Path_2070" data-name="Path 2070" d="M607.035,561.75a35.718,35.718,0,0,0-2.945,8.443" transform="translate(-604.09 -561.75)" fill="#fff"/>
        </g>
      </g>
      <path id="Path_2071" data-name="Path 2071" d="M338.762,355.616a.347.347,0,0,1-.674-.019c-.059-.271-.124-.541-.2-.806a22.948,22.948,0,0,0-.994-2.919,5.47,5.47,0,0,0-3.669-2.987l-2.577-.679a.347.347,0,0,1,.006-.672l.014,0c.946-.245,1.9-.474,2.824-.782a5.677,5.677,0,0,0,3.819-3.855l.79-2.951a.347.347,0,0,1,.671,0l.886,3.321a5.57,5.57,0,0,0,3.535,3.443l2.981.8a.347.347,0,0,1-.016.674c-.177.039-.355.081-.531.127-.812.211-1.624.43-2.414.707a5.561,5.561,0,0,0-3.642,3.66Z" transform="translate(-310.532 -318.493)" fill="#ddc5a9"/>
      <path id="Path_2072" data-name="Path 2072" d="M648.808,732.232a.184.184,0,0,1-.356-.01c-.032-.143-.065-.286-.107-.425a12.23,12.23,0,0,0-.525-1.543,2.888,2.888,0,0,0-1.938-1.578l-1.361-.359a.183.183,0,0,1,0-.355h.007c.5-.13,1-.251,1.493-.412a3,3,0,0,0,2.018-2.038l.417-1.559a.184.184,0,0,1,.355,0l.469,1.755a2.945,2.945,0,0,0,1.868,1.82l1.575.423a.183.183,0,0,1-.009.356c-.094.02-.187.043-.28.066-.428.111-.858.228-1.276.374a2.94,2.94,0,0,0-1.925,1.934Z" transform="translate(-579.398 -647.415)" fill="#fff"/>
    </g>
  </g>
</svg>
