<svg id="Group_1815" data-name="Group 1815" xmlns="http://www.w3.org/2000/svg" width="220" height="40" viewBox="0 0 220 40">
  <rect id="Rectangle_446" data-name="Rectangle 446" width="220" height="40" rx="20" transform="translate(0 0)" fill="#361272"/>
  <text id="Dezy_Premium_Clinic" data-name="Dezy Premium Clinic" transform="translate(122 24)" fill="#fff" font-size="14" font-family="buenosSemiBold"><tspan x="-68" y="0">Dezy Premium Clinic</tspan></text>
  <g id="Group_1535" data-name="Group 1535" transform="translate(25.334 8.732)">
    <path id="Path_2117" data-name="Path 2117" d="M678.877,399h-.4a.247.247,0,0,0-.119.473c2.619,1.154,7.075,4.047,7.075,10.383s-4.456,9.229-7.075,10.383a.247.247,0,0,0,.119.473h0c8.216,0,12.39-5.553,12.39-11.043C690.864,404.3,686.858,399,678.877,399Z" transform="translate(-673.987 -399)" fill="#d8b0ff"/>
    <path id="Path_2118" data-name="Path 2118" d="M641.287,409.857a15.883,15.883,0,0,0-3.653-10.443,1.217,1.217,0,0,0-.92-.414h-.51a.6.6,0,0,0-.6.586v20.542a.6.6,0,0,0,.6.586h.51a1.216,1.216,0,0,0,.92-.413A15.889,15.889,0,0,0,641.287,409.857Z" transform="translate(-635.601 -399)" fill="#d8b0ff"/>
  </g>
</svg>
