<svg xmlns="http://www.w3.org/2000/svg" width="93.887" height="40.747" viewBox="0 0 93.887 40.747">
  <g id="Dezy_Rough_Logo-01" data-name="Dezy Rough Logo-01" transform="translate(-72.853 -204.81)">
    <path id="Path_1" data-name="Path 1" d="M452.534,257.479V247.216c0-1.411-.068-1.48-1.5-1.48h-2.324c-1.162,0-1.409.238-1.409,1.387,0,3.27.068,6.542-.024,9.81-.087,3.034-1.645,5.191-4.528,5.66-2.682.437-4.993-.9-5.438-3.7a9.875,9.875,0,0,1-.1-1.542c-.008-3.421,0-6.842-.006-10.263,0-1.107-.23-1.341-1.309-1.345q-1.419-.006-2.839,0c-.815,0-1.13.3-1.13,1.126,0,4.11-.068,8.221.034,12.327a8.14,8.14,0,0,0,2.291,5.95c3.314,3.282,9.592,2.795,11.726.137a.916.916,0,0,1,.822-.262,1.087,1.087,0,0,1,.479.793,18.1,18.1,0,0,1-.01,2.45,5.306,5.306,0,0,1-2.257,4.222,6.49,6.49,0,0,1-9.443-2.609.9.9,0,0,0-1.353-.542c-1,.451-1.983.932-2.972,1.409a.8.8,0,0,0-.427,1.168,10.163,10.163,0,0,0,5.644,5.541c2.444,1.045,5.042.856,7.571.552a9.416,9.416,0,0,0,5.285-2.738,9.926,9.926,0,0,0,2.9-4.842,13.976,13.976,0,0,0,.308-3.326C452.558,263.892,452.534,260.686,452.534,257.479Z" transform="translate(-285.801 -32.685)" fill="#af78fe"/>
    <path id="Path_2" data-name="Path 2" d="M332.186,268.117v0q4.422,0,8.841,0c.707,0,.924-.209.934-.918.012-.84.006-1.677,0-2.517,0-1.051-.23-1.279-1.3-1.279-3.119,0-6.238.012-9.357-.024a1.213,1.213,0,0,1-.926-.473c-.109-.2.107-.687.312-.932.685-.819,1.432-1.589,2.154-2.376,1.244-1.359,2.479-2.726,3.735-4.075.747-.8,1.536-1.56,2.285-2.356.7-.747,1.4-1.5,2.056-2.289a1.679,1.679,0,0,0,.334-.93c.044-.88.016-1.764.014-2.646,0-1.188-.2-1.389-1.385-1.391l-16.263-.016a.96.96,0,0,0-1.087,1.069q-.033,1.323.012,2.646c.032.9.284,1.128,1.2,1.128q4.035.006,8.068,0a4.639,4.639,0,0,1,.838.03.607.607,0,0,1,.4,1.019c-.342.467-.691.932-1.075,1.363q-1.583,1.776-3.2,3.52c-.846.912-1.728,1.792-2.567,2.71-.55.6-1.037,1.258-1.585,1.86-.606.666-1.266,1.285-1.862,1.959a1.259,1.259,0,0,0-.252.753c-.028,1.053-.01,2.108-.01,3.161,0,.968.032,1,1.031,1Q327.863,268.12,332.186,268.117Z" transform="translate(-199.382 -32.809)" fill="#af78fe"/>
    <path id="Path_3" data-name="Path 3" d="M103.649,204.994l-.109.175a3.452,3.452,0,0,0,.413.377,49.714,49.714,0,0,1,4.424,2.97,18.247,18.247,0,0,1,2.658,3.111,12.372,12.372,0,0,1,2.16,5,15.507,15.507,0,0,1-6.449,16.47c-.894.594-1.848,1.1-2.765,1.659a2.139,2.139,0,0,0-.4.445,1.791,1.791,0,0,0,.54.215,17.511,17.511,0,0,0,11.461-3.757,14.617,14.617,0,0,0,3.143-3.636c2.245-3.246,2.6-6.934,2.138-10.706a13.684,13.684,0,0,0-3.948-7.75,15.7,15.7,0,0,0-6.514-3.906A18.352,18.352,0,0,0,103.649,204.994Z" transform="translate(-24.508 -0.114)" fill="#af78fe"/>
    <path id="Path_4" data-name="Path 4" d="M72.858,220.072q0,6.968,0,13.935a2.959,2.959,0,0,0,.048.769.8.8,0,0,0,.344.491,2.673,2.673,0,0,0,2.793-.771c.87-1.22,1.732-2.458,2.481-3.755a20.639,20.639,0,0,0,2.193-6.7A24.044,24.044,0,0,0,79.321,211a24.914,24.914,0,0,0-2.744-4.645,2.576,2.576,0,0,0-2.549-1.532c-1.1.1-1.168.077-1.168,1.184Q72.854,213.039,72.858,220.072Z" transform="translate(-0.003 -0.002)" fill="#af78fe"/>
    <path id="Path_5" data-name="Path 5" d="M452.534,257.487c0,3.205.024,6.411-.014,9.616a13.986,13.986,0,0,1-.308,3.326,9.917,9.917,0,0,1-2.9,4.842,9.422,9.422,0,0,1-5.285,2.738c-2.529.3-5.126.493-7.571-.552a10.157,10.157,0,0,1-5.644-5.541.8.8,0,0,1,.427-1.168c.987-.477,1.973-.958,2.972-1.409a.9.9,0,0,1,1.353.542,6.491,6.491,0,0,0,9.443,2.609,5.294,5.294,0,0,0,2.257-4.222,18.089,18.089,0,0,0,.01-2.45,1.087,1.087,0,0,0-.479-.793.909.909,0,0,0-.821.262c-2.134,2.658-8.412,3.145-11.727-.137a8.149,8.149,0,0,1-2.291-5.95c-.1-4.108-.036-8.217-.034-12.327,0-.824.314-1.124,1.13-1.126q1.42-.006,2.839,0c1.079.006,1.309.238,1.309,1.345,0,3.421,0,6.842.006,10.263a10.374,10.374,0,0,0,.1,1.542c.445,2.811,2.756,4.144,5.438,3.7,2.881-.469,4.442-2.626,4.528-5.66.093-3.268.02-6.54.024-9.81,0-1.152.248-1.389,1.409-1.387h2.324c1.436,0,1.5.068,1.5,1.48V256C452.534,256.5,452.534,256.993,452.534,257.487Z" transform="translate(-285.801 -32.693)" fill="#af78fe"/>
    <path id="Path_6" data-name="Path 6" d="M218.29,256.364c-2.173,0-4.345,0-6.52,0-1.071,0-1.349.419-.944,1.428a5.609,5.609,0,0,0,5.108,3.723,7.507,7.507,0,0,0,6.276-2.239.81.81,0,0,1,1.208.081c.61.666,1.186,1.363,1.756,2.064a.653.653,0,0,1-.03.981,12.487,12.487,0,0,1-5.132,3.232,17.8,17.8,0,0,1-5.7.312,9.049,9.049,0,0,1-4.5-1.577,9.675,9.675,0,0,1-4.291-5.984,18.5,18.5,0,0,1-.2-5.837,10.755,10.755,0,0,1,3.572-6.81,9.473,9.473,0,0,1,4.486-2.309,11.127,11.127,0,0,1,8.086.882,8.077,8.077,0,0,1,3.975,4.8,18.2,18.2,0,0,1,.66,6.447c-.042.632-.479.805-1.037.805q-3.386,0-6.775,0Zm-2.559-3.878c1.44,0,2.881.006,4.321,0,.457,0,.888-.089.846-.707A4.232,4.232,0,0,0,218.489,248a5.678,5.678,0,0,0-7.77,3.318c-.284.878-.1,1.156.819,1.164C212.936,252.5,214.334,252.488,215.731,252.486Z" transform="translate(-105.687 -30.55)" fill="#af78fe"/>
    <path id="Path_7" data-name="Path 7" d="M332.189,268.141h-8.648c-1,0-1.031-.032-1.031-1,0-1.055-.016-2.108.01-3.161a1.25,1.25,0,0,1,.252-.753c.6-.674,1.256-1.293,1.862-1.959.548-.6,1.035-1.26,1.585-1.86.84-.918,1.722-1.8,2.567-2.71q1.616-1.746,3.2-3.52c.385-.431.733-.9,1.075-1.363a.607.607,0,0,0-.4-1.019,4.827,4.827,0,0,0-.838-.03q-4.035,0-8.068,0c-.912,0-1.166-.226-1.2-1.128-.03-.882-.036-1.764-.012-2.646a.96.96,0,0,1,1.087-1.069q8.13.006,16.263.016c1.18,0,1.383.2,1.385,1.391,0,.882.03,1.766-.014,2.646a1.679,1.679,0,0,1-.334.93c-.652.789-1.353,1.542-2.056,2.289-.751.8-1.54,1.556-2.285,2.356-1.256,1.347-2.491,2.716-3.735,4.075-.723.789-1.468,1.556-2.154,2.376-.205.246-.421.729-.312.932a1.222,1.222,0,0,0,.926.473c3.119.034,6.238.02,9.357.024,1.067,0,1.295.228,1.3,1.279,0,.84.01,1.677,0,2.517-.01.709-.228.918-.934.918q-4.422,0-8.841,0Z" transform="translate(-199.385 -32.833)" fill="#af78fe"/>
    <path id="Path_8" data-name="Path 8" d="M103.641,205a18.381,18.381,0,0,1,6.749.662,15.68,15.68,0,0,1,6.514,3.906,13.678,13.678,0,0,1,3.948,7.75c.463,3.769.107,7.46-2.138,10.706a14.535,14.535,0,0,1-3.143,3.636,17.507,17.507,0,0,1-11.461,3.757,1.791,1.791,0,0,1-.54-.215,2.138,2.138,0,0,1,.4-.445c.914-.564,1.871-1.065,2.765-1.659a15.509,15.509,0,0,0,6.449-16.47,12.372,12.372,0,0,0-2.16-5,18.4,18.4,0,0,0-2.658-3.111,50.144,50.144,0,0,0-4.424-2.97,3.631,3.631,0,0,1-.413-.377C103.568,205.115,103.6,205.056,103.641,205Z" transform="translate(-24.5 -0.117)" fill="#af78fe"/>
    <path id="Path_9" data-name="Path 9" d="M72.855,220.07V206.006c0-1.107.064-1.087,1.168-1.184a2.567,2.567,0,0,1,2.549,1.532A24.806,24.806,0,0,1,79.316,211a24.027,24.027,0,0,1,1.4,13.037,20.687,20.687,0,0,1-2.193,6.7c-.749,1.3-1.609,2.533-2.481,3.755a2.678,2.678,0,0,1-2.793.771.8.8,0,0,1-.344-.491,3.042,3.042,0,0,1-.048-.769Q72.852,227.038,72.855,220.07Z" transform="translate(0)" fill="#af78fe"/>
  </g>
</svg>
