<svg xmlns="http://www.w3.org/2000/svg" width="28" height="36.029" viewBox="0 0 28 36.029">
  <g id="Group_1550" data-name="Group 1550" transform="translate(-83.752 -639.797)">
    <path id="Path_2117" data-name="Path 2117" d="M679.317,399h-.667a.409.409,0,0,0-.2.785c4.321,1.915,11.671,6.715,11.671,17.228s-7.35,15.313-11.671,17.227a.41.41,0,0,0,.2.785h0c13.554,0,20.44-9.213,20.44-18.321C699.091,407.8,692.482,399,679.317,399Z" transform="translate(-587.338 240.796)" fill="#361272"/>
    <path id="Path_2118" data-name="Path 2118" d="M645.2,417.013a26.1,26.1,0,0,0-6.165-17.326A2.069,2.069,0,0,0,637.48,399h-.861a1,1,0,0,0-1.018.973v34.083a1,1,0,0,0,1.018.973h.861a2.067,2.067,0,0,0,1.552-.686A26.11,26.11,0,0,0,645.2,417.013Z" transform="translate(-551.849 240.796)" fill="#361272"/>
  </g>
</svg>
