<svg width="44" height="45" viewBox="0 0 44 45" fill="none" xmlns="http://www.w3.org/2000/svg">
<rect x="0.5" y="1" width="43" height="43" rx="21.5" fill="#FBF8F7"/>
<rect x="0.5" y="1" width="43" height="43" rx="21.5" stroke="#CCBBA3"/>
<path d="M22 23.125C23.3807 23.125 24.5 22.0057 24.5 20.625C24.5 19.2443 23.3807 18.125 22 18.125C20.6193 18.125 19.5 19.2443 19.5 20.625C19.5 22.0057 20.6193 23.125 22 23.125Z" fill="#FAFAFA" stroke="#361272" stroke-width="1.5" stroke-linecap="round" stroke-linejoin="round"/>
<path d="M28.25 20.625C28.25 26.25 22 30.625 22 30.625C22 30.625 15.75 26.25 15.75 20.625C15.75 18.9674 16.4085 17.3777 17.5806 16.2056C18.7527 15.0335 20.3424 14.375 22 14.375C23.6576 14.375 25.2473 15.0335 26.4194 16.2056C27.5915 17.3777 28.25 18.9674 28.25 20.625V20.625Z" stroke="#361272" stroke-width="1.5" stroke-linecap="round" stroke-linejoin="round"/>
</svg>
