<svg id="noun-safe-1877727" xmlns="http://www.w3.org/2000/svg" width="15.175" height="17.233" viewBox="0 0 15.175 17.233">
  <g id="Path_498" data-name="Path 498" transform="translate(-129.978 -28)" fill="none">
    <path d="M142.317,30.013a15.777,15.777,0,0,1-3.475-1.268c-.4-.207-.8-.435-1.181-.678L137.566,28c-.383.2-.783.4-1.181.588a23.469,23.469,0,0,1-2.57,1.04,18.142,18.142,0,0,1-2.125.574c-.442.09-.888.161-1.34.218-.124.015-.247.029-.371.04,0,.8,0,1.6.046,2.4.034.632.086,1.262.163,1.89.056.484.128.969.215,1.448.073.408.159.81.257,1.212.071.289.147.574.232.86A11.248,11.248,0,0,0,133.6,43.1h0a8.169,8.169,0,0,0,.71.626,7.926,7.926,0,0,0,1.089.712,7.827,7.827,0,0,0,1.212.528c.235.08.475.147.716.209.123.031.123.031.245.057.192-.042.383-.09.574-.147a7.1,7.1,0,0,0,1.068-.427,7.255,7.255,0,0,0,.894-.517,6.738,6.738,0,0,0,.555-.416,10.681,10.681,0,0,0,3.052-4.46q.192-.467.339-.948.187-.574.333-1.149c.13-.507.239-1.021.333-1.532.119-.653.209-1.312.278-1.972.09-.879.138-1.763.157-2.646v-.553h0a18.972,18.972,0,0,1-2.836-.454Z" stroke="none"/>
    <path d="M 137.5139770507812 29.15160751342773 C 137.2936096191406 29.26193237304688 137.0613555908203 29.37455368041992 136.8139190673828 29.49110794067383 C 135.9465789794922 29.90327835083008 135.0451965332031 30.26802825927734 134.1340484619141 30.57546997070312 C 133.4023742675781 30.82172012329102 132.6478729248047 31.02560043334961 131.8890838623047 31.18194961547852 C 131.5959777832031 31.24160385131836 131.2958526611328 31.29458999633789 130.9801788330078 31.34225463867188 C 130.9840240478516 31.83353424072266 130.9944000244141 32.31527328491211 131.0223693847656 32.80140686035156 C 131.0580139160156 33.45525741577148 131.1093597412109 34.05163955688477 131.1792907714844 34.62462997436523 L 131.1801300048828 34.63180923461914 C 131.2314147949219 35.07869720458984 131.3004608154297 35.54449844360352 131.3856201171875 36.01770782470703 C 131.4523162841797 36.39151000976562 131.5320892333984 36.76828002929688 131.6290588378906 37.16765975952148 C 131.6977691650391 37.44828033447266 131.7695465087891 37.71461868286133 131.8476104736328 37.97885894775391 C 132.4065704345703 39.84893035888672 133.231201171875 41.33283996582031 134.298583984375 42.38938140869141 L 134.3362884521484 42.42671203613281 C 134.5212554931641 42.607177734375 134.7179412841797 42.77930068969727 134.9193572998047 42.93712615966797 C 135.2182312011719 43.16967010498047 135.5385437011719 43.37908935546875 135.8703002929688 43.55897903442383 C 136.2083740234375 43.74173736572266 136.5640716552734 43.89678955078125 136.9300079345703 44.02069091796875 C 137.1134490966797 44.08332824707031 137.3165740966797 44.14239883422852 137.5651092529297 44.20555114746094 C 137.5661773681641 44.20581817626953 137.5672302246094 44.20607757568359 137.5682830810547 44.20634460449219 C 137.6673736572266 44.18168640136719 137.7611389160156 44.15608596801758 137.8515167236328 44.12905120849609 C 138.1640930175781 44.03250503540039 138.4717559814453 43.90943145751953 138.7659759521484 43.76323699951172 L 138.7732238769531 43.75967788696289 C 139.0399322509766 43.62982940673828 139.29931640625 43.47985076904297 139.5428771972656 43.3148078918457 C 139.7324829101562 43.18589019775391 139.8869171142578 43.07059860229492 140.0150146484375 42.96237945556641 L 140.0305786132812 42.94950103759766 C 141.1610717773438 42.0328483581543 142.0867309570312 40.67070770263672 142.7818298339844 38.90092849731445 L 142.787353515625 38.88715744018555 C 142.9031524658203 38.60470962524414 143.0067749023438 38.31490707397461 143.0953521728516 38.02579879760742 L 143.1004791259766 38.00954055786133 C 143.2176361083984 37.6491584777832 143.3236541748047 37.28353881835938 143.4159851074219 36.92117691040039 C 143.5332336425781 36.46438980102539 143.6372833251953 35.98563766479492 143.7338409423828 35.45899963378906 C 143.8428344726562 34.85963821411133 143.9301605224609 34.23909759521484 144.0006103515625 33.56378936767578 C 144.0718231201172 32.86844253540039 144.1186828613281 32.14548492431641 144.1430358886719 31.3637809753418 C 143.9357299804688 31.33673095703125 143.7288208007812 31.30644226074219 143.5224151611328 31.27293014526367 L 143.53076171875 31.32719802856445 L 142.0866088867188 30.98566818237305 C 140.8075408935547 30.68317794799805 139.5641326904297 30.22969055175781 138.3909454345703 29.63779830932617 L 138.3858032226562 29.63518905639648 C 138.0973358154297 29.48755645751953 137.8054046630859 29.32560348510742 137.5139770507812 29.15160751342773 M 137.5661010742188 28.00009918212891 L 137.6600036621094 28.0671501159668 C 138.0429229736328 28.31035995483398 138.4373779296875 28.53822708129883 138.8413848876953 28.74498748779297 C 139.9460906982422 29.30233001708984 141.1126403808594 29.72774887084961 142.3167419433594 30.01250839233398 L 142.3167266845703 30.01237869262695 C 143.2490997314453 30.23513412475586 144.1971282958984 30.38673400878906 145.1524658203125 30.46620559692383 L 145.1524658203125 31.01945877075195 C 145.1332244873047 31.9022102355957 145.0854187011719 32.78680801391602 144.9954071044922 33.66566848754883 C 144.9264831542969 34.32629776000977 144.8364562988281 34.98489761352539 144.7177124023438 35.63789749145508 C 144.6239624023438 36.14917755126953 144.5148315429688 36.66234970092773 144.3845977783203 37.16976928710938 C 144.2869720458984 37.55286026000977 144.1759796142578 37.9357795715332 144.0514831542969 38.31871032714844 C 143.9533233642578 38.63912963867188 143.8403167724609 38.95501708984375 143.7126159667969 39.26649856567383 C 143.0500030517578 40.95355987548828 142.0773773193359 42.57730102539062 140.6603851318359 43.72624969482422 C 140.4880828857422 43.87181854248047 140.2966766357422 44.01152801513672 140.1051635742188 44.14174652099609 C 139.8197631835938 44.33514785766602 139.5209655761719 44.50785064697266 139.2109527587891 44.65877914428711 C 138.8669128417969 44.82972717285156 138.5095977783203 44.97264862060547 138.1425628662109 45.08576965332031 C 137.9510345458984 45.14321136474609 137.7596435546875 45.19115829467773 137.5680999755859 45.23323059082031 C 137.4456176757812 45.20639038085938 137.4456176757812 45.20639038085938 137.3230133056641 45.17579650878906 C 137.0816650390625 45.11448669433594 136.8423156738281 45.04743957519531 136.6068420410156 44.9670295715332 C 136.1886596679688 44.82544708251953 135.7831420898438 44.64862823486328 135.3947448730469 44.43865966796875 C 135.0126342773438 44.23147964477539 134.6482391357422 43.99321746826172 134.3052673339844 43.72635650634766 C 134.0565643310547 43.53148651123047 133.8193664550781 43.32246780395508 133.594970703125 43.1002197265625 L 133.5951080322266 43.10009002685547 C 132.2623901367188 41.78092956542969 131.4217376708984 40.04592895507812 130.8894958496094 38.26523971557617 C 130.8052062988281 37.97993850708008 130.7285461425781 37.69463729858398 130.6577453613281 37.40546798706055 C 130.5601196289062 37.00333023071289 130.4739532470703 36.60128784179688 130.4011688232422 36.19337844848633 C 130.3150177001953 35.71466827392578 130.2422332763672 35.23022842407227 130.1866607666016 34.74578857421875 C 130.1099853515625 34.11763763427734 130.0583038330078 33.48773956298828 130.0238494873047 32.85585784912109 C 129.9779052734375 32.05738830566406 129.9779052734375 31.26079940795898 129.9779052734375 30.46048736572266 C 130.1023712158203 30.44900894165039 130.224853515625 30.43564987182617 130.3493347167969 30.4202880859375 C 130.8011932373047 30.36285018920898 131.2472839355469 30.29206848144531 131.6896514892578 30.2020378112793 C 132.4091644287109 30.05377960205078 133.1189575195312 29.86198806762695 133.8150634765625 29.62770843505859 C 134.69140625 29.33200836181641 135.5493927001953 28.98485946655273 136.3847198486328 28.58790969848633 C 136.7830352783203 28.4002571105957 137.1831817626953 28.20312881469727 137.5661010742188 28.00009918212891 Z M 145.1524658203125 30.46608734130859 L 145.1526031494141 30.46621704101562 C 145.1525421142578 30.46621322631836 145.1525268554688 30.46621322631836 145.1524658203125 30.46620559692383 L 145.1524658203125 30.46608734130859 Z" stroke="none" fill="#a77af6"/>
  </g>
  <path id="Path_2588" data-name="Path 2588" d="M6.629,9.854l1.985,1.985L12.7,7.753" transform="translate(-2.078 -1.844)" fill="none" stroke="#32146d" stroke-linecap="round" stroke-width="1"/>
</svg>
