<svg xmlns="http://www.w3.org/2000/svg" width="32" height="32" viewBox="0 0 32 32">
  <path id="search_FILL0_wght400_GRAD0_opsz48" d="M36.044,37.95,24.356,26.261a9.794,9.794,0,0,1-3.111,1.8,11,11,0,0,1-3.778.644,11.066,11.066,0,0,1-8.133-3.333A10.962,10.962,0,0,1,6,17.328,10.962,10.962,0,0,1,9.333,9.283,11.014,11.014,0,0,1,17.422,5.95a10.889,10.889,0,0,1,8.022,3.333,11,11,0,0,1,3.311,8.044,11.086,11.086,0,0,1-.622,3.689,11.281,11.281,0,0,1-1.867,3.333L38,35.994ZM17.422,26.039a8.317,8.317,0,0,0,6.133-2.556,8.427,8.427,0,0,0,2.533-6.156,8.427,8.427,0,0,0-2.533-6.156,8.317,8.317,0,0,0-6.133-2.556,8.442,8.442,0,0,0-6.2,2.556,8.39,8.39,0,0,0-2.556,6.156,8.39,8.39,0,0,0,2.556,6.156,8.442,8.442,0,0,0,6.2,2.556Z" transform="translate(-6 -5.95)" fill="#999"/>
</svg>
