<svg width="86" height="87" viewBox="0 0 86 87" fill="none" xmlns="http://www.w3.org/2000/svg">
<path d="M42.835 86.3358C19.212 86.3358 0 67.1237 0 43.5008C0 19.8778 19.212 0.665771 42.835 0.665771C66.4579 0.665771 85.6699 19.8778 85.6699 43.5008C85.6699 45.5161 84.0348 47.1512 82.0195 47.1512C80.0042 47.1512 78.3692 45.5161 78.3692 43.5008C78.3692 23.9085 62.4368 7.97605 42.8445 7.97605C23.2522 7.97605 7.31973 23.9085 7.31973 43.5008C7.31973 63.0931 23.2522 79.0255 42.8445 79.0255C52.3982 79.0255 61.3626 75.2895 68.0834 68.5021C69.5094 67.0667 71.8194 67.0572 73.2548 68.4736C74.6903 69.89 74.6997 72.2096 73.2833 73.645C65.1745 81.8298 54.3659 86.3358 42.8539 86.3358" fill="#361371"/>
<path d="M34.1858 62.6382C32.7866 62.6382 31.3874 62.1173 30.3259 61.0756L30.2487 60.9998L19.2383 49.5789C17.8295 48.1206 17.897 45.8099 19.383 44.4367C20.8691 43.0541 23.2236 43.1204 24.6229 44.5788L34.1858 54.5034L59.2366 29.1142C60.6647 27.6748 63.0096 27.6274 64.486 29.0289C65.9624 30.4305 65.9914 32.7318 64.5729 34.1712L38.0361 61.0756C36.9746 62.1173 35.5754 62.6382 34.1761 62.6382" fill="#A979F9"/>
</svg>
