<svg id="Group_93" data-name="Group 93" xmlns="http://www.w3.org/2000/svg" width="24.961" height="20.379" viewBox="0 0 24.961 20.379">
  <path id="Path_49" data-name="Path 49" d="M107.53,18.847a10.16,10.16,0,0,0,7.36-2.052,5.347,5.347,0,0,1-3.555-1.726,4.836,4.836,0,0,1-1.088-1.89,6.1,6.1,0,0,0,2.141-.08,5.2,5.2,0,0,1-3.938-5.094,6.213,6.213,0,0,0,2.225.6,5.272,5.272,0,0,1-2.077-3.14,5.192,5.192,0,0,1,.584-3.719,14.712,14.712,0,0,0,10.559,5.374c-.039-.285-.087-.538-.107-.793A5.167,5.167,0,0,1,124.3.834a5.016,5.016,0,0,1,4.043,1.4.488.488,0,0,0,.506.128,10.461,10.461,0,0,0,2.656-1.019c.071-.039.144-.075.217-.109h.087a5.379,5.379,0,0,1-2.025,2.736,13.012,13.012,0,0,0,2.707-.675,7.18,7.18,0,0,1-.591.778c-.572.581-1.167,1.14-1.767,1.7a.442.442,0,0,0-.182.381,14.609,14.609,0,0,1-2.02,7.832,14.009,14.009,0,0,1-5.244,5.32,14.249,14.249,0,0,1-6.2,1.838,14.914,14.914,0,0,1-5.472-.611A14.151,14.151,0,0,1,107.662,19c-.046-.027-.084-.062-.128-.091Z" transform="translate(-107.53 -0.806)" fill="#caabea"/>
</svg>
