<svg width="16" height="17" viewBox="0 0 16 17" fill="none" xmlns="http://www.w3.org/2000/svg">
<path d="M1.5 4.25H9.5C10.0304 4.25 10.5391 4.46071 10.9142 4.83579C11.2893 5.21086 11.5 5.71957 11.5 6.25V12.25C11.5 12.3826 11.4473 12.5098 11.3536 12.6036C11.2598 12.6973 11.1326 12.75 11 12.75H3C2.46957 12.75 1.96086 12.5393 1.58579 12.1642C1.21071 11.7891 1 11.2804 1 10.75V4.75C1 4.61739 1.05268 4.49021 1.14645 4.39645C1.24021 4.30268 1.36739 4.25 1.5 4.25V4.25Z" stroke="#361272" stroke-linecap="round" stroke-linejoin="round"/>
<path d="M11.5 7.5L15 5.5V11.5L11.5 9.5" stroke="#361272" stroke-linecap="round" stroke-linejoin="round"/>
</svg>
