<svg xmlns="http://www.w3.org/2000/svg" xmlns:xlink="http://www.w3.org/1999/xlink" width="182" height="182" viewBox="0 0 182 182">
  <defs>
    <filter id="Ellipse_9" x="0" y="0" width="182" height="182" filterUnits="userSpaceOnUse">
      <feOffset dy="4" input="SourceAlpha"/>
      <feGaussianBlur stdDeviation="15" result="blur"/>
      <feFlood flood-opacity="0.161"/>
      <feComposite operator="in" in2="blur"/>
      <feComposite in="SourceGraphic"/>
    </filter>
  </defs>
  <g id="Group_324" data-name="Group 324" transform="translate(-1655 -815)">
    <g transform="matrix(1, 0, 0, 1, 1655, 815)" filter="url(#Ellipse_9)">
      <circle id="Ellipse_9-2" data-name="Ellipse 9" cx="46" cy="46" r="46" transform="translate(45 41)" fill="#fff"/>
    </g>
    <path id="Icon_ionic-logo-whatsapp" data-name="Icon ionic-logo-whatsapp" d="M22.857,2.25A19.8,19.8,0,0,0,2.985,21.969,19.515,19.515,0,0,0,5.837,32.151L2.25,42.73l11-3.5A19.906,19.906,0,0,0,42.73,21.969,19.8,19.8,0,0,0,22.857,2.25Zm9.882,27.207c-.468,1.159-2.582,2.217-3.515,2.265s-.959.722-6.039-1.485-8.137-7.576-8.378-7.922a9.745,9.745,0,0,1-1.875-5.282A5.631,5.631,0,0,1,14.866,12.9a1.946,1.946,0,0,1,1.376-.579c.4-.007.659-.012.955,0s.74-.062,1.125.961,1.305,3.538,1.423,3.794a.921.921,0,0,1,.009.883,3.451,3.451,0,0,1-.539.821c-.265.284-.558.636-.794.854-.264.241-.539.5-.262,1.018a15.207,15.207,0,0,0,2.691,3.59,13.865,13.865,0,0,0,3.985,2.649c.5.271.8.241,1.1-.084s1.323-1.423,1.68-1.913.692-.4,1.151-.21,2.906,1.5,3.4,1.767.831.409.95.623A4.173,4.173,0,0,1,32.739,29.457Z" transform="translate(1723.51 879.51)" fill="#25d366"/>
  </g>
</svg>
