<svg id="Group_94" data-name="Group 94" xmlns="http://www.w3.org/2000/svg" width="31.438" height="21.743" viewBox="0 0 31.438 21.743">
  <path id="Path_50" data-name="Path 50" d="M251.256,23.107c-3.638-.121-7.29-.243-10.933-.378a8.566,8.566,0,0,1-1.991-.349,3.75,3.75,0,0,1-2.6-2.775,13.666,13.666,0,0,1-.507-3.638q-.08-3.754,0-7.518a14.638,14.638,0,0,1,.468-3.512,4.14,4.14,0,0,1,4.135-3.245c5.416-.315,10.834-.407,16.25-.243,1.894.061,3.788.148,5.683.226a4.424,4.424,0,0,1,3.4,1.472,4.382,4.382,0,0,1,.992,2.326c.2,1.7.373,3.412.434,5.122a48.919,48.919,0,0,1-.2,6.873,9.679,9.679,0,0,1-.623,2.738,3.618,3.618,0,0,1-3.209,2.416c-2.517.2-5.045.272-7.569.361-1.242.044-2.486.129-3.728.129Zm4.809-11.215-8.358-4.254V16.11Z" transform="translate(-235.185 -1.368)" fill="#caabea"/>
</svg>
