<svg id="svg" version="1.1" xmlns="http://www.w3.org/2000/svg" xmlns:xlink="http://www.w3.org/1999/xlink" width="400" height="256.25" viewBox="0, 0, 400,256.25"><g id="svgg"><path id="path0" d="M110.833 127.756 L 110.897 170.641 255.449 170.705 L 400.000 170.770 400.000 127.821 L 400.000 84.872 255.384 84.872 L 110.768 84.872 110.833 127.756 " stroke="none" fill="#fcfcfc" fill-rule="evenodd"></path><path id="path1" d="M110.769 213.590 L 110.769 256.410 255.385 256.410 L 400.000 256.410 400.000 213.590 L 400.000 170.769 255.385 170.769 L 110.769 170.769 110.769 213.590 " stroke="none" fill="#040404" fill-rule="evenodd"></path><path id="path2" d="M110.769 42.436 L 110.769 84.872 255.385 84.872 L 400.000 84.872 400.000 42.436 L 400.000 0.000 255.385 0.000 L 110.769 0.000 110.769 42.436 " stroke="none" fill="#049c04" fill-rule="evenodd"></path><path id="path3" d="M0.000 128.205 L 0.000 256.410 55.384 256.410 L 110.768 256.410 110.833 213.526 C 110.868 189.939,110.868 132.247,110.833 85.321 L 110.768 0.000 55.384 0.000 L 0.000 0.000 0.000 128.205 " stroke="none" fill="#fc0404" fill-rule="evenodd"></path></g></svg>