<svg width="40" height="40" viewBox="0 0 40 40" fill="none" xmlns="http://www.w3.org/2000/svg">
<g clip-path="url(#clip0_2443_8368)">
<path d="M40 -0.00012207H0V39.9999H40V-0.00012207Z" fill="#3B0C77"/>
<path d="M11.0064 32.1138C10.858 32.3207 10.6569 32.4828 10.4252 32.5869C9.98069 32.7874 9.15476 33.0126 8.31452 32.4782C7.33238 31.8541 7.26339 30.6826 7.27706 30.2244C7.28031 30.1046 7.23475 29.9881 7.15014 29.9035C6.78957 29.5416 5.88749 28.4612 6.38019 27.1127C6.43551 26.9624 6.40947 26.7938 6.30859 26.6688C5.90376 26.1664 4.98541 24.8068 5.70395 23.5487C5.77554 23.4237 5.77229 23.2688 5.69354 23.1484C5.34598 22.6154 4.5207 21.2304 5.86471 19.8968C6.01766 19.7452 6.06713 19.5193 5.99293 19.3176C5.74365 18.6407 5.41172 17.1177 7.12866 16.4545C7.29268 16.3908 7.40072 16.2339 7.40462 16.0575C7.42024 15.3468 7.70597 13.6318 10.1265 13.7998C10.2762 13.8102 10.4194 13.7418 10.5053 13.6188C10.8776 13.0845 12.0465 11.762 13.8969 12.9049C14.0557 13.0031 14.2516 13.0187 14.4221 12.9432C15.1094 12.6367 16.9455 12.0562 17.8378 14.0705C17.8976 14.2065 18.0389 14.2879 18.1866 14.2716C18.7314 14.2111 20.0285 14.2638 20.6527 15.9586C20.7184 16.1369 20.8831 16.2586 21.0725 16.2736C21.629 16.3179 22.9294 16.5795 23.1708 18.4084C23.1988 18.6186 23.37 18.7826 23.5815 18.8015C24.2187 18.8587 25.4352 19.1939 25.3876 20.9278C25.3824 21.1061 25.4827 21.2708 25.6434 21.3476C26.3053 21.6632 27.8654 22.6655 26.9835 24.8159C25.8803 27.5065 23.0049 24.8894 22.6235 24.2698C22.6235 24.2698 16.5914 13.8388 11.4763 17.3403C11.4763 17.3403 7.46645 19.4809 11.2088 29.2624C11.2075 29.2624 11.8799 30.8941 11.0064 32.1138Z" fill="white"/>
<path d="M9.40675 32.0448C9.39373 32.0409 9.38071 32.0364 9.36835 32.0318C9.35403 32.0266 9.33971 32.0214 9.32604 32.0162C9.31628 32.0123 9.30652 32.0084 9.29675 32.0045C9.2577 31.9895 9.31302 32.0123 9.29545 32.0038C9.177 31.9465 9.06114 31.8912 8.94985 31.8203C8.91731 31.7995 8.88541 31.778 8.85417 31.7558C8.83595 31.7428 8.81773 31.7298 8.80015 31.7161C8.77607 31.6973 8.79495 31.7122 8.80015 31.7161C8.78909 31.7077 8.77802 31.6986 8.76761 31.6901C8.69602 31.6315 8.62768 31.5678 8.56455 31.5001C8.44284 31.3692 8.32373 31.189 8.2593 31.0236C8.15516 30.7555 8.13303 30.4919 8.16297 30.2042C8.17208 30.117 8.08161 30.0415 8.00026 30.0415C7.90458 30.0415 7.84666 30.1164 7.83754 30.2042C7.78287 30.7295 7.92541 31.241 8.2632 31.6491C8.48384 31.916 8.77933 32.1262 9.09369 32.2687C9.16723 32.3019 9.24273 32.3351 9.32018 32.3592C9.52065 32.4204 9.60656 32.106 9.40675 32.0448Z" fill="#AF75FF"/>
<path d="M7.79908 29.1812C7.76719 29.1525 7.73725 29.1213 7.70796 29.09C7.67607 29.0556 7.64483 29.0198 7.61489 28.9833C7.60513 28.9716 7.59602 28.9599 7.58691 28.9482C7.56803 28.9241 7.59797 28.9631 7.5791 28.9377C7.55892 28.9104 7.53874 28.8824 7.51922 28.8544C7.33958 28.5928 7.21332 28.3032 7.19509 27.9875C7.18273 27.7662 7.22178 27.5449 7.31094 27.3412C7.34609 27.2605 7.33438 27.1668 7.25237 27.1186C7.18338 27.0783 7.06492 27.0958 7.02978 27.1772C6.85014 27.5892 6.81695 28.0376 6.96144 28.4659C7.06232 28.7653 7.22959 29.0386 7.43786 29.2755C7.47952 29.3224 7.52182 29.3693 7.56868 29.4109C7.72489 29.5502 7.95594 29.3211 7.79908 29.1812Z" fill="#AF75FF"/>
<path d="M6.93663 25.9705C6.90539 25.9393 6.8761 25.9054 6.84812 25.8716C6.8338 25.854 6.81948 25.8371 6.80516 25.8195C6.7954 25.8072 6.78499 25.7935 6.80126 25.815C6.79214 25.8032 6.78303 25.7915 6.77457 25.7792C6.73552 25.7264 6.69777 25.6718 6.66262 25.6158C6.48494 25.3366 6.35412 25.0294 6.32613 24.6942C6.30661 24.4586 6.33785 24.2308 6.4153 24.0075C6.44394 23.9249 6.38211 23.8299 6.3014 23.8071C6.21158 23.7824 6.13023 23.8377 6.10094 23.921C5.8393 24.6708 6.10159 25.4602 6.58127 26.0577C6.62032 26.1065 6.66132 26.156 6.70558 26.2003C6.85463 26.3487 7.08503 26.1189 6.93663 25.9705Z" fill="#AF75FF"/>
<path d="M6.36214 22.648C6.33611 22.6024 6.31398 22.5549 6.2925 22.5074C6.28794 22.497 6.28274 22.4859 6.27818 22.4749C6.26061 22.4345 6.28274 22.4872 6.27297 22.4625C6.26126 22.4332 6.24954 22.4046 6.23848 22.3753C6.21179 22.3043 6.18836 22.2327 6.16754 22.1605C6.06665 21.8103 6.03281 21.4465 6.1376 21.0912C6.20919 20.8477 6.34782 20.6369 6.52941 20.4611C6.68041 20.3153 6.45001 20.0849 6.29901 20.2307C5.93779 20.5802 5.74709 21.0508 5.74904 21.5526C5.75034 21.9184 5.84276 22.279 5.98595 22.6141C6.01459 22.6812 6.04453 22.7482 6.08032 22.812C6.18446 22.9942 6.46563 22.8302 6.36214 22.648Z" fill="#AF75FF"/>
<path d="M6.8079 19.2168C6.78642 19.1621 6.77015 19.1055 6.75518 19.0489C6.73891 18.987 6.72459 18.9245 6.71287 18.8614C6.70962 18.8425 6.70636 18.8237 6.70311 18.8048C6.70116 18.7924 6.69335 18.7332 6.69986 18.7827C6.69465 18.7404 6.69009 18.6974 6.68684 18.6551C6.68033 18.5659 6.67903 18.4768 6.68424 18.3882C6.68554 18.3635 6.68749 18.3388 6.69009 18.3147C6.69139 18.303 6.70051 18.2307 6.69465 18.2698C6.70246 18.219 6.71157 18.1683 6.72394 18.1181C6.77275 17.9164 6.85931 17.7328 6.98493 17.5831C7.18734 17.3417 7.45354 17.1842 7.75293 17.0768C7.83559 17.0468 7.89091 16.9661 7.86683 16.8763C7.8447 16.7963 7.74968 16.7331 7.66637 16.7624C7.10664 16.9635 6.62761 17.3371 6.44147 17.919C6.32301 18.2893 6.33603 18.6968 6.4252 19.0723C6.44342 19.1497 6.46425 19.2285 6.49419 19.3027C6.52673 19.3841 6.60288 19.4413 6.69465 19.4166C6.7721 19.3958 6.84044 19.2988 6.8079 19.2168Z" fill="#AF75FF"/>
<path d="M8.27486 16.4312C8.2677 16.3707 8.2677 16.3089 8.26835 16.2477C8.26965 16.18 8.27355 16.113 8.28136 16.0459C8.28201 16.0368 8.28332 16.0284 8.28462 16.0192C8.28787 15.9867 8.28201 16.0368 8.28332 16.0258C8.28657 16.0036 8.28982 15.9815 8.29373 15.96C8.30089 15.9171 8.31 15.8735 8.31976 15.8311C8.34189 15.7394 8.37053 15.6502 8.40503 15.5623C8.41544 15.535 8.39201 15.5903 8.40893 15.5526C8.41414 15.5415 8.41869 15.5311 8.42325 15.52C8.43431 15.4966 8.44538 15.4732 8.45774 15.4504C8.48248 15.4029 8.50981 15.3567 8.5391 15.3118C8.55342 15.2903 8.56774 15.2701 8.58271 15.2493C8.58661 15.2441 8.59052 15.2389 8.59442 15.2337C8.60874 15.2148 8.5775 15.2545 8.59247 15.2356C8.60223 15.2239 8.61134 15.2115 8.62176 15.2005C8.65951 15.1556 8.69986 15.1133 8.74282 15.0736C8.76299 15.0547 8.78447 15.0358 8.80595 15.0182C8.81701 15.0091 8.82808 15 8.83914 14.9915C8.81636 15.0098 8.85086 14.9831 8.85867 14.9779C8.91204 14.9395 8.96801 14.9043 9.02529 14.8731C9.06043 14.8536 9.09623 14.836 9.13268 14.8191C9.14049 14.8158 9.14765 14.8126 9.15546 14.8087C9.18084 14.7976 9.13658 14.8158 9.16262 14.8054C9.18084 14.7976 9.19971 14.7904 9.21859 14.7833C9.30125 14.7527 9.38521 14.7273 9.47112 14.7071C9.67223 14.6596 9.87204 14.6427 10.0803 14.6407C10.2899 14.6388 10.2899 14.3134 10.0803 14.3153C9.43923 14.3212 8.76234 14.4963 8.35035 15.0215C8.09066 15.3528 7.9644 15.7635 7.94487 16.1807C7.94097 16.264 7.93967 16.3486 7.94878 16.4312C7.95854 16.5184 8.01647 16.5939 8.11149 16.5939C8.1922 16.5939 8.28462 16.5191 8.27486 16.4312Z" fill="#AF75FF"/>
<path d="M11.0385 14.3309C11.0541 14.3101 11.0066 14.37 11.0229 14.3511C11.0326 14.34 11.0418 14.3277 11.0509 14.3159C11.0841 14.2756 11.1186 14.2372 11.1537 14.1988C11.2058 14.1428 11.2604 14.0888 11.3171 14.0367C11.349 14.0074 11.3815 13.9788 11.4147 13.9508C11.4323 13.9358 11.4498 13.9215 11.4681 13.9066C11.4791 13.8974 11.4902 13.889 11.5013 13.8799C11.5286 13.8584 11.4837 13.8929 11.5143 13.8701C11.6015 13.8057 11.6913 13.7445 11.785 13.6905C11.8866 13.6319 11.9874 13.5831 12.0786 13.5492C12.3239 13.4575 12.5465 13.421 12.8049 13.4418C13.1388 13.4692 13.4694 13.6273 13.7473 13.8284C13.8183 13.8799 13.9289 13.8408 13.9699 13.7699C14.0181 13.6879 13.983 13.5987 13.9114 13.5473C13.3803 13.1633 12.7249 12.9999 12.0903 13.201C11.6601 13.3371 11.2767 13.6046 10.9643 13.9261C10.8908 14.0016 10.8205 14.0816 10.7573 14.1662C10.7046 14.2365 10.7456 14.3478 10.8159 14.3888C10.8986 14.4383 10.9858 14.4018 11.0385 14.3309Z" fill="#AF75FF"/>
<path d="M14.7771 13.8539C14.7921 13.8454 14.8071 13.8376 14.8227 13.8298C14.839 13.822 14.8546 13.8142 14.8709 13.8064C14.8884 13.7979 14.9639 13.7667 14.9106 13.7881C15.0479 13.7328 15.1885 13.6866 15.3336 13.656C15.3772 13.6469 15.4208 13.6391 15.4651 13.6326C15.4228 13.6391 15.4898 13.63 15.5002 13.6287C15.5269 13.6261 15.5543 13.6235 15.5809 13.6222C15.6799 13.6163 15.7788 13.6189 15.8771 13.63C15.9252 13.6352 15.8439 13.6241 15.892 13.6319C15.9018 13.6332 15.9116 13.6352 15.9213 13.6365C15.9461 13.6411 15.9701 13.6456 15.9942 13.6508C16.0515 13.6638 16.1081 13.6801 16.1634 13.7003C16.2162 13.7192 16.2305 13.725 16.293 13.7576C16.3476 13.7862 16.401 13.8181 16.4518 13.8532C16.703 14.0277 16.9002 14.3218 17.0356 14.6128C17.0727 14.6922 17.1872 14.7124 17.2582 14.6713C17.3395 14.6238 17.3539 14.5288 17.3168 14.4488C17.0668 13.9131 16.6379 13.4458 16.0372 13.3286C15.6473 13.2525 15.2386 13.3111 14.8709 13.4556C14.7836 13.4901 14.6945 13.5265 14.6131 13.5727C14.4309 13.6768 14.5949 13.958 14.7771 13.8539Z" fill="#AF75FF"/>
<path d="M20.2441 16.4227C20.1803 16.1956 20.069 15.973 19.9434 15.7745C19.6856 15.3683 19.3146 15.0318 18.848 14.89C18.5095 14.7871 18.1496 14.7995 17.8066 14.8756C17.6022 14.9212 17.6888 15.2349 17.8932 15.1893C18.1646 15.1288 18.4425 15.1204 18.6963 15.1854C18.9033 15.2388 19.1122 15.3501 19.26 15.4744C19.3407 15.5421 19.4149 15.6163 19.4839 15.6957C19.5021 15.7165 19.519 15.738 19.5366 15.7588C19.5424 15.766 19.5476 15.7732 19.5535 15.7803C19.5301 15.7504 19.5574 15.7855 19.5607 15.7901C19.5886 15.8285 19.616 15.8675 19.6427 15.9072C19.7299 16.04 19.8021 16.1812 19.8659 16.3264C19.8431 16.2743 19.8659 16.327 19.8711 16.3401C19.877 16.3557 19.8835 16.3713 19.8893 16.3869C19.8972 16.4084 19.905 16.4299 19.9121 16.4513C19.9186 16.4709 19.9251 16.4904 19.931 16.5099C19.987 16.7104 20.3007 16.6251 20.2441 16.4227Z" fill="#AF75FF"/>
<path d="M20.4877 17.0755C20.5046 17.0761 20.5215 17.0781 20.5384 17.08C20.5456 17.0807 20.5534 17.082 20.5606 17.0826C20.6042 17.0872 20.5417 17.0794 20.5547 17.082C20.5807 17.0866 20.6074 17.0898 20.6335 17.0944C20.7864 17.121 20.9374 17.1607 21.0838 17.2135C21.1268 17.2284 21.1691 17.2454 21.2114 17.2623C21.1743 17.2467 21.2446 17.2772 21.2557 17.2825C21.2798 17.2935 21.3045 17.3052 21.3279 17.317C21.4275 17.3664 21.5238 17.4224 21.6149 17.4849C21.6377 17.5005 21.6598 17.5161 21.6813 17.5324C21.6833 17.5337 21.7223 17.5643 21.6963 17.5434C21.708 17.5526 21.7204 17.5623 21.7321 17.5721C21.7803 17.6118 21.8271 17.6534 21.8714 17.6977C21.9651 17.7901 22.0354 17.8734 22.1005 17.9698C22.2912 18.2509 22.4018 18.5653 22.4461 18.9057C22.4578 18.9929 22.5125 19.0684 22.6088 19.0684C22.6875 19.0684 22.7832 18.9935 22.7715 18.9057C22.6869 18.26 22.4038 17.6788 21.8805 17.2786C21.5564 17.0306 21.1646 16.8659 20.7643 16.7891C20.6725 16.7715 20.5794 16.7559 20.4864 16.7507C20.2787 16.7383 20.2794 17.0638 20.4877 17.0755Z" fill="#AF75FF"/>
<path d="M23.156 19.5767C23.1697 19.5767 23.184 19.578 23.1977 19.5787C23.2133 19.58 23.2283 19.5813 23.2439 19.5826C23.2537 19.5839 23.2628 19.5845 23.2725 19.5858C23.3162 19.5904 23.2413 19.5806 23.2712 19.5858C23.3969 19.6073 23.5199 19.634 23.6403 19.6769C23.6578 19.6834 23.6748 19.69 23.6923 19.6965C23.6995 19.6991 23.7067 19.7023 23.7132 19.7049C23.7503 19.7192 23.68 19.69 23.7171 19.7062C23.7555 19.7231 23.7932 19.7414 23.8297 19.7609C23.8642 19.7791 23.8987 19.7993 23.9319 19.8201C23.9501 19.8312 23.9677 19.8436 23.9852 19.8553C23.9956 19.8624 24.0061 19.8702 24.0171 19.878C24.0236 19.8826 24.0549 19.9073 24.0262 19.8846C24.1017 19.9451 24.1701 20.0128 24.2325 20.0863C24.2384 20.0935 24.2449 20.1013 24.2508 20.1091C24.2293 20.0811 24.2586 20.1202 24.2605 20.1228C24.2736 20.141 24.2859 20.1592 24.2983 20.1781C24.3276 20.2236 24.3543 20.2712 24.3783 20.32C24.4063 20.3773 24.4193 20.4098 24.4421 20.4827C24.4623 20.5465 24.4786 20.6116 24.4909 20.6773C24.5196 20.8283 24.5254 20.9995 24.5176 21.1635C24.5085 21.3731 24.8339 21.3724 24.843 21.1635C24.8665 20.6311 24.7311 20.0772 24.3224 19.7101C24.0659 19.4791 23.7366 19.3346 23.3975 19.278C23.3181 19.2649 23.2361 19.2519 23.1554 19.2506C22.9471 19.248 22.9465 19.5734 23.156 19.5767Z" fill="#AF75FF"/>
<path d="M25.2659 22.3173C25.316 22.3355 25.2275 22.2984 25.2744 22.3206C25.3121 22.3381 25.3492 22.3557 25.3857 22.3759C25.439 22.4052 25.4911 22.4364 25.5412 22.4703C25.5711 22.4904 25.6004 22.5119 25.6297 22.5334C25.5959 22.508 25.6343 22.5373 25.6466 22.5471C25.6636 22.5607 25.6805 22.5751 25.6968 22.5894C25.7625 22.6473 25.8243 22.7091 25.881 22.7762C25.8888 22.7853 25.9343 22.8432 25.9115 22.8133C25.9246 22.8308 25.9376 22.8484 25.9499 22.8666C25.9799 22.9096 26.0072 22.9538 26.0326 22.9994C26.1315 23.1771 26.1966 23.4029 26.2096 23.6106C26.2318 23.9698 26.1439 24.3148 26.0124 24.6493C25.9805 24.7313 26.0476 24.8276 26.1263 24.8498C26.2187 24.8752 26.2942 24.8185 26.3268 24.7359C26.5559 24.1534 26.6372 23.496 26.3567 22.9167C26.194 22.5796 25.9122 22.3023 25.5894 22.1169C25.5139 22.0739 25.4351 22.0342 25.3531 22.0036C25.2705 21.973 25.1748 22.0374 25.1526 22.1175C25.1273 22.208 25.1832 22.2867 25.2659 22.3173Z" fill="#AF75FF"/>
<path d="M17.7957 23.121C17.5581 23.2109 17.3004 23.2343 17.0498 23.1933C16.5688 23.1139 15.7559 22.8438 15.3524 21.9339C14.8805 20.8704 15.4715 19.8571 15.737 19.4828C15.8067 19.3852 15.8327 19.2629 15.8093 19.1451C15.7097 18.6439 15.5568 17.2446 16.714 16.3946C16.8428 16.2996 16.9151 16.1453 16.9001 15.9859C16.8415 15.3428 16.8298 13.7021 18.125 13.0532C18.2539 12.9888 18.3365 12.8579 18.3378 12.7141C18.3437 12.0776 18.4244 10.4674 20.2813 10.1023C20.4922 10.0606 20.6588 9.89986 20.7089 9.69094C20.8762 8.98934 21.4437 7.53731 23.2407 7.93628C23.4125 7.97468 23.5896 7.90308 23.6904 7.7586C24.0972 7.17544 25.285 5.90631 27.207 7.38632C27.3254 7.47743 27.483 7.50021 27.6222 7.44554C28.2282 7.20669 29.9341 6.75305 30.8413 8.72965C30.9194 8.89887 31.0737 9.02123 31.2572 9.05247C31.9992 9.17808 33.8496 9.71112 33.4766 11.883C33.4513 12.0294 33.5235 12.1759 33.6556 12.2435C34.1425 12.4954 35.1936 13.2569 34.7744 15.0135C34.7302 15.1984 34.7998 15.391 34.9489 15.5082C35.3875 15.8531 36.3254 16.7916 35.5138 18.448C35.4207 18.6387 35.4722 18.8697 35.6381 19.0025C36.1367 19.4028 36.9639 20.3556 35.9642 21.7731C35.8614 21.9189 35.8529 22.1116 35.9447 22.2645C36.3209 22.8939 37.0648 24.5926 35.1396 25.8943C32.7308 27.5233 31.7864 23.7517 31.8118 23.0247C31.8118 23.0247 32.5674 10.9985 26.3693 11.0805C26.3693 11.0805 21.8453 10.6412 19.5432 20.8587C19.5426 20.8581 19.1989 22.5893 17.7957 23.121Z" fill="white"/>
<path d="M16.4944 22.1688C16.4729 22.1428 16.5243 22.2098 16.4918 22.1649C16.4703 22.135 16.4488 22.1044 16.4287 22.0731C16.3577 21.9651 16.2972 21.8505 16.2438 21.7327C16.2334 21.7093 16.2256 21.6904 16.2106 21.6514C16.1957 21.611 16.1813 21.5707 16.1683 21.5297C16.141 21.4418 16.1189 21.3526 16.1032 21.2622C16.0733 21.0864 16.0733 20.8866 16.1104 20.705C16.1657 20.4362 16.2926 20.1915 16.4664 19.98C16.5224 19.9123 16.5328 19.816 16.4664 19.7496C16.4091 19.6923 16.2926 19.6812 16.236 19.7496C15.9028 20.1544 15.7114 20.653 15.7661 21.1815C15.8038 21.5414 15.9295 21.8889 16.1208 22.1955C16.1644 22.2658 16.2119 22.3341 16.264 22.3986C16.32 22.4669 16.4365 22.4565 16.4944 22.3986C16.5614 22.3315 16.5504 22.2371 16.4944 22.1688Z" fill="#AF75FF"/>
<path d="M16.7474 18.8912C16.7363 18.8496 16.7291 18.806 16.722 18.7637C16.7207 18.7539 16.7187 18.7435 16.7174 18.7337C16.7116 18.6992 16.7181 18.7389 16.7174 18.7344C16.7142 18.7077 16.7109 18.681 16.7083 18.6537C16.7024 18.5905 16.6992 18.5268 16.6979 18.463C16.694 18.1493 16.7493 17.846 16.912 17.5687C17.0246 17.3767 17.1828 17.2172 17.3728 17.0949C17.5486 16.9816 17.3852 16.6998 17.2088 16.8137C16.8313 17.0571 16.5606 17.4203 16.4447 17.8551C16.3634 18.1616 16.3555 18.4831 16.3998 18.7962C16.4083 18.8567 16.4174 18.9179 16.433 18.9771C16.4864 19.1802 16.8001 19.0943 16.7474 18.8912Z" fill="#AF75FF"/>
<path d="M17.8079 15.7405C17.8053 15.7294 17.804 15.7177 17.802 15.706C17.8001 15.693 17.7994 15.6793 17.7962 15.6669C17.7955 15.6637 17.8014 15.7118 17.7975 15.678C17.7962 15.6669 17.7949 15.6559 17.7936 15.6448C17.7812 15.5309 17.7767 15.4157 17.7786 15.3012C17.7819 15.1319 17.7949 15.0109 17.8281 14.8566C17.8665 14.6783 17.9218 14.5149 18.0057 14.3594C18.1125 14.1609 18.2589 13.9832 18.4392 13.8465C18.5095 13.7938 18.546 13.7059 18.4978 13.6239C18.4574 13.5549 18.3455 13.512 18.2752 13.5653C17.9101 13.8413 17.6575 14.2207 17.5397 14.664C17.4584 14.9692 17.435 15.294 17.4642 15.6077C17.4714 15.6806 17.4792 15.7548 17.4935 15.8264C17.5111 15.9123 17.6133 15.9624 17.694 15.9403C17.7838 15.9162 17.8255 15.827 17.8079 15.7405Z" fill="#AF75FF"/>
<path d="M19.1726 12.6574C19.1739 12.6431 19.1752 12.6288 19.1765 12.6145C19.1772 12.6073 19.1785 12.6001 19.1791 12.593C19.183 12.5546 19.1739 12.6242 19.1778 12.604C19.1817 12.5813 19.1843 12.5585 19.1882 12.5357C19.2104 12.4029 19.2423 12.2721 19.2833 12.1439C19.2956 12.1055 19.3086 12.0677 19.3223 12.03C19.3295 12.0105 19.3366 11.9909 19.3444 11.9714C19.349 11.9604 19.3529 11.9493 19.3575 11.9382C19.3705 11.9057 19.3477 11.9597 19.3633 11.9239C19.3998 11.8413 19.4401 11.7605 19.4857 11.6824C19.5905 11.5035 19.6972 11.3694 19.8651 11.2308C20.0441 11.083 20.2849 10.9815 20.5342 10.9359C20.6208 10.9203 20.6696 10.8149 20.6481 10.7355C20.6234 10.6443 20.5348 10.6059 20.4476 10.6216C19.9523 10.712 19.5377 11.0062 19.2624 11.4247C19.0691 11.7182 18.9455 12.0619 18.8817 12.4062C18.8667 12.4888 18.853 12.5722 18.8465 12.6561C18.84 12.744 18.9259 12.8188 19.0093 12.8188C19.1036 12.8201 19.1668 12.7459 19.1726 12.6574Z" fill="#AF75FF"/>
<path d="M21.4468 10.0495C21.4591 9.99227 21.4767 9.93564 21.4956 9.87967C21.5047 9.85234 21.5151 9.82435 21.5249 9.79766C21.5301 9.784 21.5353 9.77033 21.5411 9.75666C21.5444 9.7482 21.5483 9.73974 21.5515 9.73063C21.5633 9.70134 21.5353 9.76642 21.5522 9.72932C21.586 9.65578 21.6205 9.58353 21.6602 9.51259C21.7045 9.43449 21.7533 9.35964 21.8067 9.28805C21.8327 9.25355 21.7852 9.31408 21.8125 9.28024C21.821 9.26982 21.8288 9.26006 21.8373 9.2503C21.8516 9.23338 21.8653 9.21711 21.8802 9.20018C21.916 9.15983 21.9538 9.12143 21.9935 9.08498C22.1315 8.95742 22.3163 8.84807 22.5037 8.79275C22.7966 8.70554 23.1123 8.72311 23.424 8.80056C23.6271 8.85068 23.7143 8.53697 23.5106 8.48685C22.9294 8.34301 22.3248 8.39833 21.8477 8.78299C21.545 9.02706 21.3361 9.37266 21.2027 9.73453C21.1754 9.80873 21.1493 9.88488 21.1331 9.96298C21.0894 10.1673 21.4032 10.2546 21.4468 10.0495Z" fill="#AF75FF"/>
<path d="M24.2134 8.5422C24.2421 8.48688 24.2766 8.4335 24.3124 8.38209C24.328 8.35931 24.3449 8.33653 24.3612 8.3144C24.367 8.30594 24.3879 8.2799 24.3579 8.3183C24.3638 8.31049 24.3696 8.30333 24.3755 8.29552C24.3879 8.2799 24.4009 8.26428 24.4139 8.24866C24.4673 8.18553 24.5245 8.125 24.5844 8.06903C24.6176 8.03779 24.6528 8.00785 24.6879 7.97856C24.7231 7.94927 24.6794 7.98312 24.7165 7.95643C24.738 7.94081 24.7595 7.92519 24.7816 7.91022C24.8623 7.85555 24.9756 7.79372 25.0452 7.76443C25.2522 7.67787 25.4696 7.64663 25.7097 7.6681C26.0514 7.69869 26.4101 7.86857 26.7108 8.06382C26.8865 8.17837 27.0498 7.89655 26.8748 7.78265C26.3365 7.4325 25.6694 7.20535 25.0355 7.42143C24.6391 7.55681 24.3143 7.83017 24.0683 8.1634C24.0182 8.23109 23.9694 8.30203 23.931 8.37688C23.8372 8.56433 24.1184 8.72899 24.2134 8.5422Z" fill="#AF75FF"/>
<path d="M27.6441 8.34369C27.7105 8.32026 27.7789 8.30268 27.8472 8.28641C27.9214 8.26884 27.9956 8.25387 28.0711 8.2415C28.0926 8.23825 28.114 8.23499 28.1355 8.23174C28.1746 8.22588 28.0971 8.2363 28.1368 8.23174C28.1485 8.23044 28.1596 8.22914 28.1713 8.22783C28.2234 8.22198 28.2761 8.21742 28.3288 8.21417C28.4343 8.20766 28.541 8.20701 28.6464 8.21352C28.7024 8.21677 28.7584 8.22198 28.8144 8.22914C28.7753 8.22393 28.8228 8.23044 28.828 8.23174C28.8423 8.23434 28.8567 8.2363 28.871 8.2389C28.9048 8.24476 28.938 8.25192 28.9712 8.25907C29.0246 8.27144 29.0773 8.28576 29.1294 8.30203C29.158 8.31114 29.1866 8.32091 29.2153 8.33132C29.2296 8.33653 29.2439 8.34238 29.2582 8.34759C29.2758 8.35475 29.2771 8.3554 29.2621 8.34889C29.2719 8.3528 29.281 8.35735 29.2908 8.36126C29.3481 8.38794 29.404 8.41593 29.4587 8.44847C29.4867 8.46474 29.514 8.48232 29.5407 8.49989C29.5544 8.509 29.568 8.51811 29.5811 8.52788C29.5856 8.53113 29.6318 8.56628 29.6142 8.55261C29.8889 8.76869 30.0737 9.05767 30.1961 9.387C30.2267 9.46901 30.3061 9.52563 30.3966 9.5009C30.476 9.47942 30.5411 9.38375 30.5105 9.30044C30.3855 8.9659 30.2059 8.64959 29.9416 8.40552C29.7262 8.20701 29.4678 8.06252 29.1879 7.97856C28.7506 7.84709 28.2755 7.8614 27.8322 7.95578C27.7405 7.9753 27.648 7.99743 27.5595 8.02932C27.4769 8.05861 27.4215 8.13997 27.4456 8.22979C27.4664 8.30984 27.5615 8.37362 27.6441 8.34369Z" fill="#AF75FF"/>
<path d="M31.0592 10.0065C31.0755 10.0078 31.0918 10.0098 31.108 10.0117C31.1491 10.0157 31.0807 10.0072 31.0957 10.0098C31.1061 10.0117 31.1172 10.013 31.1276 10.0144C31.153 10.0183 31.179 10.0228 31.2044 10.0274C31.3482 10.0547 31.4894 10.0957 31.6255 10.1497C31.6359 10.1536 31.6463 10.1582 31.6567 10.1621C31.6151 10.1452 31.6515 10.1601 31.6593 10.1634C31.6801 10.1732 31.7016 10.1823 31.7225 10.1927C31.7654 10.2135 31.8084 10.2356 31.8494 10.2597C31.8904 10.2838 31.9307 10.3092 31.9704 10.3359C31.99 10.3489 32.0088 10.3626 32.027 10.3769C32.0615 10.4029 32.001 10.3554 32.0349 10.3834C32.0485 10.3944 32.0615 10.4055 32.0746 10.4166C32.1117 10.4485 32.1468 10.4817 32.1807 10.5168C32.1995 10.5363 32.2177 10.5565 32.2353 10.5773C32.2444 10.5877 32.2529 10.5982 32.262 10.6092C32.2737 10.6235 32.2737 10.6235 32.262 10.6092C32.2679 10.6164 32.2731 10.6242 32.2789 10.632C32.3095 10.675 32.3382 10.7186 32.3642 10.7641C32.3785 10.7902 32.3928 10.8162 32.4058 10.8429C32.4124 10.8566 32.4189 10.8702 32.4254 10.8839C32.4397 10.9151 32.4189 10.8663 32.4332 10.9015C32.5542 11.2106 32.5673 11.5211 32.5165 11.855C32.5035 11.9415 32.5386 12.03 32.6304 12.0554C32.7072 12.0762 32.8172 12.0294 32.8309 11.9415C32.9226 11.3395 32.8361 10.7095 32.3889 10.263C32.1078 9.98246 31.729 9.80738 31.3443 9.72407C31.2512 9.70389 31.1562 9.68697 31.0612 9.68046C30.9733 9.67461 30.8985 9.75922 30.8985 9.84318C30.8965 9.9369 30.9707 10.0007 31.0592 10.0065Z" fill="#AF75FF"/>
<path d="M34.1812 15.1658C34.2547 14.9393 34.2834 14.6893 34.2879 14.4524C34.2977 13.9714 34.1682 13.495 33.8603 13.1188C33.6358 12.8442 33.3259 12.6587 32.9986 12.5324C32.9166 12.5005 32.8202 12.5676 32.7981 12.6463C32.7727 12.7381 32.8294 12.8149 32.912 12.8468C33.173 12.947 33.4021 13.0915 33.5856 13.2972C33.7269 13.4553 33.8297 13.6525 33.8889 13.8556C33.9026 13.9031 33.915 13.9519 33.9247 14.0001C33.9299 14.0242 33.9338 14.0476 33.9384 14.0717C33.941 14.086 33.943 14.1003 33.9449 14.1146C33.9508 14.1543 33.9423 14.0919 33.9469 14.1283C33.9586 14.2272 33.9638 14.3275 33.9625 14.427C33.9618 14.5117 33.9566 14.5969 33.9475 14.6809C33.9456 14.6991 33.943 14.7173 33.941 14.7355C33.9364 14.7733 33.9475 14.6971 33.941 14.7336C33.9397 14.7421 33.9384 14.7505 33.9371 14.7583C33.9319 14.7922 33.926 14.826 33.9195 14.8592C33.9052 14.9328 33.8896 15.0076 33.8662 15.0792C33.8024 15.279 34.1161 15.3643 34.1812 15.1658Z" fill="#AF75FF"/>
<path d="M34.0278 15.8569C33.9809 15.8218 34.0108 15.8433 34.0356 15.8647C34.0707 15.894 34.1039 15.9246 34.1371 15.9559C34.1866 16.0027 34.2341 16.0515 34.2796 16.1016C34.307 16.1322 34.3337 16.1628 34.3603 16.1941C34.3727 16.209 34.3851 16.2246 34.3974 16.2403C34.4027 16.2468 34.4215 16.2709 34.4014 16.2448C34.4098 16.2559 34.4183 16.267 34.4267 16.278C34.486 16.3581 34.5413 16.4414 34.5914 16.5279C34.6428 16.6165 34.6981 16.7291 34.7268 16.8013C34.8192 17.0343 34.8667 17.2621 34.8687 17.5036C34.8713 17.84 34.7808 18.1681 34.6337 18.4694C34.5953 18.5482 34.6122 18.6451 34.6923 18.692C34.7639 18.7336 34.8758 18.7128 34.9149 18.6334C35.1941 18.0639 35.2852 17.4209 35.0769 16.813C34.9416 16.4166 34.7046 16.0574 34.4079 15.7639C34.3402 15.6968 34.2692 15.6337 34.1931 15.5764C34.1228 15.5237 34.0115 15.5653 33.9705 15.635C33.9204 15.717 33.9568 15.8036 34.0278 15.8569Z" fill="#AF75FF"/>
<path d="M34.864 19.4171C34.8803 19.4282 34.9128 19.4627 34.8679 19.4191C34.8946 19.4451 34.9265 19.4666 34.9538 19.4913C34.9961 19.529 35.0365 19.5688 35.0749 19.6098C35.0964 19.6332 35.1178 19.6566 35.138 19.6807C35.1491 19.6937 35.1595 19.7067 35.1699 19.7197C35.1732 19.7237 35.1901 19.7451 35.1771 19.7289C35.1634 19.7113 35.1862 19.7406 35.1888 19.7438C35.2363 19.8089 35.2806 19.8766 35.319 19.9475C35.3385 19.9833 35.3561 20.0198 35.373 20.0569C35.3749 20.0608 35.3847 20.0855 35.3749 20.0614C35.3788 20.0712 35.3827 20.081 35.3866 20.0907C35.3951 20.1135 35.4036 20.1356 35.4107 20.1591C35.4693 20.3387 35.4875 20.5125 35.4634 20.6947C35.4231 20.9909 35.2786 21.2584 35.1048 21.4966C35.0528 21.5675 35.0931 21.6782 35.1634 21.7192C35.2461 21.7673 35.3339 21.7322 35.386 21.6606C35.7023 21.2271 35.8871 20.6934 35.7505 20.1591C35.6652 19.8265 35.4654 19.5251 35.2168 19.2915C35.1575 19.2362 35.0951 19.1821 35.028 19.1366C34.9558 19.0865 34.8477 19.1229 34.8054 19.1952C34.7586 19.2752 34.7918 19.3676 34.864 19.4171Z" fill="#AF75FF"/>
<path d="M35.077 22.8379C35.1096 22.8828 35.1369 22.9316 35.1629 22.9798C35.1753 23.0026 35.187 23.026 35.1981 23.0488C35.2053 23.0631 35.2118 23.0781 35.2183 23.0924C35.2235 23.1041 35.2443 23.1549 35.2267 23.1106C35.2547 23.1796 35.2795 23.2499 35.2996 23.3221C35.3107 23.3625 35.3211 23.4028 35.3296 23.4438C35.3335 23.464 35.3374 23.4842 35.3413 23.5044C35.3432 23.5161 35.3452 23.5271 35.3471 23.5389C35.3484 23.5486 35.3452 23.5174 35.3491 23.5525C35.3595 23.6508 35.3634 23.7491 35.3563 23.848C35.355 23.8721 35.3524 23.8962 35.3497 23.9203C35.3465 23.9509 35.3563 23.8819 35.3478 23.9339C35.3458 23.945 35.3445 23.9561 35.3426 23.9665C35.3328 24.0231 35.3198 24.0791 35.3042 24.1337C35.2703 24.2496 35.2339 24.3362 35.1747 24.4416C35.0022 24.7507 34.7373 24.9981 34.449 25.1992C34.3767 25.2493 34.3435 25.3417 34.3904 25.4218C34.432 25.4927 34.5407 25.5305 34.613 25.4804C35.1187 25.1276 35.5723 24.6368 35.6641 24.0036C35.7207 23.6124 35.6459 23.2206 35.4715 22.8685C35.4383 22.8014 35.4025 22.7338 35.3582 22.6732C35.3068 22.6023 35.217 22.5671 35.1356 22.6147C35.066 22.6563 35.025 22.767 35.077 22.8379Z" fill="#AF75FF"/>
</g>
<defs>
<clipPath id="clip0_2443_8368">
<rect width="40" height="40" rx="8" fill="white"/>
</clipPath>
</defs>
</svg>
