<svg width="48" height="48" viewBox="0 0 48 48" fill="none" xmlns="http://www.w3.org/2000/svg">
<rect width="48" height="48" fill="#1E1E1E"/>
<g id="Post Consultation Report (Phase 2)">
<path d="M-4501 -280C-4501 -281.105 -4500.1 -282 -4499 -282H3505C3506.1 -282 3507 -281.105 3507 -280V5096C3507 5097.1 3506.1 5098 3505 5098H-4499C-4500.1 5098 -4501 5097.1 -4501 5096V-280Z" fill="#404040"/>
<path d="M-4499 -281H3505V-283H-4499V-281ZM3506 -280V5096H3508V-280H3506ZM3505 5097H-4499V5099H3505V5097ZM-4500 5096V-280H-4502V5096H-4500ZM-4499 5097C-4499.55 5097 -4500 5096.55 -4500 5096H-4502C-4502 5097.66 -4500.66 5099 -4499 5099V5097ZM3506 5096C3506 5096.55 3505.55 5097 3505 5097V5099C3506.66 5099 3508 5097.66 3508 5096H3506ZM3505 -281C3505.55 -281 3506 -280.552 3506 -280H3508C3508 -281.657 3506.66 -283 3505 -283V-281ZM-4499 -283C-4500.66 -283 -4502 -281.657 -4502 -280H-4500C-4500 -280.552 -4499.55 -281 -4499 -281V-283Z" fill="white" fill-opacity="0.1"/>
<g id="Clinic Report- Aligners" clip-path="url(#clip0_0_1)">
<rect width="390" height="4559" transform="translate(-44 -182)" fill="#FBF8F7"/>
<g id="Frame 22272">
<rect x="-23.5" y="-20.5" width="349" height="117" rx="19.5" fill="#FBF7FF"/>
<rect x="-23.5" y="-20.5" width="349" height="117" rx="19.5" stroke="#DAC1FF"/>
<g id="Frame 22275">
<g id="Male Avatar 1" clip-path="url(#clip1_0_1)">
<g id="Group">
<g id="Group_2">
<g id="Group_3">
<path id="Vector" d="M48 24C48 26.1312 47.7216 28.2012 47.1972 30.1668C44.4792 40.4376 35.1252 48 24 48C16.5144 48 9.8328 44.5764 5.4312 39.2124C2.0388 35.0688 0 29.7708 0 24C0 10.7436 10.7436 0 24 0C37.2564 0 48 10.7436 48 24Z" fill="#D8B0FF"/>
</g>
<g id="Group_4">
<g id="Group_5">
<path id="Vector_2" d="M47.1972 30.1668C44.4791 40.4376 35.1252 48 24 48C16.5144 48 9.83275 44.5764 5.43115 39.2124C12.4536 30.6204 20.0256 29.7036 20.0256 29.7036C20.0256 29.7036 19.8456 28.4064 20.0256 28.056C20.154 27.8088 20.628 27.582 20.8908 27.474C20.994 27.4332 21.0612 27.4068 21.0612 27.4068C21.0612 27.4068 21.4416 27.3396 22.0392 27.2472C23.2392 27.0564 25.308 26.7528 26.9148 26.634C27.4044 26.5932 27.852 26.5728 28.2168 26.5776C28.6128 26.5824 28.9164 26.6184 29.082 26.6964C29.2824 26.7888 29.514 27.4068 29.514 27.4068C29.514 27.4068 32.484 26.9484 36.5868 27.4068C38.3112 27.6036 42.5999 28.3968 47.1972 30.1668Z" fill="#361272"/>
</g>
</g>
<g id="Group_6">
<g id="Group_7">
<g id="Group_8">
<g id="Group_9">
<g id="Group_10">
<path id="Vector_3" d="M19.9405 16.698C19.9405 16.698 15.7441 15.3516 15.7213 18.5064C15.6949 22.1616 20.0257 21.7908 20.0257 21.7908L19.9405 16.698Z" fill="#E0CDB3"/>
</g>
</g>
</g>
</g>
</g>
<g id="Group_11">
<path id="Vector_4" d="M18.2137 20.1648C18.1333 20.1648 18.0541 20.1276 18.0037 20.0568L16.4413 17.874C16.3585 17.7588 16.3849 17.598 16.5013 17.5152C16.6177 17.4324 16.7773 17.4588 16.8601 17.5752L18.4225 19.758C18.5053 19.8732 18.4789 20.034 18.3625 20.1168C18.3169 20.1492 18.2653 20.1648 18.2137 20.1648Z" fill="black"/>
</g>
<g id="Group_12">
<path id="Vector_5" d="M16.5814 19.6188C16.4518 19.6188 16.3402 19.5216 16.3258 19.3896C16.3102 19.248 16.4122 19.1208 16.5538 19.1052L17.7034 18.978C17.845 18.9624 17.9722 19.0644 17.9878 19.206C18.0034 19.3476 17.9014 19.4748 17.7598 19.4904L16.6102 19.6176C16.5994 19.6188 16.5898 19.6188 16.5814 19.6188Z" fill="black"/>
</g>
<g id="Group_13">
<g id="Group_14">
<g id="Group_15">
<g id="Group_16">
<g id="Group_17">
<path id="Vector_6" d="M28.0201 24.6288L28.4497 28.8636C28.4497 28.8636 26.8957 29.8968 24.8533 30.1224C22.0969 30.4272 21.0121 28.8756 21.0121 28.8756L20.5693 23.9052L28.0201 24.6288Z" fill="#E0CDB3"/>
</g>
</g>
</g>
</g>
</g>
<g id="Group_18">
<g id="Group_19">
<g id="Group_20">
<g id="Group_21">
<path id="Vector_7" d="M28.02 24.6228C28.02 24.6228 27.0168 28.1772 23.8392 28.0008C21.2772 27.8592 20.2212 24.3432 20.2212 24.3432L28.02 24.6228Z" fill="black"/>
</g>
</g>
</g>
</g>
<g id="Group_22">
<g id="Group_23">
<g id="Group_24">
<g id="Group_25">
<g id="Group_26">
<path id="Vector_8" d="M18.335 13.3512C18.335 13.3512 17.2886 21.2736 19.8302 24.5016C22.5566 27.9636 26.291 26.5056 27.6242 25.2672C29.4218 23.5968 29.627 21.4932 29.627 21.4932C29.627 21.4932 32.339 21.7752 33.0242 19.5204C33.7442 17.1528 31.9142 15.4668 30.5726 15.4824C29.231 15.498 29.0978 15.7548 29.0978 15.7548L29.261 13.2828C29.261 13.2828 20.3246 5.03879 18.335 13.3512Z" fill="#E0CDB3"/>
</g>
</g>
</g>
</g>
</g>
<g id="Group_27">
<path id="Vector_9" d="M29.839 19.248C29.7742 19.248 29.7106 19.224 29.6602 19.176C29.5582 19.0776 29.5558 18.9144 29.6542 18.8124L31.5442 16.8576C31.6438 16.7556 31.8058 16.7532 31.9078 16.8516C32.0098 16.95 32.0122 17.1132 31.9138 17.2152L30.0238 19.17C29.9734 19.2216 29.9062 19.248 29.839 19.248Z" fill="black"/>
</g>
<g id="Group_28">
<path id="Vector_10" d="M31.7675 19.3956C31.7219 19.3956 31.6751 19.3836 31.6331 19.3572L30.3347 18.558C30.2135 18.4836 30.1763 18.3252 30.2507 18.204C30.3251 18.0828 30.4835 18.0444 30.6047 18.12L31.9031 18.9192C32.0243 18.9936 32.0615 19.152 31.9871 19.2732C31.9379 19.3524 31.8539 19.3956 31.7675 19.3956Z" fill="black"/>
</g>
<g id="Group_29">
<path id="Vector_11" d="M25.6331 17.4792C25.4951 17.4792 25.3811 17.37 25.3763 17.2308L25.3307 15.9192C25.3259 15.7776 25.4375 15.6576 25.5791 15.6528C25.7207 15.6372 25.8395 15.7596 25.8455 15.9012L25.8911 17.2128C25.8959 17.3544 25.7843 17.4744 25.6427 17.4792C25.6391 17.4792 25.6355 17.4792 25.6331 17.4792Z" fill="black"/>
</g>
<g id="Group_30">
<path id="Vector_12" d="M20.6126 17.6712C20.4746 17.6712 20.3606 17.562 20.3558 17.4228L20.3102 16.1112C20.3054 15.9696 20.4158 15.8496 20.5586 15.8448C20.7026 15.8376 20.8202 15.9504 20.825 16.0932L20.8706 17.4048C20.8754 17.5464 20.765 17.6664 20.6222 17.6712C20.6186 17.6712 20.6162 17.6712 20.6126 17.6712Z" fill="black"/>
</g>
<g id="Group_31">
<path id="Vector_13" d="M23.2417 20.9184C23.1301 20.9184 23.0281 20.8464 22.9945 20.7336C22.3945 18.708 22.8973 16.9716 22.9189 16.8984C22.9597 16.7628 23.1025 16.6836 23.2381 16.7256C23.3749 16.7664 23.4517 16.9092 23.4121 17.0448C23.4073 17.0616 22.9333 18.714 23.4877 20.5872C23.5285 20.724 23.4505 20.8668 23.3137 20.9076C23.2897 20.9148 23.2657 20.9184 23.2417 20.9184Z" fill="black"/>
</g>
<g id="Group_32">
<path id="Vector_14" d="M19.7194 14.9928C19.6558 14.9928 19.591 14.9688 19.5418 14.922C19.4386 14.8236 19.435 14.6604 19.5334 14.5584C20.0554 14.0112 20.9998 13.932 21.0406 13.9284C21.1834 13.9188 21.3058 14.0232 21.3166 14.1648C21.3274 14.3064 21.2218 14.43 21.0802 14.442C21.0718 14.442 20.2906 14.5104 19.9054 14.9136C19.855 14.9664 19.7878 14.9928 19.7194 14.9928Z" fill="black"/>
</g>
<g id="Group_33">
<path id="Vector_15" d="M26.1709 14.886C26.1265 14.886 26.0821 14.8752 26.0413 14.8512C25.5589 14.5704 24.7897 14.7216 24.7813 14.7228C24.6421 14.7504 24.5065 14.6616 24.4777 14.5224C24.4501 14.3832 24.5389 14.2476 24.6781 14.2188C24.7177 14.2116 25.6477 14.0256 26.3005 14.4072C26.4229 14.4792 26.4649 14.6364 26.3929 14.7588C26.3461 14.8404 26.2597 14.886 26.1709 14.886Z" fill="black"/>
</g>
<g id="Group_34">
<path id="Vector_16" d="M29.7132 15.7116C29.7132 15.7116 29.0988 18.1812 28.7808 18.1128C28.4616 18.0444 28.632 14.2236 29.5188 13.9872C30.4044 13.7508 29.7132 15.7116 29.7132 15.7116Z" fill="black"/>
</g>
<g id="Group_35">
<path id="Vector_17" d="M23.6267 23.1564C23.4899 23.1564 23.3759 23.0484 23.3699 22.9092C23.3639 22.7676 23.4743 22.6476 23.6159 22.6416C23.6687 22.6392 24.9275 22.5732 25.4183 21.4944C25.4771 21.3648 25.6307 21.3084 25.7591 21.3672C25.8887 21.426 25.9451 21.5784 25.8863 21.708C25.2623 23.0784 23.7011 23.1528 23.6351 23.1564C23.6339 23.1564 23.6303 23.1564 23.6267 23.1564Z" fill="black"/>
</g>
<g id="Group_36">
<path id="Vector_18" d="M29.3004 15.3924C29.3004 15.3924 26.5968 15.2844 24.7308 13.9668C23.1552 12.8544 22.4904 11.196 22.4904 11.196C22.4904 11.196 21.3264 11.0976 19.7196 12.186C18.1128 13.2744 18.1212 16.416 18.1212 16.416C18.1212 16.416 14.8392 11.2356 16.2096 9.2916C17.58 7.3476 20.0256 8.8056 20.0256 8.8056C20.0256 8.8056 19.4532 5.3496 24.3204 6.4836C29.1888 7.6176 30.4692 11.7216 30.4692 11.7216C30.4692 11.7216 32.1048 11.5056 32.3748 13.0176C32.6448 14.5296 32.0928 16.1028 32.0928 16.1028C32.0928 16.1028 31.3488 15.456 30.2688 15.9108C29.1888 16.3656 29.1888 16.3656 29.1888 16.3656L29.3004 15.3924Z" fill="black"/>
</g>
<g id="Group_37">
<g id="Group_38">
<path id="Vector_19" d="M21.0612 27.4104C21.0612 27.4104 21.9972 28.2984 24.162 28.3524C26.3268 28.4064 28.2264 26.6568 28.2264 26.6568L29.6208 29.2164L26.1708 31.3224L20.3892 30.8364V28.2444L21.0612 27.4104Z" fill="#361272"/>
</g>
</g>
<g id="Group_39">
<path id="Vector_20" d="M23.449 31.5852C21.109 31.5852 19.8322 29.874 19.8178 29.8536C19.7338 29.7396 19.7602 29.5788 19.8742 29.4948C19.9882 29.4108 20.1502 29.436 20.2342 29.55C20.3002 29.64 21.8926 31.7556 24.8686 30.8484C25.0054 30.8076 25.1482 30.8844 25.1902 31.02C25.231 31.1556 25.1542 31.2996 25.0186 31.3416C24.451 31.5132 23.9278 31.5852 23.449 31.5852Z" fill="white"/>
</g>
</g>
</g>
</g>
</g>
</g>
</g>
</g>
<defs>
<clipPath id="clip0_0_1">
<rect width="390" height="4559" fill="white" transform="translate(-44 -182)"/>
</clipPath>
<clipPath id="clip1_0_1">
<rect width="48" height="48" fill="white"/>
</clipPath>
</defs>
</svg>
