<svg width="14" height="11" viewBox="0 0 14 11" fill="none" xmlns="http://www.w3.org/2000/svg">
<path d="M5.36133 0V2.23242C4.33008 2.85352 3.65625 3.74414 3.33984 4.9043C5.22656 4.9043 6.16992 5.90625 6.16992 7.91016C6.16992 9.97266 5.13281 11.0039 3.05859 11.0039C1.01953 11.0039 0 9.7793 0 7.33008C0 3.52148 1.78711 1.07812 5.36133 0ZM13.043 0V2.23242C12.0117 2.85352 11.3438 3.74414 11.0391 4.9043C12.9141 4.9043 13.8516 5.90625 13.8516 7.91016C13.8516 9.97266 12.8145 11.0039 10.7402 11.0039C8.70117 11.0039 7.68164 9.7793 7.68164 7.33008C7.68164 3.5332 9.46875 1.08984 13.043 0Z" fill="#3B0C77"/>
</svg>
