<svg width="41" height="40" viewBox="0 0 41 40" fill="none" xmlns="http://www.w3.org/2000/svg">
<path fill-rule="evenodd" clip-rule="evenodd" d="M35.9823 37.0181C36.2257 36.2708 36.7488 35.7686 37.4959 35.51C37.7084 35.4365 37.9246 35.3725 38.1419 35.3131C38.207 35.2952 38.2722 35.2778 38.3375 35.2607C38.3915 35.2465 38.4456 35.2325 38.4997 35.2186C38.5483 35.2063 38.5973 35.1945 38.6463 35.1832C38.6464 35.1832 38.6464 35.1831 38.6465 35.1831C38.671 35.1775 38.6955 35.172 38.72 35.1667C38.8673 35.1345 38.8723 34.9279 38.7262 34.8889L37.4872 34.5592C36.7856 34.2994 36.2657 33.8448 36.0185 33.1408L35.6502 31.7725C35.6121 31.6315 35.4093 31.6309 35.3712 31.7725L35.0429 32.988C34.7926 33.7798 34.252 34.3149 33.4555 34.5759C33.2587 34.6404 33.0593 34.6967 32.8588 34.7497C32.7937 34.767 32.7284 34.7839 32.6631 34.8006C32.6004 34.8167 32.5377 34.8326 32.475 34.8485C32.4343 34.8588 32.3935 34.8692 32.3527 34.8795C32.3527 34.8795 32.3526 34.8796 32.3526 34.8796C32.3291 34.8856 32.3056 34.8916 32.2821 34.8976C32.2807 34.8976 32.2796 34.8979 32.2785 34.8983C32.2776 34.8986 32.2767 34.8988 32.2758 34.8988C32.1316 34.9359 32.1291 35.1382 32.2739 35.176L33.3451 35.4556C34.0192 35.6535 34.5754 36.0314 34.87 36.6859C35.0118 37.0009 35.1178 37.3328 35.2172 37.6655C35.2173 37.6658 35.2174 37.6661 35.2174 37.6663C35.235 37.7252 35.2524 37.7841 35.2698 37.8429C35.2718 37.8498 35.2738 37.8566 35.2758 37.8635L35.2832 37.8884C35.3081 37.974 35.3303 38.0602 35.3504 38.1473C35.3504 38.1475 35.3505 38.1478 35.3505 38.148C35.3561 38.1721 35.3616 38.1963 35.3668 38.2206C35.3868 38.3103 35.4729 38.347 35.5457 38.3285C35.5463 38.3284 35.5468 38.3282 35.5474 38.3281C35.5919 38.3162 35.631 38.2836 35.6466 38.2298C35.6467 38.2293 35.6468 38.2289 35.647 38.2284C35.647 38.2283 35.647 38.2282 35.6471 38.228L35.6477 38.2287L35.9823 37.0181ZM35.4921 36.7109C35.7938 35.9084 36.3795 35.3457 37.165 35.0351C36.4099 34.7253 35.8065 34.1911 35.5036 33.3763C35.195 34.1581 34.6228 34.7211 33.8385 35.033C34.4885 35.2904 35.0604 35.7349 35.3858 36.4578M35.4921 36.7109C35.4588 36.6261 35.4235 36.5415 35.3858 36.4578L35.4921 36.7109Z" fill="#A97AF9"/>
<path fill-rule="evenodd" clip-rule="evenodd" d="M19.6665 4.04302C11.314 4.04302 4.54302 10.814 4.54302 19.1665C4.54302 27.519 11.314 34.29 19.6665 34.29C28.019 34.29 34.79 27.519 34.79 19.1665C34.79 10.814 28.019 4.04302 19.6665 4.04302ZM2.1665 19.1665C2.1665 9.50152 10.0015 1.6665 19.6665 1.6665C29.3315 1.6665 37.1665 9.50152 37.1665 19.1665C37.1665 28.8315 29.3315 36.6665 19.6665 36.6665C10.0015 36.6665 2.1665 28.8315 2.1665 19.1665Z" fill="#371471"/>
<path fill-rule="evenodd" clip-rule="evenodd" d="M27.9929 21.7924C28.7124 22.1137 29.0316 22.9494 28.7059 23.6591C27.0103 27.3536 23.3671 29.8209 19.2924 29.9905L19.2924 29.9905C14.8999 30.1732 10.8035 27.653 8.96225 23.6615C8.63516 22.9525 8.95276 22.1161 9.67161 21.7935C10.3905 21.4709 11.2384 21.7841 11.5654 22.4932C12.9346 25.4612 15.9681 27.3052 19.1719 27.172C22.1442 27.0482 24.8402 25.2416 26.1004 22.4957C26.4261 21.786 27.2734 21.4711 27.9929 21.7924Z" fill="#A97AF9"/>
<path d="M12.3039 16.5873C13.4509 16.5873 14.3808 15.6575 14.3808 14.5105C14.3808 13.3634 13.4509 12.4336 12.3039 12.4336C11.1569 12.4336 10.2271 13.3634 10.2271 14.5105C10.2271 15.6575 11.1569 16.5873 12.3039 16.5873Z" fill="#A97AF9"/>
<path d="M26.7712 16.5873C27.9182 16.5873 28.8481 15.6575 28.8481 14.5105C28.8481 13.3634 27.9182 12.4336 26.7712 12.4336C25.6242 12.4336 24.6943 13.3634 24.6943 14.5105C24.6943 15.6575 25.6242 16.5873 26.7712 16.5873Z" fill="#A97AF9"/>
</svg>
