<svg width="41" height="40" viewBox="0 0 41 40" fill="none" xmlns="http://www.w3.org/2000/svg">
<g clip-path="url(#clip0_2441_7908)">
<path d="M3.03248 39.1668C2.7676 33.6681 4.16679 31.2958 5.63281 30.1784C8.55135 27.9543 12.7857 29.9058 15.0206 27.2165C16.0801 25.9415 16.2248 24.5303 16.3333 23.3335" stroke="#3B0C77" stroke-width="2" stroke-linecap="round" stroke-linejoin="round"/>
<path d="M38.8009 39.1668C39.0657 33.6681 37.6665 31.2958 36.2005 30.1784C33.282 27.9543 29.0476 29.9058 26.8127 27.2165C25.7532 25.9415 25.6085 24.5303 25.5 23.3335" stroke="#3B0C77" stroke-width="2" stroke-linecap="round" stroke-linejoin="round"/>
<path d="M12.2086 11.7985C12.1274 12.3784 12.185 12.9276 12.2054 13.906C12.2412 15.6001 12.3218 19.3804 15.0217 22.1748C16.8843 24.1028 19.2161 24.7565 20.5489 24.9998C22.0043 24.8197 25.1313 24.201 27.1671 21.7269C29.0189 19.4767 29.3097 16.4921 29.5609 13.906C29.651 12.9789 29.6683 12.2039 29.6664 11.6665" stroke="#3B0C77" stroke-width="2" stroke-linecap="round" stroke-linejoin="round"/>
<path d="M11.3335 10.2328C11.3335 10.7106 11.3341 11.1889 11.3348 11.6667C13.4892 10.8857 15.7756 10.42 18.0493 10.17C18.8637 10.0806 19.6813 10.0228 20.5002 10" stroke="#3B0C77" stroke-width="2" stroke-linecap="round" stroke-linejoin="round"/>
<path d="M27.2336 10.5795C28.4564 10.8602 29.3111 11.2622 30.4912 11.6667V10.8199C30.5002 8.5981 30.5002 6.32942 30.5002 4.12565C28.8742 3.46819 27.0668 3.09739 25.3256 2.83476C23.5334 2.56433 21.7139 2.45675 19.9007 2.51565C17.0029 2.6094 14.0345 3.107 11.3354 4.12626C11.3354 4.57999 11.3354 4.96882 11.3335 5.41955" stroke="#3B0C77" stroke-width="2" stroke-linecap="round" stroke-linejoin="round"/>
<path d="M23.66 12.153C24.9449 12.153 25.9865 11.1114 25.9865 9.8265C25.9865 8.54161 24.9449 7.5 23.66 7.5C22.3751 7.5 21.3335 8.54161 21.3335 9.8265C21.3335 11.1114 22.3751 12.153 23.66 12.153Z" stroke="#AF78FE" stroke-width="1.5" stroke-miterlimit="10"/>
<path d="M23.6636 10.5525C24.0436 10.5525 24.3516 10.2422 24.3516 9.8595C24.3516 9.47677 24.0436 9.1665 23.6636 9.1665C23.2836 9.1665 22.9756 9.47677 22.9756 9.8595C22.9756 10.2422 23.2836 10.5525 23.6636 10.5525Z" fill="#AF78FE"/>
<path d="M28.127 34.5088H28.0555C28.0046 34.5088 27.9885 34.5734 28.0344 34.5939C28.499 34.8013 29.2903 35.3218 29.2903 36.4616C29.2903 37.6013 28.4996 38.1218 28.0344 38.3292C27.9885 38.3497 28.0046 38.4143 28.0555 38.4143C29.5133 38.4143 30.2543 37.4156 30.2543 36.428C30.2543 35.4405 29.5431 34.5088 28.127 34.5088Z" fill="#AF78FE"/>
<path d="M28.2827 36.4616C28.2827 35.456 27.815 34.8224 27.5995 34.5833C27.5566 34.5361 27.4939 34.5088 27.4274 34.5088H27.3318C27.2697 34.5088 27.2188 34.556 27.2188 34.6144V38.3087C27.2188 38.3671 27.2691 38.4143 27.3318 38.4143H27.4274C27.4939 38.4143 27.5566 38.3876 27.5995 38.3398C27.815 38.1007 28.2827 37.4671 28.2827 36.4616Z" fill="#AF78FE"/>
<path d="M13.8335 28.3335L20.7785 35.8335L28.0002 28.3986" stroke="#3B0C77" stroke-width="2" stroke-linecap="round" stroke-linejoin="round"/>
</g>
<defs>
<clipPath id="clip0_2441_7908">
<rect width="40" height="40" fill="white" transform="translate(0.5)"/>
</clipPath>
</defs>
</svg>
