<svg width="41" height="40" viewBox="0 0 41 40" fill="none" xmlns="http://www.w3.org/2000/svg">
<g clip-path="url(#clip0_2441_7925)">
<path d="M27.2658 5H14.7342C14.0524 5 13.5 5.59366 13.5 6.32519V33.6748C13.5 34.4072 14.0524 35 14.7342 35H27.2658C27.9476 35 28.5 34.4063 28.5 33.6748V6.32519C28.5 5.59285 27.9476 5 27.2658 5ZM27.3521 31.4632C27.3521 32.022 26.9308 32.4745 26.4106 32.4745H15.6522C15.132 32.4745 14.7106 32.022 14.7106 31.4632V7.0997C14.7106 6.54092 15.132 6.08837 15.6522 6.08837H26.4106C26.9308 6.08837 27.3521 6.54092 27.3521 7.0997V31.4632Z" fill="#361371"/>
<path d="M21.4405 12.2868L22.4506 14.4256C22.5218 14.5773 22.6607 14.6821 22.8207 14.7069L25.0784 15.0497C25.4819 15.1113 25.6428 15.6288 25.3509 15.9266L23.7166 17.5921C23.6005 17.7097 23.5478 17.8807 23.575 18.0471L23.961 20.3983C24.0295 20.8183 23.6084 21.1382 23.248 20.9396L21.2286 19.8293C21.0853 19.7503 20.9147 19.7503 20.7714 19.8293L18.752 20.9396C18.3916 21.1382 17.9696 20.8174 18.039 20.3983L18.425 18.0471C18.4522 17.8807 18.3995 17.7107 18.2834 17.5921L16.6491 15.9266C16.3572 15.6297 16.5181 15.1113 16.9216 15.0497L19.1793 14.7069C19.3393 14.683 19.4782 14.5773 19.5494 14.4256L20.5595 12.2868C20.7398 11.9044 21.2611 11.9044 21.4413 12.2868H21.4405Z" stroke="#B473F9" stroke-miterlimit="10"/>
<path d="M32.7942 17.1908L33.4675 18.6171C33.5156 18.7184 33.6077 18.7884 33.714 18.8048L35.2189 19.0338C35.4874 19.0749 35.5953 19.42 35.4008 19.6184L34.3117 20.7285C34.2345 20.8075 34.1991 20.9203 34.2172 21.0315L34.4739 22.5986C34.5196 22.8785 34.2393 23.0918 33.9983 22.9601L32.6525 22.2198C32.5572 22.1671 32.443 22.1671 32.3477 22.2198L31.0019 22.9601C30.7617 23.0918 30.4806 22.8785 30.5262 22.5986L30.783 21.0315C30.8011 20.9203 30.7656 20.8067 30.6885 20.7285L29.5994 19.6184C29.4049 19.42 29.512 19.0749 29.7813 19.0338L31.2862 18.8048C31.3933 18.7884 31.4854 18.7184 31.5327 18.6171L32.206 17.1908C32.3265 16.9364 32.6737 16.9364 32.7934 17.1908H32.7942Z" stroke="#B473F9" stroke-width="0.5" stroke-miterlimit="10"/>
<path d="M38.6959 22.1271L39.1448 23.0783C39.1766 23.1455 39.2377 23.1921 39.3092 23.2029L40.3126 23.3557C40.4921 23.3831 40.5636 23.6132 40.4333 23.7453L39.7072 24.4855C39.6556 24.5378 39.6326 24.6134 39.6445 24.6873L39.8161 25.7323C39.8471 25.9193 39.6596 26.0613 39.4991 25.9733L38.6014 25.4798C38.5379 25.4449 38.4616 25.4449 38.398 25.4798L37.5004 25.9733C37.3399 26.0613 37.1524 25.9193 37.1834 25.7323L37.355 24.6873C37.3669 24.6134 37.3439 24.5378 37.2922 24.4855L36.5661 23.7453C36.4366 23.6132 36.5081 23.3831 36.6869 23.3557L37.6902 23.2029C37.7617 23.1921 37.8229 23.1455 37.8547 23.0783L38.3035 22.1271C38.3837 21.9576 38.6149 21.9576 38.6952 22.1271H38.6959Z" stroke="#B473F9" stroke-width="0.25" stroke-miterlimit="10"/>
<path d="M9.79422 17.1908L10.4675 18.6171C10.5156 18.7184 10.6077 18.7884 10.714 18.8048L12.2189 19.0338C12.4874 19.0749 12.5953 19.42 12.4008 19.6184L11.3117 20.7285C11.2345 20.8075 11.1991 20.9203 11.2172 21.0315L11.4739 22.5986C11.5196 22.8785 11.2393 23.0918 10.9983 22.9601L9.65247 22.2198C9.55719 22.1671 9.443 22.1671 9.34771 22.2198L8.00189 22.9601C7.76171 23.0918 7.48057 22.8785 7.52625 22.5986L7.78297 21.0315C7.80108 20.9203 7.76565 20.8067 7.68847 20.7285L6.59937 19.6184C6.40486 19.42 6.51196 19.0749 6.78128 19.0338L8.28618 18.8048C8.39328 18.7884 8.48541 18.7184 8.53266 18.6171L9.20597 17.1908C9.32645 16.9364 9.67374 16.9364 9.79343 17.1908H9.79422Z" stroke="#B473F9" stroke-width="0.5" stroke-miterlimit="10"/>
<path d="M2.69595 22.1271L3.14479 23.0783C3.17657 23.1455 3.23774 23.1921 3.30924 23.2029L4.31258 23.3557C4.49212 23.3831 4.56362 23.6132 4.43334 23.7453L3.70724 24.4855C3.6556 24.5378 3.63256 24.6134 3.64448 24.6873L3.81607 25.7323C3.84706 25.9193 3.65957 26.0613 3.4991 25.9733L2.60141 25.4798C2.53786 25.4449 2.4616 25.4449 2.39804 25.4798L1.50035 25.9733C1.33988 26.0613 1.1524 25.9193 1.18338 25.7323L1.35498 24.6873C1.36689 24.6134 1.34385 24.5378 1.29222 24.4855L0.566121 23.7453C0.436631 23.6132 0.508128 23.3831 0.686872 23.3557L1.69022 23.2029C1.76172 23.1921 1.82289 23.1455 1.85466 23.0783L2.30351 22.1271C2.38374 21.9576 2.61492 21.9576 2.69515 22.1271H2.69595Z" stroke="#B473F9" stroke-width="0.25" stroke-miterlimit="10"/>
</g>
<defs>
<clipPath id="clip0_2441_7925">
<rect width="40" height="40" fill="white" transform="translate(0.5)"/>
</clipPath>
</defs>
</svg>
