<svg width="41" height="40" viewBox="0 0 41 40" fill="none" xmlns="http://www.w3.org/2000/svg">
<path d="M18.4759 9.47206L16.5635 7.16624L18.9817 4.80422L21.2313 6.71661C21.635 6.44873 22.1612 6.14873 22.8057 5.8918C23.4174 5.64801 23.9765 5.50714 24.4364 5.42319C24.4364 4.33561 24.4364 3.24876 24.4364 2.16118C25.6926 2.14221 26.948 2.12396 28.2042 2.10498C28.2356 3.1546 28.267 4.20423 28.2977 5.25458C28.6984 5.26261 29.3706 5.32757 30.1159 5.66699C30.7429 5.95239 31.1808 6.32245 31.4465 6.58523C32.2589 5.87939 33.0713 5.17283 33.8837 4.467L36.302 6.94143C35.6209 7.69762 34.9399 8.45382 34.2589 9.21002C34.5363 9.56111 34.8779 10.0669 35.1589 10.7282C35.4436 11.3998 35.5691 12.0056 35.6275 12.453C36.6961 12.4903 37.7647 12.5282 38.8333 12.5655V16.1085C37.7713 16.1399 36.7085 16.1713 35.6465 16.2019C35.6509 16.5924 35.6107 17.2355 35.3275 17.9639C35.0494 18.6814 34.6538 19.1785 34.3903 19.4639C35.1465 20.2391 35.9027 21.0135 36.6589 21.7887C35.8275 22.6887 34.9969 23.5887 34.1655 24.488C33.4341 23.7318 32.7035 22.9756 31.9721 22.2194C31.6611 22.507 31.1589 22.9055 30.4538 23.2128C29.7823 23.5055 29.1787 23.6069 28.767 23.6442C28.7604 24.7755 28.7546 25.9062 28.748 27.0376C27.5546 27.0128 26.3612 26.9879 25.1678 26.9624" stroke="#A97AF9" stroke-linecap="round" stroke-linejoin="round"/>
<path d="M31.816 10.2939C33.2693 12.1114 33.6576 14.5764 32.9189 16.7727C32.2219 18.8449 30.5985 20.4449 28.5358 21.1508C27.9277 21.3588 27.2905 21.4975 26.6489 21.5449" stroke="#A97AF9" stroke-linecap="round" stroke-linejoin="round"/>
<path d="M21.5503 9.87206C22.7999 8.66916 24.4152 7.86186 26.0802 7.7334" stroke="#A97AF9" stroke-linecap="round" stroke-linejoin="round"/>
<path d="M12.6299 14.0502C12.8509 14.1125 13.0912 14.135 13.3173 14.1618C13.7094 14.2081 14.1059 14.2103 14.4979 14.1733C15.1444 14.1125 15.779 13.9865 16.3838 13.7534C16.7677 13.605 17.1441 13.4399 17.5012 13.2364C17.5547 13.206 17.6061 13.1734 17.6604 13.1452C17.7578 13.0952 17.859 13.0518 17.9609 13.0105L17.7385 13.1017C18.2637 12.8867 18.8187 12.739 19.3833 12.6644L19.1363 12.697C19.6214 12.6347 20.1124 12.6282 20.5982 12.6905L20.3512 12.6579C20.776 12.7144 21.1903 12.823 21.5861 12.9852L21.3637 12.8939C21.7513 13.0554 22.1143 13.2661 22.4483 13.5166L22.2601 13.3754C22.6581 13.6774 23.0085 14.0314 23.318 14.4181L23.1729 14.2349C23.5925 14.7649 23.9325 15.3492 24.2167 15.9574L24.1229 15.7409C24.2271 15.9871 24.2873 16.2564 24.3409 16.5164C24.3744 16.6793 24.4019 16.8436 24.4242 17.0087L24.3907 16.7683C24.5217 17.7313 24.4934 18.711 24.3617 19.6725L24.3952 19.4321C24.1943 20.8781 23.7569 22.2842 23.1751 23.6266L23.2689 23.4101C22.8523 24.3651 22.4401 25.3158 22.092 26.2969C21.7713 27.2005 21.4849 28.115 21.2179 29.0345C20.7321 30.7092 20.3207 32.4028 19.8914 34.0913C19.7977 34.4605 19.7025 34.8298 19.6013 35.1976C19.5135 35.5198 19.4384 35.8587 19.306 36.1664L19.3997 35.9499C19.3432 36.0737 19.2725 36.1889 19.1877 36.2967L19.3327 36.1136C19.2457 36.22 19.1482 36.3148 19.0389 36.3996L19.2271 36.2584C19.0954 36.3568 18.9541 36.4372 18.8016 36.5016L19.024 36.4104C18.8656 36.4734 18.7026 36.5161 18.533 36.54L18.78 36.5074C18.6052 36.5284 18.4326 36.5284 18.2578 36.5074L18.5047 36.54C18.3374 36.5168 18.1759 36.4749 18.019 36.4133L18.2414 36.5045C18.0904 36.4415 17.9505 36.3633 17.8196 36.267L18.0078 36.4082C17.891 36.3185 17.7861 36.2171 17.6946 36.1027L17.8397 36.2859C17.7571 36.1794 17.6887 36.0658 17.6336 35.9441L17.7273 36.1606C17.6634 36.01 17.6336 35.8623 17.6016 35.7045L17.4684 35.0311C17.3189 34.2759 17.1694 33.5214 17.0191 32.7663L16.4984 30.1409L16.1115 28.1895C16.0855 28.057 16.0602 27.9245 16.0327 27.792C15.9054 27.1751 15.4018 26.7031 14.7962 26.522C14.0069 26.2867 13.1246 26.601 12.6798 27.2722C12.5444 27.4771 12.4849 27.7015 12.4387 27.9339L12.1151 29.5645C11.9462 30.4167 11.7774 31.2689 11.6078 32.1211C11.4381 32.9733 11.2841 33.7531 11.1227 34.5684C11.0364 35.0029 10.9538 35.4373 10.8646 35.871C10.8437 35.9702 10.8125 36.0658 10.7723 36.1592L10.8661 35.9427C10.811 36.065 10.7426 36.178 10.66 36.2844L10.8051 36.1012C10.7128 36.2156 10.6087 36.3163 10.4919 36.4068L10.6801 36.2656C10.5491 36.3619 10.4093 36.4408 10.2583 36.5031L10.4807 36.4119C10.3237 36.4734 10.1623 36.5154 9.99492 36.5386L10.2419 36.506C10.0671 36.527 9.89448 36.527 9.71966 36.506L9.96665 36.5386C9.79703 36.5147 9.63411 36.472 9.47565 36.409L9.69809 36.5002C9.54558 36.4365 9.40423 36.3561 9.27256 36.2569L9.46077 36.3981C9.35216 36.3127 9.25396 36.2185 9.16692 36.1121L9.31199 36.2953C9.22718 36.1874 9.15651 36.073 9.09997 35.9485L9.1937 36.165C9.07616 35.8927 9.00846 35.5944 8.92961 35.3099C8.84033 34.9884 8.75627 34.6662 8.67369 34.3432C8.47729 33.5794 8.28908 32.8133 8.09491 32.0487C7.6307 30.2248 7.13822 28.406 6.52373 26.6241C6.14581 25.5294 5.69499 24.4701 5.23152 23.4079L5.32526 23.6244C4.7435 22.282 4.30607 20.8766 4.10521 19.43L4.13869 19.6703C4.00776 18.7088 3.97874 17.7299 4.10967 16.7662L4.0762 17.0066C4.13274 16.6011 4.21085 16.1898 4.35294 15.8032C4.36112 15.7815 4.36856 15.7605 4.37749 15.7387L4.28375 15.9552C4.56794 15.347 4.90791 14.7627 5.32749 14.2327L5.18242 14.4159C5.4919 14.0293 5.84229 13.6752 6.24029 13.3733L6.05208 13.5145C6.3861 13.2639 6.7484 13.0532 7.13673 12.8918L6.9143 12.983C7.30932 12.8208 7.72444 12.7122 8.14922 12.6557L7.90224 12.6883C8.38728 12.626 8.87902 12.6318 9.36406 12.6948L9.11708 12.6622C9.68172 12.7368 10.2367 12.8838 10.7619 13.0996L10.5395 13.0083C10.9739 13.1872 11.3615 13.4507 11.7714 13.6766C12.8018 14.245 13.8619 14.7627 14.9413 15.2362C15.2203 15.3586 15.5008 15.4766 15.7827 15.591C15.9895 15.675 16.3161 15.6041 16.4991 15.4998C16.6918 15.3897 16.8763 15.1747 16.9261 14.9589C16.9804 14.7272 16.9685 14.4673 16.8324 14.2617L16.6873 14.0785C16.5713 13.9663 16.4344 13.8888 16.2767 13.8461C16.2663 13.8417 16.2551 13.8374 16.2447 13.833L16.4671 13.9243C15.651 13.589 14.8506 13.2154 14.062 12.8223C13.3977 12.4914 12.7415 12.1424 12.101 11.7688C11.9626 11.6884 11.8302 11.603 11.6844 11.5356C10.6622 11.0621 9.5121 10.7935 8.37686 10.8384C7.47745 10.8738 6.60556 11.0954 5.81179 11.5096C4.82459 12.0244 4.03305 12.8346 3.41633 13.7331C3.08974 14.2095 2.79366 14.728 2.58238 15.263C2.55114 15.342 2.52436 15.4223 2.49981 15.5041C2.33317 16.0515 2.25208 16.6272 2.20223 17.1941C2.11668 18.1701 2.19331 19.1454 2.34135 20.112C2.53998 21.4073 2.92831 22.6708 3.43642 23.8814C3.59934 24.2688 3.77565 24.6496 3.94303 25.0348L3.8493 24.8183C4.87444 27.1867 5.57001 29.6804 6.20905 32.1696C6.47463 33.2058 6.72534 34.2448 6.99836 35.2787C7.10102 35.669 7.20666 36.0592 7.32718 36.4444C7.54813 37.1497 8.05772 37.7622 8.7585 38.0627C9.15055 38.2307 9.54781 38.3328 9.98078 38.3328C10.4137 38.3328 10.8296 38.2263 11.2284 38.0518C11.9053 37.7557 12.4625 37.12 12.6411 36.4177C12.7095 36.1505 12.7504 35.8746 12.804 35.6038C13.0837 34.1919 13.3642 32.7793 13.6439 31.3674C13.8477 30.3385 14.0479 29.3089 14.2562 28.2808C14.2703 28.2113 14.2889 28.1432 14.3172 28.0773L14.2234 28.2938C14.2517 28.2337 14.2852 28.1787 14.3268 28.1265L14.1818 28.3097C14.2227 28.2605 14.2681 28.217 14.3194 28.1772L14.1312 28.3184C14.1892 28.2757 14.2509 28.2409 14.3172 28.212L14.0947 28.3032C14.1773 28.2692 14.2614 28.2467 14.3499 28.2337L14.1029 28.2663C14.2004 28.254 14.2963 28.254 14.3938 28.2663L14.1468 28.2337C14.2353 28.2467 14.3194 28.2699 14.402 28.3032L14.1795 28.212C14.2457 28.2409 14.3075 28.2764 14.3655 28.3184L14.1773 28.1772C14.2279 28.217 14.2733 28.2605 14.3149 28.3097L14.1699 28.1265C14.2108 28.1787 14.245 28.2344 14.2733 28.2938L14.1795 28.0773C14.2257 28.1845 14.2443 28.2974 14.2666 28.4104L14.3722 28.9447L14.7405 30.8034C15.0313 32.271 15.3222 33.7379 15.6131 35.2056L15.837 36.3344C16.0743 37.5305 17.3122 38.3335 18.5159 38.3335C19.2732 38.3335 20.0715 38.0287 20.5796 37.4704C20.8563 37.1663 21.0482 36.8347 21.1702 36.4459C21.2268 36.2656 21.2789 36.0846 21.3302 35.9029C21.5988 34.9486 21.8294 33.9841 22.0719 33.0233C22.6938 30.5557 23.3477 28.0838 24.2821 25.7075C24.3997 25.4092 24.5217 25.1138 24.6489 24.8191L24.5551 25.0356C24.8349 24.3919 25.1287 23.7562 25.3712 23.098C25.5758 22.5427 25.7521 21.9779 25.8957 21.4052C26.1397 20.4291 26.2952 19.422 26.3279 18.417C26.351 17.7045 26.2974 16.9957 26.1799 16.2919C26.1263 15.9741 26.0564 15.6547 25.9485 15.3499C25.8816 15.1609 25.793 14.9799 25.7038 14.8004C25.4746 14.3391 25.2105 13.8939 24.9003 13.4804C24.3245 12.7129 23.6349 12.0301 22.7779 11.5595C21.4849 10.8499 20.0008 10.7051 18.5591 10.9701C18.1491 11.0454 17.7467 11.1591 17.3591 11.309C17.1352 11.3952 16.9045 11.4828 16.6925 11.5957C16.3942 11.755 16.1056 11.9186 15.7909 12.0482L16.0133 11.957C15.5179 12.1576 15.0008 12.298 14.4697 12.3697L14.7166 12.3371C14.2398 12.3987 13.7555 12.4067 13.2786 12.3458L13.5256 12.3784C13.391 12.361 13.2541 12.3408 13.1231 12.3038C12.656 12.1728 12.0898 12.4631 11.979 12.9359C11.8681 13.4087 12.1278 13.9091 12.6284 14.0495L12.6299 14.0502Z" fill="#361371"/>
</svg>
