<svg xmlns="http://www.w3.org/2000/svg" width="19.766" height="23.336" viewBox="0 0 19.766 23.336">
  <g id="Group_12" data-name="Group 12" transform="translate(0 0)">
    <path id="Union_1" data-name="Union 1" d="M9.359,23.025,7.648,20.251a2.944,2.944,0,0,0-1.4-1.167A9.9,9.9,0,0,1,2.981,2.8,9.786,9.786,0,0,1,10.162,0a9.927,9.927,0,0,1,9.592,9.41h0a9.889,9.889,0,0,1-6.143,9.644,3.156,3.156,0,0,0-1.452,1.193l-1.711,2.774a.667.667,0,0,1-.545.311A.7.7,0,0,1,9.359,23.025Z" transform="translate(0 0)" fill="#21516b"/>
    <text id="_" data-name="+" transform="translate(5.383 14.763)" fill="#fff" font-size="15" font-family="Metropolis-Medium, Metropolis" font-weight="500"><tspan x="0" y="0">+</tspan></text>
  </g>
</svg>
