<svg xmlns="http://www.w3.org/2000/svg" width="19.765" height="23.335" viewBox="0 0 19.765 23.335">
  <g id="noun-home-4759065" transform="translate(0 0)">
    <path id="Path_321" data-name="Path 321" d="M302.467,165.76l2.307,2.255v5.029H300.16v-5.029Z" transform="translate(-292.59 -159.379)" fill="#21516b"/>
    <path id="Path_322" data-name="Path 322" d="M156.4,37.322a9.927,9.927,0,0,0-9.592-9.41,9.889,9.889,0,0,0-3.914,19.08,2.946,2.946,0,0,1,1.4,1.167L146,50.932a.7.7,0,0,0,.544.311.667.667,0,0,0,.544-.311l1.711-2.774a3.157,3.157,0,0,1,1.452-1.193,9.889,9.889,0,0,0,6.143-9.644Zm-4.407,1.4a.649.649,0,0,1-.467.207.665.665,0,0,1-.467-.182l-.959-.933v4.433a.642.642,0,0,1-.648.648h-5.885a.642.642,0,0,1-.648-.648V37.815l-.959.933a.642.642,0,0,1-.907-.907l5-4.9a.626.626,0,0,1,.907,0l5,4.9a.578.578,0,0,1,.026.881Z" transform="translate(-136.642 -27.908)" fill="#21516b"/>
  </g>
</svg>
