<svg width="28" height="17" viewBox="0 0 28 17" fill="none" xmlns="http://www.w3.org/2000/svg">
<path d="M2.94955 8.36627C3.22656 8.57119 3.48702 8.77611 3.74335 8.98103C3.87152 9.08554 3.99555 9.18595 4.12164 9.3007L4.49167 9.62858C4.97953 10.0692 5.44465 10.5282 5.89943 10.9933C6.12475 11.229 6.35008 11.4647 6.56713 11.7044L6.64982 11.7946L6.67049 11.8171L6.68082 11.8274H6.69529C6.71374 11.8387 6.73104 11.8517 6.74697 11.8663C6.76558 11.8786 6.78418 11.8847 6.80072 11.897L6.82346 11.9134H6.85033C6.91548 11.9474 6.98504 11.9722 7.05705 11.9872C7.13004 12.0056 7.205 12.0152 7.28031 12.0159C7.36302 12.0182 7.44552 12.0064 7.52423 11.9811C7.6094 11.9565 7.69027 11.9192 7.76403 11.8704C7.78195 11.8549 7.80133 11.8412 7.82191 11.8294C7.84051 11.8171 7.85705 11.7966 7.87566 11.7823L7.9046 11.7597L7.93767 11.727L7.97075 11.6921H7.98109L7.99349 11.6757L8.02243 11.6429L8.07824 11.5794C8.09685 11.5569 8.11339 11.5405 8.13612 11.5118L8.26636 11.352C8.3077 11.3028 8.35731 11.2392 8.40279 11.1819L8.54129 11.0056C8.91959 10.5159 9.31442 9.98104 9.72785 9.46669C10.1413 8.95234 10.5651 8.4134 11.0054 7.89495C11.4457 7.37651 11.9087 6.87035 12.3801 6.3601C12.6219 6.11009 12.8617 5.86214 13.1139 5.61829C13.3661 5.37443 13.6162 5.13468 13.8746 4.89697C14.9228 3.93049 16.0599 3.06331 17.271 2.30678C18.5255 1.53238 19.8792 0.928614 21.2958 0.511682L21.8374 0.372332L22.1103 0.306762L22.3873 0.255532L22.9392 0.153072C23.1253 0.128481 23.3113 0.110037 23.4974 0.087496C23.8674 0.0362659 24.2436 0.0342132 24.6157 0.0198688C24.8018 0.00757363 24.9899 0.0198688 25.1759 0.0198688C25.362 0.0198688 25.548 0.0362677 25.732 0.0444645C26.1219 0.0643444 26.49 0.228721 26.7634 0.505009C27.0367 0.781298 27.1954 1.14932 27.2079 1.53612C27.2203 1.92292 27.0858 2.30025 26.8308 2.5933C26.5758 2.88634 26.219 3.07372 25.8312 3.11827L25.732 3.12851C24.6187 3.26157 23.5306 3.55281 22.501 3.99327C22.3728 4.0445 22.2467 4.11008 22.1206 4.16746L21.9305 4.25557C21.8664 4.28221 21.8044 4.315 21.7423 4.34779C21.4922 4.48098 21.2421 4.60394 21.0023 4.75763C20.5108 5.04703 20.0354 5.36237 19.578 5.70231C19.1191 6.05477 18.6684 6.41543 18.2343 6.81092C18.0131 7.0015 17.8023 7.21052 17.5873 7.41134C17.4798 7.51175 17.3806 7.61626 17.2731 7.72692C17.1656 7.83757 17.0664 7.93184 16.9609 8.0425C16.1247 8.91825 15.3353 9.83687 14.5961 10.7946C14.2171 11.2782 13.8429 11.7727 13.4736 12.2782C13.1015 12.7884 12.7294 13.3028 12.3242 13.8458L12.1671 14.0507C12.1134 14.1204 12.0658 14.188 12.0059 14.2557L11.8323 14.4749C11.8054 14.5118 11.7682 14.5549 11.7351 14.5938L11.6338 14.7147L11.5842 14.7762L11.5573 14.8069L11.5263 14.8417L11.394 14.9852C11.3485 15.0323 11.3072 15.0794 11.2576 15.1266L11.1046 15.268C11.0012 15.3581 10.8979 15.4524 10.7925 15.5385C10.687 15.6245 10.5692 15.7045 10.4555 15.7844C9.51666 16.4236 8.40479 16.7665 7.26583 16.768C6.09781 16.7703 4.96261 16.3851 4.04103 15.6737C3.98315 15.6307 3.92733 15.5856 3.87152 15.5405L3.71234 15.395C3.60898 15.2967 3.50563 15.2004 3.40847 15.0958C3.31131 14.9913 3.22448 14.8909 3.13766 14.7721L3.07152 14.6901L3.05498 14.6696L3.04464 14.6573L3.0281 14.6327L2.95782 14.5323C2.77384 14.2659 2.59192 13.9954 2.41415 13.7249C2.06066 13.1778 1.71544 12.6245 1.39709 12.0528L1.15937 11.6204C1.08495 11.4749 1.00433 11.3315 0.931976 11.1819C0.783138 10.8868 0.640503 10.5876 0.518538 10.2761C0.388929 9.95404 0.367636 9.59909 0.457831 9.26405C0.548026 8.92901 0.744893 8.63177 1.01915 8.41653C1.29342 8.20128 1.63043 8.07953 1.98009 8.06937C2.32974 8.05921 2.67337 8.16117 2.95989 8.36012L2.94955 8.36627Z" fill="#5AB0E5"/>
</svg>
