<?xml version="1.0" encoding="utf-8"?>
<!-- Svg Vector Icons : http://www.onlinewebfonts.com/icon -->
<!DOCTYPE svg PUBLIC "-//W3C//DTD SVG 1.1//EN" "http://www.w3.org/Graphics/SVG/1.1/DTD/svg11.dtd">
<svg fill = "#FF7F50" version="1.1" xmlns="http://www.w3.org/2000/svg" xmlns:xlink="http://www.w3.org/1999/xlink" x="0px" y="0px" viewBox="0 0 1000 1000" enable-background="new 0 0 1000 1000" xml:space="preserve">
<metadata> Svg Vector Icons : http://www.onlinewebfonts.com/icon </metadata>
<g><path d="M878,990H122c-61.8,0-112-50.1-112-112V178.1C10,116.1,60.1,66,122,66h112V52c0-23.2,18.8-42,42-42c23.2,0,42,18.8,42,42v14h364V52c0-23.2,18.8-42,42-42c23.2,0,42,18.8,42,42v14h112c61.9,0,112,50.1,112,112.1V878C990,939.9,939.9,990,878,990L878,990z M341.3,512.3c-16.4-16.4-43-16.4-59.4,0c-16.4,16.4-16.4,43,0,59.4l157,157c16.4,16.4,43,16.4,59.4,0c0,0,0-0.1,0.1-0.1l247.7-247.7c16.4-16.4,16.4-43,0-59.4c-16.4-16.4-43-16.4-59.4,0L468.6,639.6L341.3,512.3L341.3,512.3z"/></g>
</svg>