<svg xmlns="http://www.w3.org/2000/svg" x="0px" y="0px"
width="24" height="24"
viewBox="0 0 172 172"
style=" fill:#000000;"><g transform=""><g fill="none" fill-rule="nonzero" stroke="none" stroke-width="1" stroke-linecap="butt" stroke-linejoin="miter" stroke-miterlimit="10" stroke-dasharray="" stroke-dashoffset="0" font-family="none" font-weight="none" font-size="none" text-anchor="none" style="mix-blend-mode: normal"><path d="M0,172v-172h172v172z" fill="none"></path><g fill="#f59e0b"><path d="M86,14.33333c-39.56,0 -71.66667,32.10667 -71.66667,71.66667c0,39.56 32.10667,71.66667 71.66667,71.66667c39.56,0 71.66667,-32.10667 71.66667,-71.66667c0,-39.56 -32.10667,-71.66667 -71.66667,-71.66667zM89.58333,136.16667h-7.16667c-1.978,0 -3.58333,-1.60533 -3.58333,-3.58333v-7.16667c0,-1.978 1.60533,-3.58333 3.58333,-3.58333h7.16667c1.978,0 3.58333,1.60533 3.58333,3.58333v7.16667c0,1.978 -1.60533,3.58333 -3.58333,3.58333zM108.00167,80.625l-6.45,6.59333c-5.16,5.23167 -8.385,9.53167 -8.385,20.28167h-14.33333v-3.58333c0,-7.88333 3.225,-15.05 8.385,-20.28167l8.88667,-9.03c3.27517,-3.182 4.90917,-7.89767 3.96317,-12.9215c-0.9675,-5.1385 -4.93067,-9.51017 -9.9545,-10.93633c-7.92633,-2.25033 -15.31517,2.28617 -17.673,9.116c-0.91733,2.65883 -3.15333,4.63683 -5.96983,4.63683h-2.0855c-4.16383,0 -7.0735,-4.042 -5.9125,-8.041c3.0745,-10.54933 12.04717,-18.58317 23.1125,-20.28883c10.922,-1.68417 21.27783,3.9345 27.7565,12.89283c8.45667,11.696 5.96267,24.25917 -1.34017,31.562z"></path></g><path d="" fill="none"></path></g></g></svg>