<svg width="24" height="24" viewBox="0 0 24 24" fill="none" xmlns="http://www.w3.org/2000/svg">
<path d="M13.0596 11.4693L12.5281 12.0001L13.0596 12.5308L22.3942 21.8513C22.3945 21.8516 22.3949 21.852 22.3952 21.8524C22.4667 21.9251 22.5068 22.023 22.5068 22.1251C22.5068 22.2249 22.4684 22.3208 22.3998 22.3931C22.3253 22.4622 22.2273 22.5008 22.1255 22.5008C22.0225 22.5008 21.9235 22.4614 21.8488 22.3908L12.5312 13.0592L12.0005 12.5277L11.4697 13.0592L2.15214 22.3909C2.07737 22.4614 1.9784 22.5008 1.87547 22.5008C1.77362 22.5008 1.67565 22.4622 1.60116 22.3931C1.53252 22.3208 1.49414 22.2249 1.49414 22.1251C1.49414 22.0231 1.53421 21.9251 1.60568 21.8524C1.60605 21.852 1.60641 21.8517 1.60678 21.8513L10.9413 12.5308L11.4729 12.0001L10.9413 11.4693L1.63702 2.17904C1.58676 2.10816 1.56151 2.02223 1.5658 1.93492C1.57054 1.83845 1.61099 1.74719 1.67929 1.6789C1.74758 1.6106 1.83884 1.57015 1.93531 1.56541C2.02262 1.56112 2.10855 1.58637 2.17943 1.63663L11.4697 10.9409L12.0005 11.4725L12.5312 10.9409L21.8215 1.63663C21.8924 1.58637 21.9783 1.56112 22.0656 1.56541C22.1621 1.57015 22.2534 1.6106 22.3217 1.6789C22.3899 1.74719 22.4304 1.83845 22.4351 1.93492C22.4394 2.02223 22.4142 2.10816 22.3639 2.17905L13.0596 11.4693Z" stroke="white" stroke-width="1.5"/>
</svg>
