<svg width="60" height="60" viewBox="0 0 60 60" fill="none" xmlns="http://www.w3.org/2000/svg">
<rect width="60" height="60" rx="30" fill="#F3E9E6"/>
<path d="M34 39.8092V44.62C34 44.8328 33.8328 45 33.62 45C30.6788 45 27.8706 44.3312 25.2638 43.0164C21.7146 41.2456 18.7734 38.3082 16.9798 34.7438C15.6688 32.1332 15 29.3212 15 26.38C15 26.171 15.171 26 15.38 26H20.1908C20.4036 26 20.5708 26.171 20.5708 26.38C20.5708 27.9 20.8292 29.382 21.3346 30.7918C21.384 30.9286 21.346 31.0844 21.2434 31.187L19.6892 32.7412C21.2358 36.108 23.911 38.7794 27.2664 40.307L28.8168 38.7604C28.9194 38.654 29.0752 38.6198 29.212 38.6692C30.6218 39.1746 32.1038 39.4292 33.62 39.4292C33.8328 39.4292 34 39.6002 34 39.8092Z" fill="#361272"/>
<path d="M45.0001 24.8469C45.0001 30.2848 40.5575 34.6932 35.0761 34.6932C33.3366 34.6932 31.7026 34.2483 30.2801 33.4692L24.7862 35.2139L26.5771 29.9296C25.6741 28.4465 25.154 26.705 25.154 24.8463C25.1547 19.4083 29.596 15 35.0774 15C40.5581 15.0013 45.0001 19.409 45.0001 24.8469ZM35.0754 16.5701C30.4752 16.5701 26.7333 20.2837 26.7333 24.8489C26.7333 26.6602 27.3239 28.3371 28.3225 29.7015L27.281 32.7751L30.4858 31.7567C31.8041 32.6215 33.3814 33.1251 35.0754 33.1251C39.6756 33.1251 43.4188 29.4121 43.4188 24.8469C43.4201 20.2837 39.6762 16.5701 35.0754 16.5701ZM40.0875 27.115C40.0256 27.0155 39.8634 26.9549 39.6208 26.8336C39.3789 26.7123 38.1813 26.129 37.9591 26.0499C37.735 25.9688 37.5729 25.9279 37.4107 26.1698C37.2506 26.4117 36.7839 26.9549 36.6409 27.117C36.4991 27.2785 36.3574 27.2989 36.1142 27.1796C35.871 27.057 35.0866 26.8039 34.1572 25.982C33.4341 25.3413 32.9457 24.5523 32.8047 24.3104C32.6616 24.0691 32.7902 23.9386 32.9108 23.8187C33.0195 23.7099 33.154 23.5365 33.2759 23.3948C33.3979 23.2544 33.4381 23.1549 33.5192 22.9934C33.5989 22.8319 33.5587 22.6915 33.4987 22.5696C33.4381 22.4483 32.9523 21.2618 32.7486 20.7787C32.5463 20.2962 32.3439 20.376 32.2015 20.376C32.0598 20.376 31.8977 20.3562 31.7355 20.3562C31.5734 20.3562 31.3097 20.4149 31.0876 20.6568C30.8655 20.8987 30.2366 21.482 30.2366 22.6698C30.2366 23.8589 31.1074 25.0051 31.2293 25.1659C31.3519 25.3261 32.9128 27.8434 35.3852 28.8097C37.859 29.7753 37.859 29.453 38.3045 29.4121C38.7514 29.3713 39.7441 28.8288 39.9458 28.2659C40.1488 27.7003 40.1488 27.2159 40.0875 27.115Z" fill="#361272"/>
</svg>
