<svg width="60" height="60" viewBox="0 0 60 60" fill="none" xmlns="http://www.w3.org/2000/svg">
<g clip-path="url(#clip0_1624_128005)">
<path d="M60 -0.000976562H0V59.9998H60V-0.000976562Z" fill="#3B0C77"/>
<path d="M25.2803 51.7306H30.585V27.8191H28.9733L25.4903 24.8694L25.2803 51.7306Z" fill="#B473F9"/>
<path d="M34.8153 52.2089H29.5098V27.6937H31.1223L34.6045 24.6697L34.8153 52.2089Z" fill="#B473F9"/>
<path d="M24.9101 54.4479H8.88563C8.88563 54.4479 7.07812 51.9549 7.07812 49.8354C7.07812 47.7159 12.5629 33.3609 14.4334 31.7536C16.3031 30.1464 24.9109 26.8809 24.9109 26.8809V54.4479H24.9101Z" fill="white"/>
<path d="M23.4128 50.1443C23.6656 51.2438 23.9191 52.3433 24.1718 53.4435H25.2803C25.3951 43.7505 25.5098 34.0575 25.6253 24.3645C25.0036 24.8895 24.3533 25.4925 23.7001 26.1825C22.3118 27.6495 21.2836 29.1135 20.5261 30.39L23.5118 29.8125L19.6328 33.7163C20.7308 38.487 21.8281 43.257 22.9261 48.0278C23.0881 48.7328 23.2501 49.4385 23.4128 50.1443Z" fill="#3B0C77"/>
<path d="M28.0679 31.0102L29.9774 27.6937L25.2314 24.7515L28.0679 31.0102Z" fill="#3B0C77"/>
<path d="M32.0213 31.0102L29.9775 27.6937L34.8158 24.4709L32.0213 31.0102Z" fill="#3B0C77"/>
<path d="M31.8133 30.0856L29.9766 27.6938L34.0656 25.1108L31.8133 30.0856Z" fill="#B473F9"/>
<path d="M28.1399 30.0856L29.9759 27.6938L25.8877 25.1108L28.1399 30.0856Z" fill="#B473F9"/>
<path d="M24.781 53.139H25.8895V23.8748C25.8895 23.8748 25.2182 24.1628 23.8952 25.503C22.2415 27.1793 21.1345 30.0855 21.1345 30.0855L24.1202 29.508L20.2412 33.4118L24.781 53.139Z" fill="white"/>
<path d="M23.6099 48.6054C20.5814 47.8119 17.5529 47.0176 14.5244 46.2241C17.6542 47.2974 20.7832 48.3699 23.9129 49.4431C23.8117 49.1634 23.7104 48.8844 23.6099 48.6054Z" fill="#3B0C77"/>
<path d="M30.2347 28.7895C30.2347 28.8967 30.1477 28.9845 30.0397 28.9845C29.9317 28.9845 29.8447 28.8975 29.8447 28.7895C29.8447 28.6815 29.9317 28.5945 30.0397 28.5945C30.1477 28.5945 30.2347 28.6815 30.2347 28.7895Z" fill="white"/>
<path d="M30.2347 35.4848C30.2347 35.592 30.1477 35.6798 30.0397 35.6798C29.9317 35.6798 29.8447 35.5928 29.8447 35.4848C29.8447 35.3775 29.9317 35.2898 30.0397 35.2898C30.1477 35.2898 30.2347 35.3775 30.2347 35.4848Z" fill="white"/>
<path d="M30.1096 41.5396C30.2252 41.5396 30.3189 41.4459 30.3189 41.3303C30.3189 41.2148 30.2252 41.1211 30.1096 41.1211C29.9941 41.1211 29.9004 41.2148 29.9004 41.3303C29.9004 41.4459 29.9941 41.5396 30.1096 41.5396Z" fill="white"/>
<path d="M30.3189 47.8433C30.3189 47.9588 30.2251 48.0525 30.1096 48.0525C29.9941 48.0525 29.9004 47.9588 29.9004 47.8433C29.9004 47.7278 29.9941 47.634 30.1096 47.634C30.2251 47.634 30.3189 47.7278 30.3189 47.8433Z" fill="white"/>
<path d="M36.5798 18.4972C36.1501 20.0482 35.3896 21.2362 35.0596 21.1447C35.0596 21.1447 35.2921 20.1569 35.6018 18.5782C35.9611 16.7459 36.0121 15.4544 36.7613 15.5242C37.1026 15.5549 37.0103 16.9462 36.5798 18.4972Z" fill="#CCAD93"/>
<path d="M23.4287 18.4973C23.8584 20.0483 24.5732 21.2461 24.9024 21.1546C24.9024 21.1546 24.5522 19.8751 24.3437 18.5311C24.0579 16.6861 23.9964 15.4546 23.2472 15.5243C22.9067 15.5551 22.9989 16.9463 23.4287 18.4973Z" fill="#CCAD93"/>
<path d="M34.0649 25.1108L29.9759 27.6938L25.8877 25.1108V23.0498H34.0649V25.1108Z" fill="#DCC4AA"/>
<path d="M34.0657 24.0074C33.3277 25.5502 30.4439 26.5012 29.9767 26.5012C29.5102 26.5012 27.0562 25.7992 25.8877 24.0014V21.8564H34.0657V24.0074Z" fill="#CCAD93"/>
<path d="M41.6813 54.3622H29.2051V52.3424L35.0101 51.5092C35.2523 51.4747 35.4968 51.4927 35.7361 51.5632L41.7436 53.3437C41.9003 53.3902 42.0136 53.6017 42.0136 53.8477C42.0136 54.1319 41.8651 54.3622 41.6813 54.3622Z" fill="#FFCCA9"/>
<path d="M35.0602 21.1448C33.6974 25.6231 29.9767 25.6981 29.9767 25.6981C29.9767 25.6981 26.0459 25.6876 24.8722 21.0376C24.0974 17.9693 22.2329 13.2713 24.4679 9.7891C25.7332 7.81885 34.9312 7.0306 36.0149 9.7891C37.0979 12.5476 35.8589 18.5183 35.0602 21.1448Z" fill="#DCC4AA"/>
<path d="M31.9775 20.9791C32.1283 21.1043 31.664 22.7243 29.9803 22.7423C28.5523 22.7573 27.836 21.2888 27.965 21.0706C28.1248 20.7998 28.694 20.9828 29.9225 20.9828C31.151 20.9821 31.814 20.8426 31.9775 20.9791Z" fill="white"/>
<path d="M29.9595 22.8256C29.0475 22.8256 28.3778 22.2301 28.0538 21.6691C27.9248 21.4456 27.8153 21.1599 27.8933 21.0279C28.0238 20.8059 28.329 20.8254 28.884 20.8599C29.1593 20.8771 29.5028 20.8989 29.922 20.8989C30.4238 20.8989 30.8258 20.8756 31.1483 20.8569C31.6545 20.8284 31.9088 20.8134 32.0303 20.9146C32.1458 21.0106 32.0573 21.3039 32.0138 21.4254C31.9313 21.6564 31.446 22.8099 29.9805 22.8249C29.9738 22.8256 29.967 22.8256 29.9595 22.8256ZM28.413 21.0054C28.212 21.0054 28.086 21.0301 28.0373 21.1126C28.0193 21.1509 28.0553 21.3669 28.2518 21.6721C28.401 21.9046 28.9643 22.6584 29.9595 22.6584C29.9663 22.6584 29.973 22.6584 29.9798 22.6584C30.9533 22.6486 31.4573 22.0831 31.671 21.7464C31.884 21.4111 31.9388 21.1066 31.9178 21.0376C31.836 20.9836 31.536 21.0016 31.1588 21.0234C30.834 21.0421 30.4298 21.0654 29.9228 21.0654C29.4975 21.0654 29.1518 21.0436 28.8735 21.0264C28.692 21.0151 28.5383 21.0054 28.413 21.0054Z" fill="#CCAD93"/>
<path d="M29.9826 19.6117C29.7846 19.4692 29.4793 19.1527 29.6571 18.6255C29.8101 18.1717 29.8318 17.3025 29.8318 17.2935L29.9991 17.2972C29.9983 17.334 29.9773 18.201 29.8161 18.6787C29.6796 19.0822 29.8851 19.335 30.0808 19.476L29.9826 19.6117Z" fill="#CCAD93"/>
<path d="M24.0476 18.0322C24.0476 18.0322 23.2608 14.9159 23.1206 13.3417C22.9803 11.7682 22.8153 9.65395 24.5883 8.9347C26.3613 8.21545 25.8161 10.4122 25.8161 10.4122C25.8161 10.4122 24.4136 11.3549 24.1331 13.7167C23.9808 14.9999 24.0476 18.0322 24.0476 18.0322Z" fill="#414042"/>
<path d="M35.8355 17.9849C35.8355 17.9849 36.7085 14.9152 36.8488 13.3417C36.989 11.7682 37.154 9.65395 35.381 8.9347C33.608 8.21545 34.1533 10.4122 34.1533 10.4122C34.1533 10.4122 35.5558 11.3549 35.8363 13.7167C35.9878 14.9999 35.8355 17.9849 35.8355 17.9849Z" fill="#414042"/>
<path d="M34.3873 11.1683C34.3873 11.1683 32.2273 11.5125 30.7791 10.8323C30.3553 10.6328 28.2973 11.5088 27.3516 11.3318C25.5411 10.9935 24.7461 9.51977 24.7101 9.36827C24.6058 8.92502 24.1723 8.29277 25.4811 7.31102C27.2916 5.95277 29.5251 6.28277 29.8986 5.88527C30.2728 5.48777 30.6486 5.24477 31.3708 5.31752C33.3111 5.51177 33.4056 6.64952 34.4968 6.82052C35.9166 7.04252 36.3958 7.61552 36.4881 8.80727C36.6651 11.076 34.3873 11.1683 34.3873 11.1683Z" fill="#414042"/>
<path d="M30.273 5.58203C30.273 5.58203 29.6655 6.01853 28.1385 7.79453C26.6115 9.57128 25.8165 9.46178 25.6455 9.49328C25.6455 9.49328 26.9633 9.72053 28.3568 7.88828C29.7495 6.05528 30.273 5.58203 30.273 5.58203Z" fill="#231F20"/>
<path d="M28.4796 11.1472C25.4773 11.5672 24.6141 9.08924 24.6291 9.13499C25.1023 10.638 26.2971 11.2177 27.1716 11.442C27.4356 11.514 27.6966 11.5582 27.9531 11.5755C28.0941 11.5867 28.1818 11.586 28.1818 11.586C28.1818 11.586 28.1848 11.5852 28.1871 11.5845C31.0581 11.6092 33.3823 8.57324 33.3823 8.57324C31.4338 10.251 29.7051 10.9057 28.4796 11.1472Z" fill="#231F20"/>
<mask id="mask0_1624_128005" style="mask-type:luminance" maskUnits="userSpaceOnUse" x="26" y="15" width="4" height="3">
<path d="M28.6651 15.7793C29.1609 16.275 29.1609 17.079 28.6651 17.5755C28.1694 18.0713 27.3646 18.0713 26.8689 17.5755C26.3731 17.0798 26.3731 16.275 26.8689 15.7793C27.3646 15.2835 28.1694 15.2835 28.6651 15.7793Z" fill="white"/>
</mask>
<g mask="url(#mask0_1624_128005)">
<path d="M28.1689 18.0713L29.1604 17.0798V18.0713H28.1689Z" fill="white"/>
</g>
<mask id="mask1_1624_128005" style="mask-type:luminance" maskUnits="userSpaceOnUse" x="26" y="15" width="4" height="3">
<path d="M28.6651 15.7793C29.1609 16.275 29.1609 17.079 28.6651 17.5755C28.1694 18.0713 27.3646 18.0713 26.8689 17.5755C26.3731 17.0798 26.3731 16.275 26.8689 15.7793C27.3646 15.2835 28.1694 15.2835 28.6651 15.7793Z" fill="white"/>
</mask>
<g mask="url(#mask1_1624_128005)">
<path d="M26.8928 18.0712L26.373 17.5514V16.2757L27.3645 15.2834H28.641L29.1608 15.8032V17.0797L28.1693 18.0712H26.8928Z" fill="white"/>
</g>
<mask id="mask2_1624_128005" style="mask-type:luminance" maskUnits="userSpaceOnUse" x="26" y="15" width="4" height="3">
<path d="M28.6651 15.7793C29.1609 16.275 29.1609 17.079 28.6651 17.5755C28.1694 18.0713 27.3646 18.0713 26.8689 17.5755C26.3731 17.0798 26.3731 16.275 26.8689 15.7793C27.3646 15.2835 28.1694 15.2835 28.6651 15.7793Z" fill="white"/>
</mask>
<g mask="url(#mask2_1624_128005)">
<path d="M27.3645 15.2834L26.373 16.2757V15.2834H27.3645Z" fill="white"/>
</g>
<path d="M33.6019 14.9032C33.2351 14.6497 32.8174 14.5364 32.3696 14.6032C32.1799 14.6309 32.0239 14.4539 32.0681 14.2679C32.0899 14.1757 32.1574 14.0969 32.2481 14.0684C32.8669 13.8757 33.4879 13.9792 33.9634 14.4704C34.0264 14.5357 34.0481 14.6317 34.0271 14.7202L34.0226 14.7382C33.9784 14.9242 33.7601 15.0119 33.6019 14.9032Z" fill="#414042"/>
<mask id="mask3_1624_128005" style="mask-type:luminance" maskUnits="userSpaceOnUse" x="31" y="15" width="3" height="4">
<path d="M32.3099 18.0502C33.0252 18.0502 33.6051 17.4703 33.6051 16.755C33.6051 16.0396 33.0252 15.4597 32.3099 15.4597C31.5946 15.4597 31.0146 16.0396 31.0146 16.755C31.0146 17.4703 31.5946 18.0502 32.3099 18.0502Z" fill="white"/>
</mask>
<g mask="url(#mask3_1624_128005)">
<path d="M32.7197 18.177L33.7307 17.1653V18.177H32.7197Z" fill="white"/>
</g>
<mask id="mask4_1624_128005" style="mask-type:luminance" maskUnits="userSpaceOnUse" x="31" y="15" width="3" height="4">
<path d="M32.3099 18.0502C33.0252 18.0502 33.6051 17.4703 33.6051 16.755C33.6051 16.0396 33.0252 15.4597 32.3099 15.4597C31.5946 15.4597 31.0146 16.0396 31.0146 16.755C31.0146 17.4703 31.5946 18.0502 32.3099 18.0502Z" fill="white"/>
</mask>
<g mask="url(#mask4_1624_128005)">
<path d="M31.4189 18.177L30.8887 17.6467V16.3455L31.9004 15.3337H33.2009L33.7312 15.864V17.1652L32.7202 18.177H31.4189Z" fill="white"/>
</g>
<mask id="mask5_1624_128005" style="mask-type:luminance" maskUnits="userSpaceOnUse" x="31" y="15" width="3" height="4">
<path d="M32.3099 18.0502C33.0252 18.0502 33.6051 17.4703 33.6051 16.755C33.6051 16.0396 33.0252 15.4597 32.3099 15.4597C31.5946 15.4597 31.0146 16.0396 31.0146 16.755C31.0146 17.4703 31.5946 18.0502 32.3099 18.0502Z" fill="white"/>
</mask>
<g mask="url(#mask5_1624_128005)">
<path d="M31.9004 15.3337L30.8887 16.3455V15.3337H31.9004Z" fill="white"/>
</g>
<path d="M32.2973 16.3418C32.1196 16.3418 31.9756 16.5248 31.9756 16.7505C31.9756 16.9763 32.1196 17.1593 32.2973 17.1593C32.4751 17.1593 32.6191 16.9763 32.6191 16.7505C32.6183 16.5248 32.4743 16.3418 32.2973 16.3418Z" fill="#210601"/>
<path d="M27.7671 16.3081C27.5893 16.3081 27.4453 16.4911 27.4453 16.7169C27.4453 16.9426 27.5893 17.1256 27.7671 17.1256C27.9448 17.1256 28.0888 16.9426 28.0888 16.7169C28.0888 16.4911 27.9448 16.3081 27.7671 16.3081Z" fill="#210601"/>
<path d="M33.5829 16.3344C33.4059 15.7899 32.8996 15.3931 32.2974 15.3931C31.6201 15.3931 31.0621 15.8934 30.9609 16.5421C30.9601 16.5421 30.9601 16.5429 30.9594 16.5429C30.7224 16.2751 30.3819 16.1019 29.9971 16.1019C29.6476 16.1019 29.3326 16.2436 29.1001 16.4694C28.9831 15.8386 28.4311 15.3594 27.7674 15.3594C27.1651 15.3594 26.6589 15.7561 26.4819 16.3006C24.2266 15.5019 23.6709 15.3969 23.5216 15.4246C23.4774 15.4329 23.4391 15.4996 23.4316 15.5371L23.5479 15.5844C23.5479 15.5844 23.5681 15.5551 23.5711 15.5551C23.7669 15.5326 25.1694 15.9886 26.4399 16.4379C26.4211 16.5279 26.4106 16.6216 26.4106 16.7176C26.4106 17.4661 27.0196 18.0751 27.7681 18.0751C28.2706 18.0751 28.7049 17.7976 28.9396 17.3911C28.9794 17.3859 29.0206 17.3694 29.0544 17.3521C29.0934 17.3326 29.1301 17.3056 29.1594 17.2734C29.2179 17.2096 29.2539 17.1279 29.2651 17.0431C29.2944 16.8316 29.2456 16.6779 29.1856 16.5886C29.3934 16.3779 29.6784 16.2451 29.9971 16.2451C30.3444 16.2451 30.6519 16.4034 30.8626 16.6479C30.8109 16.7401 30.7734 16.8841 30.7996 17.0761C30.8116 17.1609 30.8476 17.2426 30.9054 17.3064C30.9346 17.3386 30.9714 17.3656 31.0104 17.3851C31.0441 17.4024 31.0861 17.4181 31.1259 17.4241C31.3606 17.8306 31.7949 18.1081 32.2974 18.1081C33.0459 18.1081 33.6549 17.4991 33.6549 16.7506C33.6549 16.6546 33.6444 16.5616 33.6256 16.4716C34.9149 16.0149 36.3159 15.5491 36.4756 15.5881C36.4704 15.5866 36.6196 15.5289 36.6196 15.5289C36.5746 15.4336 36.5131 15.2956 33.5829 16.3344ZM27.7666 17.9319C27.0969 17.9319 26.5524 17.3874 26.5524 16.7176C26.5524 16.0479 27.0969 15.5034 27.7666 15.5034C28.4364 15.5034 28.9809 16.0479 28.9809 16.7176C28.9809 17.3874 28.4364 17.9319 27.7666 17.9319ZM29.1204 17.1114C29.1061 17.1414 29.0874 17.1691 29.0619 17.1916C29.0521 17.1999 29.0394 17.2051 29.0281 17.2119C29.0836 17.0709 29.1151 16.9186 29.1204 16.7589C29.1324 16.7844 29.1451 16.8091 29.1489 16.8384C29.1616 16.9261 29.1519 17.0259 29.1204 17.1114ZM31.0021 17.2246C30.9766 17.2021 30.9586 17.1744 30.9436 17.1444C30.9121 17.0589 30.9016 16.9591 30.9144 16.8714C30.9189 16.8421 30.9316 16.8174 30.9436 16.7919C30.9489 16.9516 30.9804 17.1039 31.0359 17.2456C31.0246 17.2381 31.0119 17.2336 31.0021 17.2246ZM32.2974 17.9649C31.6276 17.9649 31.0831 17.4204 31.0831 16.7506C31.0831 16.0809 31.6276 15.5364 32.2974 15.5364C32.9671 15.5364 33.5116 16.0809 33.5116 16.7506C33.5116 17.4204 32.9664 17.9649 32.2974 17.9649Z" fill="#3B0C77"/>
<path d="M26.4623 14.8695C26.8291 14.616 27.2468 14.5027 27.6946 14.5695C27.8843 14.5972 28.0403 14.4202 27.9961 14.2342C27.9743 14.142 27.9068 14.0632 27.8161 14.0347C27.1973 13.842 26.5763 13.9455 26.1008 14.4367C26.0378 14.502 26.0161 14.598 26.0371 14.6865L26.0416 14.7045C26.0858 14.8912 26.3041 14.979 26.4623 14.8695Z" fill="#414042"/>
<g opacity="0.1">
<path d="M29.2357 28.6583L25.8877 25.1108L28.1399 30.0856L28.6732 29.3911L29.2357 28.6583Z" fill="white"/>
</g>
<g opacity="0.1">
<path d="M34.0658 25.1108L31.8135 30.0856L31.2803 29.3911L34.0658 25.1108Z" fill="white"/>
</g>
<g opacity="0.2">
<path d="M30.9658 29.3018L30.9703 52.0628H31.1143V29.5815L30.9658 29.3018Z" fill="white"/>
</g>
<path d="M30.3271 54.4515H13.8721V46.0095L29.8388 51.459C30.1283 51.558 30.3271 51.8715 30.3271 52.2278V54.4515Z" fill="white"/>
<path d="M35.0906 54.4479H51.1151C51.1151 54.4479 52.9226 51.9549 52.9226 49.8354C52.9226 47.7159 47.4378 33.3609 45.5673 31.7536C43.6976 30.1464 35.0898 26.8809 35.0898 26.8809V54.4479H35.0906Z" fill="white"/>
<path d="M36.5885 50.1443C36.3357 51.2438 36.0822 52.3433 35.8295 53.4435H34.721C34.6062 43.7505 34.4915 34.0575 34.376 24.3645C34.9977 24.8895 35.648 25.4925 36.3012 26.1825C37.6895 27.6495 38.7177 29.1135 39.4752 30.39L36.4895 29.8125L40.3685 33.7163C39.2705 38.487 38.1732 43.257 37.0752 48.0278C36.9132 48.7328 36.7512 49.4385 36.5885 50.1443Z" fill="#3B0C77"/>
<path d="M35.2198 53.139H34.1113V23.8748C34.1113 23.8748 34.7826 24.1628 36.1056 25.503C37.7593 27.1793 38.8663 30.0855 38.8663 30.0855L35.8806 29.508L39.7596 33.4118L35.2198 53.139Z" fill="white"/>
<path d="M36.3899 48.6054C39.4184 47.8119 42.4469 47.0176 45.4754 46.2241C42.3457 47.2974 39.2167 48.3699 36.0869 49.4431C36.1882 49.1634 36.2894 48.8844 36.3899 48.6054Z" fill="#3B0C77"/>
<path d="M17.8244 54.0143H30.3007V51.9953L24.4957 51.162C24.2534 51.1275 24.0089 51.1455 23.7697 51.216L17.7622 52.9965C17.6054 53.043 17.4922 53.2545 17.4922 53.5005C17.4914 53.7848 17.6407 54.0143 17.8244 54.0143Z" fill="#DCC4AA"/>
<path d="M29.3486 54.6952H45.8036V46.2539L29.8369 51.7034C29.5474 51.8024 29.3486 52.1159 29.3486 52.4722V54.6952Z" fill="#3B0C77"/>
<path d="M29.6738 54.4515H46.1288V46.0095L30.1621 51.459C29.8726 51.558 29.6738 51.8715 29.6738 52.2278V54.4515Z" fill="white"/>
</g>
<defs>
<clipPath id="clip0_1624_128005">
<rect width="60" height="60" rx="8" fill="white"/>
</clipPath>
</defs>
</svg>
