<svg width="36" height="44" viewBox="0 0 36 44" fill="none" xmlns="http://www.w3.org/2000/svg">
<path d="M17.6464 34.3536C17.8417 34.5488 18.1583 34.5488 18.3536 34.3536L21.5355 31.1716C21.7308 30.9763 21.7308 30.6597 21.5355 30.4645C21.3403 30.2692 21.0237 30.2692 20.8284 30.4645L18 33.2929L15.1716 30.4645C14.9763 30.2692 14.6597 30.2692 14.4645 30.4645C14.2692 30.6597 14.2692 30.9763 14.4645 31.1716L17.6464 34.3536ZM17.5 22L17.5 34L18.5 34L18.5 22L17.5 22Z" fill="#361272"/>
<path d="M18.3536 9.64645C18.1583 9.45118 17.8417 9.45118 17.6464 9.64645L14.4645 12.8284C14.2692 13.0237 14.2692 13.3403 14.4645 13.5355C14.6597 13.7308 14.9763 13.7308 15.1716 13.5355L18 10.7071L20.8284 13.5355C21.0237 13.7308 21.3403 13.7308 21.5355 13.5355C21.7308 13.3403 21.7308 13.0237 21.5355 12.8284L18.3536 9.64645ZM18.5 22V10H17.5V22H18.5Z" fill="#361272"/>
<path d="M30.3536 22.3536C30.5488 22.1583 30.5488 21.8417 30.3536 21.6464L27.1716 18.4645C26.9763 18.2692 26.6597 18.2692 26.4645 18.4645C26.2692 18.6597 26.2692 18.9763 26.4645 19.1716L29.2929 22L26.4645 24.8284C26.2692 25.0237 26.2692 25.3403 26.4645 25.5355C26.6597 25.7308 26.9763 25.7308 27.1716 25.5355L30.3536 22.3536ZM18 22.5H30V21.5H18V22.5Z" fill="#361272"/>
<path d="M5.64645 22.3536C5.45118 22.1583 5.45118 21.8417 5.64645 21.6464L8.82843 18.4645C9.02369 18.2692 9.34027 18.2692 9.53553 18.4645C9.7308 18.6597 9.7308 18.9763 9.53553 19.1716L6.70711 22L9.53553 24.8284C9.7308 25.0237 9.7308 25.3403 9.53553 25.5355C9.34027 25.7308 9.02369 25.7308 8.82843 25.5355L5.64645 22.3536ZM18 22.5H6V21.5H18V22.5Z" fill="#361272"/>
<path d="M15.1357 2.37598V6H14.5293V2.37598H13.1318V1.79883H16.5332V2.37598H15.1357ZM16.5801 4.47656C16.5801 4.17969 16.6455 3.91211 16.7764 3.67383C16.9072 3.43555 17.0898 3.24902 17.3242 3.11426C17.5605 2.98145 17.8223 2.91504 18.1094 2.91504C18.4004 2.91504 18.6631 2.98145 18.8975 3.11426C19.1318 3.24707 19.3154 3.43262 19.4482 3.6709C19.5752 3.91309 19.6387 4.18164 19.6387 4.47656C19.6387 4.77344 19.5742 5.04004 19.4453 5.27637C19.3184 5.5127 19.1377 5.69824 18.9033 5.83301C18.6748 5.96777 18.4102 6.03516 18.1094 6.03516C17.8184 6.03516 17.5557 5.96777 17.3213 5.83301C17.0889 5.69824 16.9082 5.51172 16.7793 5.27344C16.6465 5.03711 16.5801 4.77148 16.5801 4.47656ZM17.4326 3.73828C17.2568 3.93555 17.1689 4.18164 17.1689 4.47656C17.1689 4.77148 17.2568 5.01758 17.4326 5.21484C17.6045 5.40625 17.8301 5.50195 18.1094 5.50195C18.3945 5.50195 18.623 5.40625 18.7949 5.21484C18.9668 5.02344 19.0527 4.77734 19.0527 4.47656C19.0527 4.17578 18.9668 3.92969 18.7949 3.73828C18.623 3.54688 18.3945 3.45117 18.1094 3.45117C17.8301 3.45117 17.6045 3.54688 17.4326 3.73828ZM20.3213 7.32715V2.98828H20.8984V3.48633C20.9941 3.30664 21.1367 3.16699 21.3262 3.06738C21.5176 2.96582 21.7354 2.91504 21.9795 2.91504C22.2744 2.91504 22.5312 2.98535 22.75 3.12598C22.9707 3.26465 23.1377 3.45508 23.251 3.69727C23.3584 3.92969 23.4121 4.18555 23.4121 4.46484C23.4121 4.74414 23.3555 5 23.2422 5.23242C23.1289 5.46484 22.9658 5.65039 22.7529 5.78906C22.5264 5.92969 22.2666 6 21.9736 6C21.7373 6 21.5283 5.95508 21.3467 5.86523C21.165 5.77344 21.0195 5.64258 20.9102 5.47266V7.32715H20.3213ZM20.9102 4.45898C20.9102 4.75586 21 4.99707 21.1797 5.18262C21.3594 5.37598 21.5938 5.47266 21.8828 5.47266C22.1641 5.47266 22.3916 5.37598 22.5654 5.18262C22.7373 4.99902 22.8232 4.75781 22.8232 4.45898C22.8232 4.17969 22.7422 3.93945 22.5801 3.73828C22.416 3.54297 22.1836 3.44531 21.8828 3.44531C21.5957 3.44531 21.3613 3.53906 21.1797 3.72656C21 3.92188 20.9102 4.16602 20.9102 4.45898Z" fill="#3B0C77"/>
<path d="M33.0986 23.4229H34.9648V24H32.4922V19.7988H33.0986V23.4229Z" fill="#3B0C77"/>
<path d="M0.492188 19.7988H1.99805C2.20703 19.7988 2.39355 19.8291 2.55762 19.8896C2.72363 19.9502 2.8584 20.0332 2.96191 20.1387C3.06738 20.2422 3.14648 20.3633 3.19922 20.502C3.25391 20.6387 3.28125 20.7871 3.28125 20.9473C3.28125 21.207 3.20312 21.4404 3.04688 21.6475C2.89062 21.8525 2.67676 21.9951 2.40527 22.0752L3.55664 24H2.84473L1.79883 22.2129H1.09863V24H0.492188V19.7988ZM1.09863 21.6709H1.91309C2.1377 21.6709 2.31836 21.6084 2.45508 21.4834C2.59375 21.3564 2.66309 21.1973 2.66309 21.0059C2.66309 20.8086 2.59766 20.6514 2.4668 20.5342C2.33789 20.417 2.15918 20.3584 1.93066 20.3584H1.09863V21.6709Z" fill="#3B0C77"/>
<path d="M7.89844 37.7988H9.41602C9.59961 37.7988 9.76562 37.8271 9.91406 37.8838C10.0645 37.9404 10.1865 38.0166 10.2803 38.1123C10.376 38.2061 10.4492 38.3145 10.5 38.4375C10.5527 38.5586 10.5791 38.6865 10.5791 38.8213C10.5791 39.0439 10.5156 39.2432 10.3887 39.4189C10.2637 39.5928 10.0898 39.707 9.86719 39.7617C10.1484 39.8223 10.3652 39.9453 10.5176 40.1309C10.6719 40.3145 10.749 40.5312 10.749 40.7812C10.749 40.9414 10.7168 41.0947 10.6523 41.2412C10.5879 41.3877 10.498 41.5176 10.3828 41.6309C10.2676 41.7422 10.1221 41.832 9.94629 41.9004C9.77051 41.9668 9.57812 42 9.36914 42H7.89844V37.7988ZM8.50488 41.4434H9.375C9.61133 41.4434 9.79688 41.3799 9.93164 41.2529C10.0684 41.124 10.1367 40.957 10.1367 40.752C10.1367 40.5547 10.0664 40.3926 9.92578 40.2656C9.78711 40.1387 9.59961 40.0752 9.36328 40.0752H8.50488V41.4434ZM8.50488 39.583H9.25488C9.47363 39.583 9.64551 39.5215 9.77051 39.3984C9.89746 39.2754 9.96094 39.1201 9.96094 38.9326C9.96094 38.7549 9.89941 38.6152 9.77637 38.5137C9.65527 38.4102 9.49121 38.3584 9.28418 38.3584H8.50488V39.583ZM11.3145 40.4766C11.3145 40.1797 11.3799 39.9121 11.5107 39.6738C11.6416 39.4355 11.8242 39.249 12.0586 39.1143C12.2949 38.9814 12.5566 38.915 12.8438 38.915C13.1348 38.915 13.3975 38.9814 13.6318 39.1143C13.8662 39.2471 14.0498 39.4326 14.1826 39.6709C14.3096 39.9131 14.373 40.1816 14.373 40.4766C14.373 40.7734 14.3086 41.04 14.1797 41.2764C14.0527 41.5127 13.8721 41.6982 13.6377 41.833C13.4092 41.9678 13.1445 42.0352 12.8438 42.0352C12.5527 42.0352 12.29 41.9678 12.0557 41.833C11.8232 41.6982 11.6426 41.5117 11.5137 41.2734C11.3809 41.0371 11.3145 40.7715 11.3145 40.4766ZM12.167 39.7383C11.9912 39.9355 11.9033 40.1816 11.9033 40.4766C11.9033 40.7715 11.9912 41.0176 12.167 41.2148C12.3389 41.4062 12.5645 41.502 12.8438 41.502C13.1289 41.502 13.3574 41.4062 13.5293 41.2148C13.7012 41.0234 13.7871 40.7773 13.7871 40.4766C13.7871 40.1758 13.7012 39.9297 13.5293 39.7383C13.3574 39.5469 13.1289 39.4512 12.8438 39.4512C12.5645 39.4512 12.3389 39.5469 12.167 39.7383ZM14.6631 38.9883H15.293V38.1826H15.8848V38.9883H16.8105V39.5156H15.8848V40.9805C15.8848 41.1484 15.9316 41.2773 16.0254 41.3672C16.1191 41.457 16.2441 41.502 16.4004 41.502C16.5762 41.502 16.7451 41.4502 16.9072 41.3467L17.0742 41.7715C16.8184 41.9473 16.5459 42.0352 16.2568 42.0352C15.9658 42.0352 15.7324 41.9482 15.5566 41.7744C15.3809 41.6006 15.293 41.3613 15.293 41.0566V39.5156H14.6631V38.9883ZM17.2764 38.9883H17.9062V38.1826H18.498V38.9883H19.4238V39.5156H18.498V40.9805C18.498 41.1484 18.5449 41.2773 18.6387 41.3672C18.7324 41.457 18.8574 41.502 19.0137 41.502C19.1895 41.502 19.3584 41.4502 19.5205 41.3467L19.6875 41.7715C19.4316 41.9473 19.1592 42.0352 18.8701 42.0352C18.5791 42.0352 18.3457 41.9482 18.1699 41.7744C17.9941 41.6006 17.9062 41.3613 17.9062 41.0566V39.5156H17.2764V38.9883ZM19.9688 40.4766C19.9688 40.1797 20.0342 39.9121 20.165 39.6738C20.2959 39.4355 20.4785 39.249 20.7129 39.1143C20.9492 38.9814 21.2109 38.915 21.498 38.915C21.7891 38.915 22.0518 38.9814 22.2861 39.1143C22.5205 39.2471 22.7041 39.4326 22.8369 39.6709C22.9639 39.9131 23.0273 40.1816 23.0273 40.4766C23.0273 40.7734 22.9629 41.04 22.834 41.2764C22.707 41.5127 22.5264 41.6982 22.292 41.833C22.0635 41.9678 21.7988 42.0352 21.498 42.0352C21.207 42.0352 20.9443 41.9678 20.71 41.833C20.4775 41.6982 20.2969 41.5117 20.168 41.2734C20.0352 41.0371 19.9688 40.7715 19.9688 40.4766ZM20.8213 39.7383C20.6455 39.9355 20.5576 40.1816 20.5576 40.4766C20.5576 40.7715 20.6455 41.0176 20.8213 41.2148C20.9932 41.4062 21.2188 41.502 21.498 41.502C21.7832 41.502 22.0117 41.4062 22.1836 41.2148C22.3555 41.0234 22.4414 40.7773 22.4414 40.4766C22.4414 40.1758 22.3555 39.9297 22.1836 39.7383C22.0117 39.5469 21.7832 39.4512 21.498 39.4512C21.2188 39.4512 20.9932 39.5469 20.8213 39.7383ZM23.71 38.9883H24.2871V39.4922C24.4688 39.1074 24.7744 38.915 25.2041 38.915C25.4404 38.915 25.6387 38.9688 25.7988 39.0762C25.959 39.1836 26.0732 39.3379 26.1416 39.5391C26.2393 39.3379 26.374 39.1836 26.5459 39.0762C26.7178 38.9688 26.9189 38.915 27.1494 38.915C27.4717 38.915 27.7217 39.0137 27.8994 39.2109C28.0791 39.4062 28.1689 39.6816 28.1689 40.0371V42H27.5801V40.1514C27.5801 39.9229 27.5293 39.748 27.4277 39.627C27.3262 39.5059 27.1758 39.4453 26.9766 39.4453C26.7539 39.4453 26.5742 39.5264 26.4375 39.6885C26.3008 39.8506 26.2324 40.0791 26.2324 40.374V42H25.6436V40.1514C25.6436 39.9248 25.5918 39.751 25.4883 39.6299C25.3848 39.5068 25.2363 39.4453 25.043 39.4453C24.8203 39.4453 24.6406 39.5264 24.5039 39.6885C24.3672 39.8506 24.2988 40.0791 24.2988 40.374V42H23.71V38.9883Z" fill="#3B0C77"/>
</svg>
