<svg width="41" height="40" viewBox="0 0 41 40" fill="none" xmlns="http://www.w3.org/2000/svg">
<path d="M35.6819 36.2827L35.7231 36.1184L35.7257 36.1083L35.7287 36.0983C36.0378 35.0543 36.7184 34.3299 37.6815 33.9632L37.6815 33.9632C37.7845 33.924 37.8879 33.8871 37.9912 33.852L37.7094 33.7695L37.6849 33.7623L37.6612 33.7527C36.7734 33.391 36.0906 32.74 35.7713 31.7396L35.766 31.7231L35.7619 31.7064L35.693 31.4249L35.6688 31.5234L35.6665 31.5329L35.6638 31.5423C35.3492 32.6369 34.6503 33.409 33.6212 33.78L33.6212 33.78C33.5432 33.8081 33.4649 33.835 33.3863 33.8609L33.4691 33.8846L33.477 33.8869L33.4848 33.8894C34.3291 34.1621 35.0688 34.7028 35.4574 35.6522L35.6819 36.2827ZM35.6819 36.2827C35.6156 36.0712 35.5422 35.8593 35.4574 35.6523L35.6819 36.2827Z" stroke="#A97AF9" stroke-miterlimit="10"/>
<path d="M20.0455 34.9092C29.0829 34.9092 36.4092 27.7457 36.4092 18.9092C36.4092 10.0726 29.0829 2.90918 20.0455 2.90918C11.0081 2.90918 3.68188 10.0726 3.68188 18.9092C3.68188 27.7457 11.0081 34.9092 20.0455 34.9092Z" stroke="#371471" stroke-width="3" stroke-linecap="round" stroke-linejoin="round"/>
<path d="M12.4092 22.5454C13.9077 25.7594 17.2357 27.7748 20.7813 27.6289C24.0706 27.4934 27.0295 25.5197 28.4092 22.5454" stroke="#A97AF9" stroke-width="3" stroke-linecap="round" stroke-linejoin="round"/>
<path d="M13.0738 15.6579C14.2085 15.6579 15.1284 14.7381 15.1284 13.6034C15.1284 12.4687 14.2085 11.5488 13.0738 11.5488C11.9391 11.5488 11.0193 12.4687 11.0193 13.6034C11.0193 14.7381 11.9391 15.6579 13.0738 15.6579Z" fill="#A97AF9"/>
<path d="M27.3863 15.6579C28.521 15.6579 29.4409 14.7381 29.4409 13.6034C29.4409 12.4687 28.521 11.5488 27.3863 11.5488C26.2516 11.5488 25.3318 12.4687 25.3318 13.6034C25.3318 14.7381 26.2516 15.6579 27.3863 15.6579Z" fill="#A97AF9"/>
</svg>
