<svg width="40" height="40" viewBox="0 0 40 40" fill="none" xmlns="http://www.w3.org/2000/svg">
<g clip-path="url(#clip0_1345_127747)">
<path d="M26.7658 5H14.2342C13.5524 5 13 5.59366 13 6.32519V33.6748C13 34.4072 13.5524 35 14.2342 35H26.7658C27.4476 35 28 34.4063 28 33.6748V6.32519C28 5.59285 27.4476 5 26.7658 5ZM26.8521 31.4632C26.8521 32.022 26.4308 32.4745 25.9106 32.4745H15.1522C14.632 32.4745 14.2106 32.022 14.2106 31.4632V7.0997C14.2106 6.54092 14.632 6.08837 15.1522 6.08837H25.9106C26.4308 6.08837 26.8521 6.54092 26.8521 7.0997V31.4632Z" fill="#361371"/>
<path d="M20.9405 12.2868L21.9506 14.4256C22.0218 14.5773 22.1607 14.6821 22.3207 14.7069L24.5784 15.0497C24.9819 15.1113 25.1428 15.6288 24.8509 15.9266L23.2166 17.5921C23.1005 17.7097 23.0478 17.8807 23.075 18.0471L23.461 20.3983C23.5295 20.8183 23.1084 21.1382 22.748 20.9396L20.7286 19.8293C20.5853 19.7503 20.4147 19.7503 20.2714 19.8293L18.252 20.9396C17.8916 21.1382 17.4696 20.8174 17.539 20.3983L17.925 18.0471C17.9522 17.8807 17.8995 17.7107 17.7834 17.5921L16.1491 15.9266C15.8572 15.6297 16.0181 15.1113 16.4216 15.0497L18.6793 14.7069C18.8393 14.683 18.9782 14.5773 19.0494 14.4256L20.0595 12.2868C20.2398 11.9044 20.7611 11.9044 20.9413 12.2868H20.9405Z" stroke="#B473F9" stroke-miterlimit="10"/>
<path d="M32.2942 17.1908L32.9675 18.6171C33.0156 18.7184 33.1077 18.7884 33.214 18.8048L34.7189 19.0338C34.9874 19.0749 35.0953 19.42 34.9008 19.6184L33.8117 20.7285C33.7345 20.8075 33.6991 20.9203 33.7172 21.0315L33.9739 22.5986C34.0196 22.8785 33.7393 23.0918 33.4983 22.9601L32.1525 22.2198C32.0572 22.1671 31.943 22.1671 31.8477 22.2198L30.5019 22.9601C30.2617 23.0918 29.9806 22.8785 30.0262 22.5986L30.283 21.0315C30.3011 20.9203 30.2656 20.8067 30.1885 20.7285L29.0994 19.6184C28.9049 19.42 29.012 19.0749 29.2813 19.0338L30.7862 18.8048C30.8933 18.7884 30.9854 18.7184 31.0327 18.6171L31.706 17.1908C31.8265 16.9364 32.1737 16.9364 32.2934 17.1908H32.2942Z" stroke="#B473F9" stroke-width="0.5" stroke-miterlimit="10"/>
<path d="M38.1959 22.1271L38.6448 23.0783C38.6766 23.1455 38.7377 23.1921 38.8092 23.2029L39.8126 23.3557C39.9921 23.3831 40.0636 23.6132 39.9333 23.7453L39.2072 24.4855C39.1556 24.5378 39.1326 24.6134 39.1445 24.6873L39.3161 25.7323C39.3471 25.9193 39.1596 26.0613 38.9991 25.9733L38.1014 25.4798C38.0379 25.4449 37.9616 25.4449 37.898 25.4798L37.0004 25.9733C36.8399 26.0613 36.6524 25.9193 36.6834 25.7323L36.855 24.6873C36.8669 24.6134 36.8439 24.5378 36.7922 24.4855L36.0661 23.7453C35.9366 23.6132 36.0081 23.3831 36.1869 23.3557L37.1902 23.2029C37.2617 23.1921 37.3229 23.1455 37.3547 23.0783L37.8035 22.1271C37.8837 21.9576 38.1149 21.9576 38.1952 22.1271H38.1959Z" stroke="#B473F9" stroke-width="0.25" stroke-miterlimit="10"/>
<path d="M9.29422 17.1908L9.96753 18.6171C10.0156 18.7184 10.1077 18.7884 10.214 18.8048L11.7189 19.0338C11.9874 19.0749 12.0953 19.42 11.9008 19.6184L10.8117 20.7285C10.7345 20.8075 10.6991 20.9203 10.7172 21.0315L10.9739 22.5986C11.0196 22.8785 10.7393 23.0918 10.4983 22.9601L9.15247 22.2198C9.05719 22.1671 8.943 22.1671 8.84771 22.2198L7.50189 22.9601C7.26171 23.0918 6.98057 22.8785 7.02625 22.5986L7.28297 21.0315C7.30108 20.9203 7.26565 20.8067 7.18847 20.7285L6.09937 19.6184C5.90486 19.42 6.01196 19.0749 6.28128 19.0338L7.78618 18.8048C7.89328 18.7884 7.98541 18.7184 8.03266 18.6171L8.70597 17.1908C8.82645 16.9364 9.17374 16.9364 9.29343 17.1908H9.29422Z" stroke="#B473F9" stroke-width="0.5" stroke-miterlimit="10"/>
<path d="M2.19595 22.1271L2.64479 23.0783C2.67657 23.1455 2.73774 23.1921 2.80924 23.2029L3.81258 23.3557C3.99212 23.3831 4.06362 23.6132 3.93334 23.7453L3.20724 24.4855C3.1556 24.5378 3.13256 24.6134 3.14448 24.6873L3.31607 25.7323C3.34706 25.9193 3.15957 26.0613 2.9991 25.9733L2.10141 25.4798C2.03786 25.4449 1.9616 25.4449 1.89804 25.4798L1.00035 25.9733C0.839882 26.0613 0.6524 25.9193 0.683382 25.7323L0.854976 24.6873C0.866892 24.6134 0.843853 24.5378 0.792216 24.4855L0.066121 23.7453C-0.0633687 23.6132 0.00812842 23.3831 0.186872 23.3557L1.19022 23.2029C1.26172 23.1921 1.32289 23.1455 1.35466 23.0783L1.80351 22.1271C1.88374 21.9576 2.11492 21.9576 2.19515 22.1271H2.19595Z" stroke="#B473F9" stroke-width="0.25" stroke-miterlimit="10"/>
</g>
<defs>
<clipPath id="clip0_1345_127747">
<rect width="40" height="40" fill="white"/>
</clipPath>
</defs>
</svg>
