<?xml version="1.0" encoding="utf-8"?>
<!-- Generator: Adobe Illustrator 26.3.1, SVG Export Plug-In . SVG Version: 6.00 Build 0)  -->
<svg width="17" height="16" viewBox="0 0 17 16" fill="none" xmlns="http://www.w3.org/2000/svg">

<g>
	<path class="st0" d="M534.1,77.3H165.9c-10.4,0-20.3,4.1-27.6,11.5c-7.3,7.3-11.4,17.2-11.4,27.6v467.4c0,10.4,4.1,20.3,11.4,27.6
		c7.3,7.3,17.2,11.4,27.6,11.5h368.1c10.4,0,20.3-4.1,27.6-11.5c7.3-7.3,11.4-17.2,11.4-27.6V116.3c0-10.4-4.1-20.3-11.4-27.6
		C554.4,81.4,544.4,77.3,534.1,77.3L534.1,77.3z M546.9,583.7c0,7.1-5.7,12.8-12.8,12.8H165.9c-7.1,0-12.8-5.7-12.8-12.8V116.3
		c0-7.1,5.7-12.8,12.8-12.8h32.3c3-0.2,6,1,8,3.3c2.2,2.7,6.7,11.9,0.8,37.9c-1.6,7.1,2.8,14.1,9.9,15.7c1,0.2,1.9,0.3,2.9,0.3
		c6.1,0,11.4-4.3,12.8-10.2c4.4-15.3,4.7-31.5,0.9-47h50.8c3-0.2,6,1,8,3.3c2.2,2.7,6.6,11.9,0.8,37.9c-1.6,7.1,2.8,14.1,9.9,15.7
		c1,0.2,1.9,0.3,2.9,0.3c6.1,0,11.4-4.3,12.8-10.2c4.4-15.3,4.7-31.5,0.9-47h50.8c3-0.2,6,1,8,3.3c2.2,2.7,6.7,11.9,0.8,37.9
		c-1.6,7.1,2.8,14.1,9.9,15.7c0.9,0.2,1.9,0.3,2.9,0.3c6.1,0,11.4-4.3,12.8-10.2c4.4-15.3,4.7-31.5,0.9-47h50.8c3-0.2,6,1,8,3.3
		c2.2,2.7,6.6,11.9,0.7,37.9v0c-0.8,3.4-0.2,7,1.7,9.9c1.9,3,4.8,5.1,8.2,5.8c1,0.2,1.9,0.3,2.9,0.3c6.1,0,11.5-4.3,12.8-10.3
		c4.4-15.3,4.7-31.5,0.9-47H534c3.4,0,6.7,1.3,9.1,3.7c2.4,2.4,3.8,5.7,3.8,9.1L546.9,583.7z"/>
	<path class="st0" d="M204.6,251H399c7.2,0,13.1-5.9,13.1-13.1c0-7.2-5.9-13.1-13.1-13.1H204.6c-7.2,0-13.1,5.9-13.1,13.1
		C191.5,245.1,197.4,251,204.6,251z"/>
	<path class="st0" d="M204.6,332.4h255.6c7.2,0,13.1-5.9,13.1-13.1c0-7.2-5.9-13.1-13.1-13.1H204.6c-7.2,0-13.1,5.9-13.1,13.1
		C191.5,326.5,197.4,332.4,204.6,332.4z"/>
	<path class="st0" d="M429.5,386c-24.6,0-48.1,9.8-65.5,27.1c-17.4,17.4-27.1,40.9-27.1,65.5c0,24.6,9.8,48.1,27.1,65.5
		c17.4,17.4,40.9,27.1,65.5,27.1c24.6,0,48.1-9.8,65.5-27.1c17.4-17.4,27.1-40.9,27.1-65.5c0-24.6-9.8-48.1-27.2-65.5
		C477.6,395.8,454,386.1,429.5,386L429.5,386z M429.5,544.4c-17.4,0-34.1-6.9-46.5-19.3c-12.3-12.3-19.2-29-19.2-46.5
		c0-17.4,6.9-34.1,19.3-46.5c12.3-12.3,29-19.2,46.5-19.2c17.4,0,34.1,6.9,46.5,19.3c12.3,12.3,19.2,29,19.2,46.5
		c0,17.4-6.9,34.1-19.3,46.5C463.6,537.5,446.9,544.4,429.5,544.4z"/>
	<g>
		<path class="st0" d="M419,512.8l-31.5-23.7c-5.3-4-6.4-11.5-2.4-16.8s11.5-6.4,16.8-2.4l16.4,12.3l38.3-31.6
			c5.1-4.2,12.7-3.5,16.9,1.6c4.2,5.1,3.5,12.7-1.6,16.9L419,512.8z"/>
	</g>
</g>
</svg>
