<svg width="41" height="40" viewBox="0 0 41 40" fill="none" xmlns="http://www.w3.org/2000/svg">
<g clip-path="url(#clip0_1796_127775)">
<path d="M3.03248 39.1667C2.7676 33.668 4.16679 31.2957 5.63281 30.1783C8.55135 27.9542 12.7857 29.9057 15.0206 27.2164C16.0801 25.9414 16.2248 24.5302 16.3333 23.3334" stroke="#3B0C77" stroke-width="2" stroke-linecap="round" stroke-linejoin="round"/>
<path d="M38.8009 39.1667C39.0657 33.668 37.6665 31.2957 36.2005 30.1783C33.282 27.9542 29.0476 29.9057 26.8127 27.2164C25.7532 25.9414 25.6085 24.5302 25.5 23.3334" stroke="#3B0C77" stroke-width="2" stroke-linecap="round" stroke-linejoin="round"/>
<path d="M12.2089 11.7986C12.1277 12.3785 12.1852 12.9278 12.2057 13.9062C12.2415 15.6002 12.322 19.3805 15.022 22.1749C16.8846 24.1029 19.2164 24.7566 20.5491 25C22.0046 24.8198 25.1315 24.2011 27.1673 21.727C29.0191 19.4768 29.3099 16.4923 29.5611 13.9062C29.6513 12.9791 29.6685 12.204 29.6666 11.6666" stroke="#3B0C77" stroke-width="2" stroke-linecap="round" stroke-linejoin="round"/>
<path d="M11.3333 10.2328C11.3333 10.7106 11.3339 11.1889 11.3345 11.6667C13.4889 10.8857 15.7753 10.42 18.0491 10.17C18.8635 10.0806 19.6811 10.0228 20.4999 10" stroke="#3B0C77" stroke-width="2" stroke-linecap="round" stroke-linejoin="round"/>
<path d="M27.2334 10.5795C28.4562 10.8602 29.3109 11.2622 30.491 11.6667V10.8199C30.4999 8.5981 30.4999 6.32942 30.4999 4.12565C28.874 3.46819 27.0665 3.09739 25.3253 2.83476C23.5332 2.56433 21.7136 2.45675 19.9005 2.51565C17.0027 2.6094 14.0342 3.107 11.3352 4.12626C11.3352 4.57999 11.3352 4.96882 11.3333 5.41955" stroke="#3B0C77" stroke-width="2" stroke-linecap="round" stroke-linejoin="round"/>
<path d="M23.6598 12.153C24.9446 12.153 25.9863 11.1114 25.9863 9.8265C25.9863 8.54161 24.9446 7.5 23.6598 7.5C22.3749 7.5 21.3333 8.54161 21.3333 9.8265C21.3333 11.1114 22.3749 12.153 23.6598 12.153Z" stroke="#AF78FE" stroke-width="1.5" stroke-miterlimit="10"/>
<path d="M23.6638 10.5526C24.0438 10.5526 24.3518 10.2424 24.3518 9.85963C24.3518 9.47689 24.0438 9.16663 23.6638 9.16663C23.2839 9.16663 22.9758 9.47689 22.9758 9.85963C22.9758 10.2424 23.2839 10.5526 23.6638 10.5526Z" fill="#AF78FE"/>
<path d="M28.127 34.509H28.0555C28.0046 34.509 27.9885 34.5736 28.0344 34.5941C28.499 34.8016 29.2903 35.3221 29.2903 36.4618C29.2903 37.6015 28.4996 38.122 28.0344 38.3295C27.9885 38.35 28.0046 38.4146 28.0555 38.4146C29.5133 38.4146 30.2543 37.4158 30.2543 36.4283C30.2543 35.4407 29.5431 34.509 28.127 34.509Z" fill="#AF78FE"/>
<path d="M28.2827 36.4618C28.2827 35.4562 27.815 34.8227 27.5995 34.5836C27.5566 34.5364 27.4939 34.509 27.4274 34.509H27.3318C27.2697 34.509 27.2188 34.5562 27.2188 34.6146V38.309C27.2188 38.3674 27.2691 38.4146 27.3318 38.4146H27.4274C27.4939 38.4146 27.5566 38.3879 27.5995 38.34C27.815 38.1009 28.2827 37.4674 28.2827 36.4618Z" fill="#AF78FE"/>
<path d="M13.8333 28.3334L20.7782 35.8334L27.9999 28.3985" stroke="#3B0C77" stroke-width="2" stroke-linecap="round" stroke-linejoin="round"/>
</g>
<defs>
<clipPath id="clip0_1796_127775">
<rect width="40" height="40" fill="white" transform="translate(0.5)"/>
</clipPath>
</defs>
</svg>
