<svg width="41" height="40" viewBox="0 0 41 40" fill="none" xmlns="http://www.w3.org/2000/svg">
<path d="M18.4759 9.47218L16.5635 7.16636L18.9817 4.80434L21.2313 6.71673C21.635 6.44885 22.1612 6.14886 22.8057 5.89192C23.4174 5.64813 23.9765 5.50726 24.4364 5.42332C24.4364 4.33574 24.4364 3.24889 24.4364 2.16131C25.6926 2.14233 26.948 2.12408 28.2042 2.1051C28.2356 3.15473 28.267 4.20435 28.2977 5.2547C28.6984 5.26273 29.3706 5.3277 30.1159 5.66711C30.7429 5.95251 31.1808 6.32258 31.4465 6.58535C32.2589 5.87952 33.0713 5.17295 33.8837 4.46712L36.302 6.94155C35.6209 7.69774 34.9399 8.45394 34.2589 9.21014C34.5363 9.56123 34.8779 10.0671 35.1589 10.7284C35.4436 11.3999 35.5691 12.0057 35.6275 12.4532C36.6961 12.4904 37.7647 12.5283 38.8333 12.5656V16.1086C37.7713 16.14 36.7085 16.1714 35.6465 16.202C35.6509 16.5925 35.6107 17.2356 35.3275 17.9641C35.0494 18.6816 34.6538 19.1786 34.3903 19.464C35.1465 20.2392 35.9027 21.0137 36.6589 21.7888C35.8275 22.6888 34.9969 23.5888 34.1655 24.4881C33.4341 23.7319 32.7035 22.9757 31.9721 22.2195C31.6611 22.5071 31.1589 22.9056 30.4538 23.2129C29.7823 23.5056 29.1787 23.6071 28.767 23.6443C28.7604 24.7757 28.7546 25.9063 28.748 27.0377C27.5546 27.0129 26.3612 26.9881 25.1678 26.9625" stroke="#A97AF9" stroke-linecap="round" stroke-linejoin="round"/>
<path d="M31.8158 10.2941C33.269 12.1116 33.6574 14.5765 32.9187 16.7728C32.2216 18.8451 30.5983 20.4451 28.5355 21.1509C27.9275 21.3589 27.2903 21.4976 26.6487 21.545" stroke="#A97AF9" stroke-linecap="round" stroke-linejoin="round"/>
<path d="M21.5503 9.87231C22.7999 8.6694 24.4152 7.86211 26.0802 7.73364" stroke="#A97AF9" stroke-linecap="round" stroke-linejoin="round"/>
<path d="M12.6302 14.0501C12.8511 14.1124 13.0914 14.1348 13.3176 14.1616C13.7096 14.208 14.1061 14.2101 14.4982 14.1732C15.1446 14.1124 15.7792 13.9864 16.384 13.7533C16.7679 13.6048 17.1443 13.4398 17.5014 13.2363C17.555 13.2059 17.6063 13.1733 17.6606 13.1451C17.7581 13.0951 17.8593 13.0517 17.9612 13.0104L17.7387 13.1016C18.264 12.8866 18.8189 12.7389 19.3836 12.6643L19.1366 12.6969C19.6216 12.6346 20.1126 12.6281 20.5984 12.6904L20.3514 12.6578C20.7762 12.7143 21.1906 12.8229 21.5863 12.985L21.3639 12.8938C21.7515 13.0553 22.1145 13.266 22.4486 13.5165L22.2604 13.3753C22.6584 13.6772 23.0087 14.0313 23.3182 14.4179L23.1732 14.2348C23.5927 14.7648 23.9327 15.3491 24.2169 15.9573L24.1232 15.7408C24.2273 15.987 24.2876 16.2563 24.3411 16.5162C24.3746 16.6792 24.4021 16.8435 24.4244 17.0086L24.391 16.7682C24.5219 17.7312 24.4936 18.7109 24.362 19.6724L24.3954 19.432C24.1946 20.8779 23.7571 22.284 23.1754 23.6264L23.2691 23.4099C22.8525 24.365 22.4404 25.3156 22.0922 26.2967C21.7716 27.2004 21.4852 28.1148 21.2181 29.0344C20.7323 30.7091 20.3209 32.4027 19.8917 34.0912C19.7979 34.4604 19.7027 34.8297 19.6015 35.1975C19.5138 35.5197 19.4386 35.8586 19.3062 36.1663L19.3999 35.9498C19.3434 36.0736 19.2727 36.1887 19.1879 36.2966L19.333 36.1134C19.2459 36.2199 19.1485 36.3147 19.0391 36.3994L19.2273 36.2582C19.0957 36.3567 18.9543 36.4371 18.8018 36.5015L19.0243 36.4103C18.8658 36.4733 18.7029 36.516 18.5333 36.5399L18.7802 36.5073C18.6054 36.5283 18.4328 36.5283 18.258 36.5073L18.505 36.5399C18.3376 36.5167 18.1762 36.4747 18.0192 36.4132L18.2416 36.5044C18.0906 36.4414 17.9508 36.3632 17.8198 36.2669L18.008 36.4081C17.8912 36.3183 17.7863 36.217 17.6948 36.1026L17.8399 36.2858C17.7573 36.1793 17.6889 36.0656 17.6338 35.944L17.7276 36.1605C17.6636 36.0099 17.6338 35.8622 17.6019 35.7043L17.4687 35.031C17.3192 34.2758 17.1696 33.5213 17.0194 32.7661L16.4986 30.1407L16.1118 28.1894C16.0857 28.0569 16.0604 27.9244 16.0329 27.7919C15.9057 27.175 15.4021 26.7029 14.7965 26.5219C14.0072 26.2866 13.1249 26.6008 12.68 27.272C12.5446 27.4769 12.4851 27.7014 12.439 27.9338L12.1154 29.5644C11.9465 30.4166 11.7776 31.2688 11.608 32.121C11.4384 32.9732 11.2844 33.753 11.123 34.5683C11.0367 35.0027 10.9541 35.4372 10.8648 35.8709C10.844 35.9701 10.8127 36.0656 10.7726 36.159L10.8663 35.9426C10.8113 36.0649 10.7428 36.1779 10.6602 36.2843L10.8053 36.1011C10.7131 36.2155 10.6089 36.3162 10.4921 36.4067L10.6803 36.2655C10.5494 36.3618 10.4095 36.4407 10.2585 36.503L10.4809 36.4117C10.324 36.4733 10.1625 36.5153 9.99516 36.5384L10.2421 36.5059C10.0673 36.5269 9.89473 36.5269 9.7199 36.5059L9.96689 36.5384C9.79727 36.5146 9.63435 36.4718 9.47589 36.4088L9.69833 36.5001C9.54582 36.4364 9.40448 36.356 9.2728 36.2568L9.46102 36.398C9.3524 36.3125 9.2542 36.2184 9.16716 36.112L9.31223 36.2952C9.22742 36.1873 9.15675 36.0729 9.10021 35.9483L9.19394 36.1648C9.0764 35.8926 9.00871 35.5943 8.92985 35.3097C8.84058 34.9883 8.75651 34.666 8.67394 34.3431C8.47754 33.5792 8.28932 32.8132 8.09516 32.0486C7.63094 30.2247 7.13846 28.4059 6.52397 26.624C6.14606 25.5292 5.69524 24.47 5.23177 23.4078L5.3255 23.6243C4.74375 22.2819 4.30632 20.8765 4.10546 19.4298L4.13893 19.6702C4.008 18.7087 3.97899 17.7298 4.10992 16.766L4.07644 17.0064C4.13298 16.601 4.21109 16.1897 4.35318 15.8031C4.36137 15.7813 4.36881 15.7603 4.37773 15.7386L4.284 15.9551C4.56818 15.3469 4.90816 14.7626 5.32773 14.2326L5.18267 14.4158C5.49214 14.0291 5.84253 13.6751 6.24054 13.3731L6.05232 13.5143C6.38635 13.2638 6.74864 13.0531 7.13698 12.8916L6.91454 12.9829C7.30957 12.8207 7.72468 12.7121 8.14947 12.6556L7.90248 12.6882C8.38752 12.6259 8.87926 12.6317 9.3643 12.6947L9.11732 12.6621C9.68196 12.7367 10.2369 12.8837 10.7622 13.0994L10.5397 13.0082C10.9742 13.1871 11.3618 13.4506 11.7717 13.6765C12.802 14.2449 13.8621 14.7626 14.9416 15.2361C15.2205 15.3585 15.501 15.4765 15.7829 15.5909C15.9898 15.6749 16.3163 15.6039 16.4994 15.4997C16.692 15.3896 16.8765 15.1746 16.9264 14.9588C16.9807 14.7271 16.9688 14.4672 16.8326 14.2616L16.6876 14.0784C16.5715 13.9661 16.4346 13.8887 16.2769 13.8459C16.2665 13.8416 16.2553 13.8373 16.2449 13.8329L16.4674 13.9241C15.6513 13.5889 14.8508 13.2153 14.0622 12.8221C13.3979 12.4912 12.7418 12.1423 12.1012 11.7686C11.9629 11.6883 11.8304 11.6028 11.6846 11.5355C10.6625 11.062 9.51235 10.7933 8.37711 10.8382C7.4777 10.8737 6.60581 11.0953 5.81203 11.5094C4.82484 12.0242 4.03329 12.8344 3.41657 13.733C3.08999 14.2094 2.7939 14.7278 2.58263 15.2629C2.55138 15.3418 2.5246 15.4222 2.50005 15.504C2.33341 16.0514 2.25232 16.627 2.20248 17.194C2.11693 18.17 2.19355 19.1453 2.34159 20.1119C2.54022 21.4072 2.92856 22.6707 3.43666 23.8813C3.59958 24.2687 3.77589 24.6495 3.94328 25.0347L3.84954 24.8182C4.87468 27.1866 5.57026 29.6802 6.20929 32.1695C6.47488 33.2056 6.72558 34.2447 6.9986 35.2786C7.10127 35.6689 7.2069 36.0591 7.32742 36.4443C7.54837 37.1495 8.05796 37.7621 8.75874 38.0626C9.1508 38.2306 9.54806 38.3326 9.98102 38.3326C10.414 38.3326 10.8299 38.2262 11.2286 38.0517C11.9056 37.7556 12.4628 37.1199 12.6413 36.4175C12.7098 36.1504 12.7507 35.8745 12.8042 35.6037C13.084 34.1918 13.3644 32.7792 13.6441 31.3673C13.848 30.3384 14.0481 29.3088 14.2564 28.2806C14.2705 28.2111 14.2891 28.1431 14.3174 28.0772L14.2237 28.2937C14.2519 28.2336 14.2854 28.1785 14.3271 28.1264L14.182 28.3096C14.2229 28.2604 14.2683 28.2169 14.3196 28.1771L14.1314 28.3183C14.1894 28.2756 14.2512 28.2408 14.3174 28.2119L14.095 28.3031C14.1775 28.2691 14.2616 28.2466 14.3501 28.2336L14.1031 28.2662C14.2006 28.2538 14.2966 28.2538 14.394 28.2662L14.147 28.2336C14.2356 28.2466 14.3196 28.2698 14.4022 28.3031L14.1798 28.2119C14.246 28.2408 14.3077 28.2763 14.3658 28.3183L14.1775 28.1771C14.2281 28.2169 14.2735 28.2604 14.3152 28.3096L14.1701 28.1264C14.211 28.1785 14.2452 28.2343 14.2735 28.2937L14.1798 28.0772C14.2259 28.1843 14.2445 28.2973 14.2668 28.4102L14.3724 28.9446L14.7407 30.8032C15.0316 32.2709 15.3225 33.7378 15.6133 35.2055L15.8372 36.3343C16.0746 37.5304 17.3125 38.3334 18.5161 38.3334C19.2735 38.3334 20.0717 38.0285 20.5798 37.4703C20.8566 37.1662 21.0485 36.8346 21.1705 36.4458C21.227 36.2655 21.2791 36.0845 21.3304 35.9027C21.599 34.9484 21.8296 33.984 22.0721 33.0232C22.6941 30.5556 23.348 28.0837 24.2824 25.7074C24.3999 25.409 24.5219 25.1136 24.6491 24.8189L24.5554 25.0354C24.8351 24.3918 25.129 23.756 25.3715 23.0979C25.5761 22.5425 25.7524 21.9778 25.8959 21.405C26.14 20.429 26.2954 19.4219 26.3282 18.4169C26.3512 17.7044 26.2977 16.9956 26.1801 16.2918C26.1266 15.9739 26.0566 15.6546 25.9488 15.3498C25.8818 15.1608 25.7933 14.9798 25.704 14.8002C25.4749 14.339 25.2108 13.8937 24.9006 13.4803C24.3248 12.7128 23.6351 12.03 22.7781 11.5594C21.4852 10.8498 20.001 10.705 18.5593 10.97C18.1494 11.0453 17.7469 11.159 17.3593 11.3089C17.1354 11.395 16.9048 11.4826 16.6928 11.5956C16.3945 11.7549 16.1058 11.9185 15.7911 12.0481L16.0136 11.9569C15.5181 12.1575 15.0011 12.2979 14.4699 12.3696L14.7169 12.337C14.24 12.3986 13.7557 12.4065 13.2789 12.3457L13.5259 12.3783C13.3912 12.3609 13.2543 12.3406 13.1234 12.3037C12.6562 12.1727 12.0901 12.463 11.9792 12.9358C11.8684 13.4086 12.128 13.9089 12.6287 14.0494L12.6302 14.0501Z" fill="#361371"/>
</svg>
