<svg width="29" height="18" viewBox="0 0 29 18" fill="none" xmlns="http://www.w3.org/2000/svg">
<path d="M2.75512 8.97321C3.0548 9.19337 3.33659 9.41354 3.6139 9.63371C3.75256 9.74599 3.88674 9.85387 4.02316 9.97716L4.42348 10.3294C4.95127 10.8028 5.45446 11.296 5.94646 11.7957C6.19023 12.0489 6.434 12.3021 6.66882 12.5597L6.75828 12.6566L6.78064 12.6808L6.79182 12.6918H6.80748C6.82743 12.704 6.84616 12.718 6.86339 12.7336C6.88352 12.7468 6.90364 12.7535 6.92153 12.7667L6.94614 12.7843H6.97521C7.04569 12.8207 7.12095 12.8474 7.19885 12.8635C7.27782 12.8833 7.3589 12.8936 7.44038 12.8944C7.52987 12.8968 7.61912 12.8841 7.70427 12.8569C7.79641 12.8306 7.8839 12.7905 7.9637 12.738C7.98308 12.7214 8.00405 12.7067 8.02631 12.694C8.04644 12.6808 8.06434 12.6588 8.08446 12.6434L8.11578 12.6191L8.15155 12.5839L8.18734 12.5465H8.19852L8.21194 12.5289L8.24325 12.4937L8.30363 12.4254C8.32376 12.4012 8.34165 12.3836 8.36625 12.3527L8.50715 12.181C8.55188 12.1282 8.60554 12.0599 8.65474 11.9983L8.80459 11.8089C9.21385 11.2827 9.641 10.7081 10.0883 10.1555C10.5356 9.60288 10.994 9.02385 11.4704 8.46683C11.9467 7.90981 12.4477 7.366 12.9576 6.81779C13.2192 6.54919 13.4787 6.28279 13.7515 6.02079C14.0243 5.75879 14.2949 5.5012 14.5745 5.24581C15.7085 4.20742 16.9386 3.27573 18.2489 2.46292C19.606 1.63091 21.0706 0.982224 22.6032 0.534273L23.1891 0.384556L23.4843 0.314108L23.784 0.259067L24.3811 0.148984C24.5824 0.122564 24.7837 0.102748 24.985 0.0785294C25.3853 0.0234881 25.7923 0.0212827 26.1948 0.00587108C26.3961 -0.00733885 26.5996 0.00587108 26.8009 0.00587108C27.0022 0.00587108 27.2035 0.02349 27.4025 0.0322966C27.8243 0.0536555 28.2225 0.230261 28.5183 0.527104C28.814 0.823948 28.9856 1.21935 28.9991 1.63493C29.0126 2.0505 28.867 2.4559 28.5912 2.77075C28.3153 3.0856 27.9294 3.28691 27.5098 3.33478L27.4025 3.34578C26.1981 3.48874 25.0208 3.80165 23.907 4.27488C23.7683 4.32992 23.6319 4.40038 23.4955 4.46202L23.2898 4.55669C23.2204 4.58531 23.1533 4.62054 23.0862 4.65577C22.8156 4.79888 22.545 4.93098 22.2856 5.0961C21.7539 5.40703 21.2395 5.74584 20.7447 6.11106C20.2482 6.48974 19.7607 6.87724 19.2911 7.30215C19.0518 7.50691 18.8237 7.73148 18.5911 7.94724C18.4748 8.05512 18.3674 8.16741 18.2511 8.28629C18.1348 8.40518 18.0275 8.50646 17.9135 8.62535C17.0087 9.56626 16.1547 10.5532 15.355 11.5822C14.945 12.1018 14.5402 12.6331 14.1406 13.1762C13.7381 13.7244 13.3355 14.277 12.8972 14.8604L12.7272 15.0806C12.6691 15.1554 12.6177 15.2281 12.5528 15.3008L12.3649 15.5363C12.3359 15.576 12.2956 15.6222 12.2598 15.664L12.1502 15.7939L12.0966 15.86L12.0675 15.893L12.0339 15.9304L11.8908 16.0846C11.8416 16.1352 11.7969 16.1858 11.7432 16.2365L11.5777 16.3884C11.4659 16.4852 11.3541 16.5865 11.24 16.679C11.126 16.7715 10.9985 16.8573 10.8755 16.9432C9.8598 17.63 8.65691 17.9983 7.42472 18C6.16109 18.0025 4.93297 17.5886 3.93594 16.8243C3.87332 16.7781 3.81294 16.7296 3.75256 16.6812L3.58035 16.5249C3.46853 16.4192 3.35671 16.3157 3.2516 16.2034C3.14649 16.0912 3.05256 15.9833 2.95863 15.8556L2.88707 15.7675L2.86917 15.7455L2.85799 15.7323L2.8401 15.7059L2.76406 15.598C2.56502 15.3118 2.36822 15.0211 2.17589 14.7305C1.79346 14.1427 1.41999 13.5482 1.07558 12.934L0.818398 12.4694C0.737887 12.3131 0.650666 12.159 0.572392 11.9983C0.411371 11.6812 0.25706 11.3598 0.125112 11.0252C-0.0151067 10.6791 -0.0381426 10.2977 0.0594353 9.93778C0.157013 9.57782 0.369995 9.25847 0.666706 9.02721C0.963418 8.79595 1.32802 8.66514 1.7063 8.65422C2.08458 8.6433 2.45634 8.75286 2.7663 8.9666L2.75512 8.97321Z" fill="#5AB0E5"/>
</svg>
