<svg xmlns="http://www.w3.org/2000/svg" width="26.455" height="19" viewBox="0 0 26.455 19">
  <path id="Subtraction_1" data-name="Subtraction 1" d="M-12893.23-1957a2.865,2.865,0,0,1-2.824-2.574h-7.486a2.862,2.862,0,0,1-2.822,2.574,2.864,2.864,0,0,1-2.826-2.574h-1.965a.856.856,0,0,1-.846-.865v-1.314a.856.856,0,0,1,.846-.865h.375l.053-3.318,2.785-6.268h6.963v9.586h1.262a1.661,1.661,0,0,1-.01-.191v-11.464a1.711,1.711,0,0,1,1.691-1.727h10.09a1.712,1.712,0,0,1,1.691,1.727v11.464a1.483,1.483,0,0,1-.014.206.858.858,0,0,1,.723.85v1.314a.858.858,0,0,1-.848.865h-4.012A2.872,2.872,0,0,1-12893.23-1957Zm-2.588-15.155a1.4,1.4,0,0,0-1.377,1.271,6.985,6.985,0,0,0,.428,3.383,5.014,5.014,0,0,0,1.795,2.284,3.848,3.848,0,0,0,2.148.686,3.453,3.453,0,0,0,1.719-.462c.922-.522,2.449-1.948,2.33-5.63a1.4,1.4,0,0,0-1.395-1.379.223.223,0,0,0-.045,0,1.414,1.414,0,0,0-1.35,1.468c.061,1.836-.424,2.78-.9,3.051a.733.733,0,0,1-.363.1,1.11,1.11,0,0,1-.605-.21,3.094,3.094,0,0,1-.994-2.983,1.433,1.433,0,0,0-.3-1.048,1.367,1.367,0,0,0-.934-.522A1.409,1.409,0,0,0-12895.818-1972.154Zm-10.758,2.112-1.676,3.768h5.156v-3.768Z" transform="translate(12912 1975.999)" fill="#5ab0e5"/>
</svg>
